<?xml version="1.0" standalone="no"?>
<!DOCTYPE svg PUBLIC "-//W3C//DTD SVG 1.1//EN" "http://www.w3.org/Graphics/SVG/1.1/DTD/svg11.dtd" >
<svg>
<metadata>
Created by FontForge 20090914 at Wed Apr  1 13:10:14 2015
 By www-data
Copyright (c) 2010, Kimberly Geswein (kimberlygeswein.com). This Font Software is licensed under the SIL Open Font License, Version 1.1.  This license available with a FAQ at:  http://scripts.sil.org/OFL
</metadata>
<defs>
<font id="NothingYouCouldDo" horiz-adv-x="608" >
  <font-face 
    font-family="Nothing You Could Do"
    font-weight="400"
    font-stretch="normal"
    units-per-em="1024"
    panose-1="2 0 0 0 0 0 0 0 0 0"
    ascent="819"
    descent="-205"
    x-height="396.003"
    cap-height="714.498"
    bbox="-345.871 -406.999 1462.52 959.439"
    underline-thickness="51"
    underline-position="-52"
    unicode-range="U+0020-U+FB02"
  />
<missing-glyph horiz-adv-x="410" 
 />
    <glyph glyph-name=".notdef" horiz-adv-x="410" 
 />
    <glyph glyph-name="space" unicode=" " horiz-adv-x="538" 
 />
    <glyph glyph-name="space" unicode="&#xa0;" horiz-adv-x="538" 
 />
    <glyph glyph-name="exclam" unicode="!" horiz-adv-x="266" 
d="M11 23c-5.33301 8 -5.83398 16.6699 -1.50098 26.0029s10.5 17.166 18.5 23.499s16 9.66602 24 9.99902s13.333 -4.5 16 -14.5s2.83398 -20.333 0.500977 -31s-6.33301 -19.334 -12 -26.001s-12.5 -9.66699 -20.5 -9s-16.333 7.66699 -25 21zM67.999 305.003
c-1.33301 4 -0.666992 14.001 2 30.001s6.66699 35.5 12 58.5s12 48.5 20 76.5s16.667 56 26 84s19 55 29 81s19.833 48.667 29.5 68s19 34 28 44s17.167 13.333 24.5 10c0.666992 -3.33301 -0.5 -14.5 -3.5 -33.5s-7.5 -42.333 -13.5 -70s-13.167 -58.167 -21.5 -91.5
s-17 -66 -26 -98s-18.5 -61.833 -28.5 -89.5s-19.667 -49.834 -29 -66.501s-18.333 -26 -27 -28s-16 6.33301 -22 25z" />
    <glyph glyph-name="quotedbl" unicode="&#x22;" horiz-adv-x="284" 
d="M185 409l-6.49707 12.501c-3 5.66699 -4.5 8.83398 -4.5 9.50098v170c12.667 6 22.5 5.66699 29.5 -1s11.833 -16.834 14.5 -30.501s3.66699 -29.834 3 -48.501s-2.33398 -36.5 -5.00098 -53.5s-5.83398 -32 -9.50098 -45s-6.83398 -21.167 -9.50098 -24.5
c-1.33301 0 -3.5 1.5 -6.5 4.5s-4.83301 5.16699 -5.5 6.5zM72.0029 431.001c-3.33301 9.33301 -5.83398 21.001 -7.50098 35.001s-2.83398 28.5 -3.50098 43.5s-1 29.667 -1 44s0.333008 26.166 1 35.499c0 11.333 2.33301 15.5 7 12.5s9.83398 -8.5 15.501 -16.5
s10.834 -16.667 15.501 -26s7 -14.333 7 -15c0.666992 -8.66699 1 -19.834 1 -33.501v-40.5v-34.5c0 -9.66699 -0.333008 -14.834 -1 -15.501l-12 -11c-2 0.666992 -5.83301 3.83398 -11.5 9.50098s-9.16699 9.83398 -10.5 12.501z" />
    <glyph glyph-name="numbersign" unicode="#" horiz-adv-x="689" 
d="M322 11c-2 12.667 -1.6748 26.1641 0.992188 40.4971s5.66699 28.5 9 42.5s5.66602 27.667 6.99902 41s-0.333984 25 -5.00098 35c-4.66699 8.66699 -11.167 12.834 -19.5 12.501s-17.166 -0.833008 -26.499 -1.5c-18.667 -2.66699 -32.5 -7.83398 -41.5 -15.501
s-15.667 -16.834 -20 -27.501s-7.16602 -22.167 -8.49902 -34.5s-3.16602 -24.333 -5.49902 -36s-6.16602 -22.5 -11.499 -32.5s-14 -18 -26 -24c-12 8 -19 17.5 -21 28.5s-2 22.5 0 34.5s4.5 24.333 7.5 37s3.83301 24.334 2.5 35.001c-0.666992 0 -4.5 -0.5 -11.5 -1.5
s-15.333 -1.83301 -25 -2.5s-20.167 -0.833984 -31.5 -0.500977s-22.166 1.33301 -32.499 3s-19.666 4.5 -27.999 8.5s-14.166 9.66699 -17.499 17c-3.33301 6 0.5 11 11.5 15s25.5 8.33301 43.5 13s37.667 10.167 59 16.5s40.5 15.166 57.5 26.499s30 25.666 39 42.999
s10.167 39.333 3.5 66c-10 0.666992 -25.167 -1 -45.5 -5s-41 -6.83301 -62 -8.5s-39.667 -0.5 -56 3.5s-25.833 15 -28.5 33c16.667 7.33301 34 13.333 52 18s36 9 54 13s36.167 7.83301 54.5 11.5s36.166 8.5 53.499 14.5l14.5 26.5
c6.33301 11.667 13.166 23.334 20.499 35.001s14.666 21.834 21.999 30.501s13.333 12.834 18 12.501s7.66699 -6.66602 9 -18.999s0 -33.5 -4 -63.5c20.667 -3.33301 37.334 -1 50.001 7s22.667 18.5 30 31.5s13 26.833 17 41.5s7.66699 27.167 11 37.5
s6.83301 16.833 10.5 19.5s9.5 -1.66602 17.5 -12.999c5.33301 -8.66699 8.16602 -17.5 8.49902 -26.5s-0.333984 -18.167 -2.00098 -27.5s-3.5 -18.833 -5.5 -28.5s-2.33301 -19.5 -1 -29.5c16.667 -2 37.667 -2.83301 63 -2.5s49.5 0.666016 72.5 0.999023
s42.167 0 57.5 -1s21.5 -3.33301 18.5 -7s-18.167 -9.16699 -45.5 -16.5s-71.666 -17.666 -132.999 -30.999c-20 -4 -37.667 -13.167 -53 -27.5s-27 -29.666 -35 -45.999s-11.5 -31.666 -10.5 -45.999s7.5 -23.5 19.5 -27.5c2 -0.666992 9.5 0 22.5 2l46 7
c17.667 2.66699 36.334 5.16699 56.001 7.5s37 3.16602 52 2.49902s26.5 -3.33398 34.5 -8.00098s9.33301 -12.334 4 -23.001s-14.833 -18.334 -28.5 -23.001s-29 -7.66699 -46 -9s-35.167 -2 -54.5 -2s-37.166 -0.666992 -53.499 -2s-30.666 -4.16602 -42.999 -8.49902
s-20.166 -11.833 -23.499 -22.5c-1.33301 -7.33301 -3.16602 -19.666 -5.49902 -36.999s-5.5 -35.5 -9.5 -54.5s-9.33301 -37 -16 -54s-15 -28.833 -25 -35.5c-1.33301 0.666992 -3.66602 2.33398 -6.99902 5.00098s-5 4.66699 -5 6zM265.992 281.997
c-0.666992 -3.33301 -1.00098 -10.6689 -1.00098 -22.002s0.333008 -18.666 1 -21.999c24.667 -4 43.667 -2.83301 57 3.5s23.333 16 30 29s11.5 28.333 14.5 46s6.5 36.5 10.5 56.5c-4.66699 14.667 -10.667 23 -18 25s-15.166 -0.166992 -23.499 -6.5
s-16.5 -15.166 -24.5 -26.499s-15.5 -22.833 -22.5 -34.5s-12.667 -22.167 -17 -31.5s-6.5 -15 -6.5 -17z" />
    <glyph glyph-name="dollar" unicode="$" horiz-adv-x="474" 
d="M85 11c-2.66699 14.667 -2.50781 29.1689 0.492188 43.502s6.33301 28 10 41s6.83398 24.833 9.50098 35.5s2.33398 19.5 -0.999023 26.5s-10.666 11.667 -21.999 14s-29 1.83301 -53 -1.5c-8 5.33301 -12 12.666 -12 21.999s4 16.666 12 21.999
c2.66699 0 7.66699 0.666992 15 2s15.333 2.66602 24 3.99902s16.667 2.5 24 3.5s12.333 1.83301 15 2.5c5.33301 1.33301 12.333 3.33301 21 6s13.334 4.66699 14.001 6l56 158c2.66699 8 0.5 15.333 -6.5 22s-16 13.5 -27 20.5l-35 21.5
c-12.333 7.33301 -22.666 15.5 -30.999 24.5s-13.333 19.167 -15 30.5s2.83301 24.333 13.5 39c6.66699 9.33301 16.834 16.333 30.501 21s28.167 8.5 43.5 11.5l45.5 9c15 3 27.5 7.83301 37.5 14.5c4 2.66699 8.16699 9.16699 12.5 19.5l14.5 35.5l16.5 39.5
c5.66699 13 11.667 23.333 18 31s12.833 11.167 19.5 10.5s13.667 -8.33398 21 -23.001c2.66699 -6 3.5 -12.833 2.5 -20.5s-2.83301 -15.5 -5.5 -23.5s-5 -16 -7 -24s-2.33301 -15.333 -1 -22h101c2 0 4.33301 -1.5 7 -4.5s4.33398 -5.16699 5.00098 -6.5v-35
c-24 -1.33301 -47.167 -3.5 -69.5 -6.5s-41.666 -9 -57.999 -18s-28.5 -22.167 -36.5 -39.5s-10 -41 -6 -71c50 -18 86.667 -35.333 110 -52s37.333 -32.834 42 -48.501s1.66699 -30.5 -9 -44.5s-25.5 -27.333 -44.5 -40s-40.333 -24.5 -64 -35.5s-46.167 -21 -67.5 -30
s-39.5 -17.167 -54.5 -24.5s-23.5 -13.666 -25.5 -18.999l-45 -135c0 -1.33301 -2.16699 -4.16602 -6.5 -8.49902s-9 -8.16602 -14 -11.499s-10 -4.83301 -15 -4.5s-8.16699 4.5 -9.5 12.5zM219.992 248.002c14.667 -2.66699 30.499 -1.5 47.499 3.5s33.333 12.167 49 21.5
s30 20 43 32s23.167 23.333 30.5 34c-0.666992 11.333 -4.66699 21.5 -12 30.5s-16.666 15.833 -27.999 20.5s-23.833 6.66699 -37.5 6s-26.667 -5 -39 -13s-23.333 -20.167 -33 -36.5s-16.5 -37.833 -20.5 -64.5v-34zM163.991 486.002
c18.667 -12.667 33.166 -18.168 43.499 -16.501s17 6.83398 20 15.501s3.16699 18.667 0.5 30s-7.5 20.333 -14.5 27s-15.833 9 -26.5 7s-22 -12 -34 -30c-5.33301 -6.66699 -6.16602 -13 -2.49902 -19s8.16699 -10.667 13.5 -14z" />
    <glyph glyph-name="percent" unicode="%" horiz-adv-x="328" 
d="M23 52c-1.33301 1.33301 -3.50195 4.83105 -6.50195 10.498s-4.83301 9.5 -5.5 11.5c19.333 42 40.166 83 62.499 123l68 119.5l67.5 119.5c22 40 42.667 81 62 123c12.667 4 21.334 3.83301 26.001 -0.5s7.33398 -10.5 8.00098 -18.5s-0.333008 -16.667 -3 -26
s-5.33398 -16.666 -8.00098 -21.999c-35.333 -75.333 -74.166 -149.166 -116.499 -221.499s-82.5 -145.166 -120.5 -218.499c-7.33301 -10 -13.666 -14.333 -18.999 -13s-10.333 5.66602 -15 12.999zM225.998 119.998c-4 12.667 -2.66406 21.6699 4.00293 27.0029
s14.167 7.33301 22.5 6s15.166 -5.83301 20.499 -13.5s4.66602 -18.167 -2.00098 -31.5c-2.66699 -0.666992 -6.16699 -1.33398 -10.5 -2.00098s-8.83301 -0.833984 -13.5 -0.500977s-8.83398 1.66602 -12.501 3.99902s-6.5 5.83301 -8.5 10.5zM23.001 52.001
c-1.33301 1.33301 -3.50195 4.83105 -6.50195 10.498s-4.83301 9.5 -5.5 11.5c19.333 42 40.166 83 62.499 123l68 119.5l67.5 119.5c22 40 42.667 81 62 123c12.667 4 21.334 3.83301 26.001 -0.5s7.33398 -10.5 8.00098 -18.5s-0.333008 -16.667 -3 -26
s-5.33398 -16.666 -8.00098 -21.999c-35.333 -75.333 -74.166 -149.166 -116.499 -221.499s-82.5 -145.166 -120.5 -218.499c-7.33301 -10 -13.666 -14.333 -18.999 -13s-10.333 5.66602 -15 12.999zM225.999 119.999c-4 12.667 -2.66406 21.6699 4.00293 27.0029
s14.167 7.33301 22.5 6s15.166 -5.83301 20.499 -13.5s4.66602 -18.167 -2.00098 -31.5c-2.66699 -0.666992 -6.16699 -1.33398 -10.5 -2.00098s-8.83301 -0.833984 -13.5 -0.500977s-8.83398 1.66602 -12.501 3.99902s-6.5 5.83301 -8.5 10.5zM66.002 486.002
c-4.66699 12.667 -3.66113 21.6787 3.00586 27.0117s14.167 7.16602 22.5 5.49902s15.166 -6.33398 20.499 -14.001s4.66602 -17.834 -2.00098 -30.501c-2.66699 -0.666992 -6.16699 -1.33398 -10.5 -2.00098s-8.83301 -0.833984 -13.5 -0.500977
s-8.83398 1.66602 -12.501 3.99902s-6.16699 5.83301 -7.5 10.5c-4.66699 12.667 -3.66699 21.667 3 27s14.167 7.16602 22.5 5.49902s15.166 -6.33398 20.499 -14.001s4.66602 -17.834 -2.00098 -30.501c-2.66699 -0.666992 -6.16699 -1.33398 -10.5 -2.00098
s-8.83301 -0.833984 -13.5 -0.500977s-8.83398 1.66602 -12.501 3.99902s-6.16699 5.83301 -7.5 10.5z" />
    <glyph glyph-name="ampersand" unicode="&#x26;" horiz-adv-x="384" 
d="M108 -58c-6 6 -8.67383 18.667 -8.00684 38s2.66699 40.5 6 63.5l9.5 66.5c3 21.333 4.16699 36.666 3.5 45.999c-33.333 8 -57.666 16.333 -72.999 25s-24.5 17.667 -27.5 27s-1 19.166 6 29.499s16.333 20.833 28 31.5s24.5 21.834 38.5 33.501s26.5 23.5 37.5 35.5
s19.333 24.5 25 37.5s5.83398 26.5 0.500977 40.5c-16 -3.33301 -33.167 -2.66602 -51.5 2.00098s-31.5 15.334 -39.5 32.001c-5.33301 10 -2.33301 21.167 9 33.5s25 25.166 41 38.499s31.5 27.333 46.5 42s24.167 29 27.5 43c10 46 18.167 80 24.5 102
s11.333 35.333 15 40s6.33398 2.66699 8.00098 -6s2.83398 -21 3.50098 -37s1.33398 -34 2.00098 -54s2 -38.333 4 -55c10 -4.66699 20 -4.16699 30 1.5s20.167 12.5 30.5 20.5s20.833 15 31.5 21s21.667 6.66699 33 2c3.33301 -15.333 1.5 -27.833 -5.5 -37.5
s-16.5 -18 -28.5 -25s-25.167 -13 -39.5 -18s-27 -10.833 -38 -17.5s-19.333 -14.667 -25 -24s-5.5 -21.333 0.5 -36c37.333 3.33301 65.333 4 84 2s30.334 -6.16699 35.001 -12.5s3.83398 -14.666 -2.49902 -24.999s-15.5 -21.833 -27.5 -34.5l-40.5 -41.5
c-15 -15 -29 -30.333 -42 -46s-23.5 -31.334 -31.5 -47.001s-11 -30.834 -9 -45.501c4 0.666992 11.333 1 22 1h34h34.5c11 0 18.5 -0.333008 22.5 -1c19.333 -1.33301 29.833 -4 31.5 -8s-2 -8.83301 -11 -14.5s-21.5 -11.5 -37.5 -17.5l-47.5 -17l-41.5 -14
c-12 -4 -18.333 -6.33301 -19 -7c-9.33301 -14 -14.5 -32.667 -15.5 -56s-1.83301 -47.166 -2.5 -71.499s-3.16699 -46.833 -7.5 -67.5s-14.5 -35 -30.5 -43zM97.9932 246c-1.33301 -1.33301 -3.5 -4.99902 -6.5 -10.999s-4.83301 -10 -5.5 -12
c20 -3.33301 35.833 -2.33301 47.5 3s14.5 19.666 8.5 42.999c-8 2.66699 -16.333 1 -25 -5s-15 -12 -19 -18zM220.993 404.001c6 -2 12.333 -1.33203 19 2.00098s11.667 6.66602 15 9.99902h-34v-12z" />
    <glyph glyph-name="quotesingle" unicode="'" horiz-adv-x="211" 
d="M69 486c0 0.666992 0.833008 4 2.5 10s3.66699 12.5 6 19.5l7.5 21.5c2.66699 7.33301 4.66699 13 6 17c7.33301 20 13.5 32.167 18.5 36.5s9 3.66602 12 -2.00098s5 -15.167 6 -28.5s0.833008 -28.166 -0.5 -44.499s-3.5 -32.666 -6.5 -48.999s-7 -30.333 -12 -42
s-10.833 -19.5 -17.5 -23.5s-14 -2 -22 6c-0.666992 2.66699 -1.16699 7.66699 -1.5 15s-0.5 15.333 -0.5 24s0.166992 16.667 0.5 24s0.833008 12.666 1.5 15.999z" />
    <glyph glyph-name="parenleft" unicode="(" horiz-adv-x="288" 
d="M88 26c-23.333 28.667 -39.335 62.8291 -48.002 102.496s-12.167 81.834 -10.5 126.501s7.83398 90.167 18.501 136.5s23.5 90.5 38.5 132.5s31.5 80.333 49.5 115s35.5 62.334 52.5 83.001s32.5 32.834 46.5 36.501s24.333 -4.16602 31 -23.499
c-22 -20 -44.333 -46.833 -67 -80.5s-43.5 -71.334 -62.5 -113.001s-35 -85.667 -48 -132s-21.167 -91.5 -24.5 -135.5s-0.666016 -85.667 8.00098 -125s25.334 -72.666 50.001 -99.999c3.33301 -4 10.166 -9.33301 20.499 -16l33.5 -22.5c12 -8.33301 23.667 -17 35 -26
s19.833 -18 25.5 -27s7.16699 -17.333 4.5 -25s-12 -14.167 -28 -19.5c-1.33301 -0.666992 -3.33301 -1 -6 -1s-4.66699 0.333008 -6 1c-4.66699 4 -12.5 11.167 -23.5 21.5l-34.5 33.5l-33.5 34.5c-10.333 11 -17.5 18.833 -21.5 23.5z" />
    <glyph glyph-name="parenright" unicode=")" horiz-adv-x="248" 
d="M20 -81c-1.33301 1.33301 -1.99316 3.16602 -1.99316 5.49902s0.666992 4.16602 2 5.49902c55.333 50.667 95.166 109.334 119.499 176.001s36.5 136.167 36.5 208.5s-10.333 144.833 -31 217.5s-48.334 140.334 -83.001 203.001c-2 5.33301 -2.33301 11.5 -1 18.5
s5.66602 12.167 12.999 15.5c37.333 -30 66.666 -67.5 87.999 -112.5s36.666 -93.667 45.999 -146s13.166 -106.5 11.499 -162.5s-7 -109.667 -16 -161s-20.833 -98.333 -35.5 -141s-30.5 -77.167 -47.5 -103.5s-34.333 -42.5 -52 -48.5s-33.834 2.33301 -48.501 25z" />
    <glyph glyph-name="asterisk" unicode="*" horiz-adv-x="559" 
d="M186 79c-2 4.66699 -5.82715 3.83789 -11.4941 -2.49512s-11.834 -14 -18.501 -23s-13.334 -17.5 -20.001 -25.5s-12.167 -11.833 -16.5 -11.5s-7 6.66602 -8 18.999s1.16699 34.5 6.5 66.5c2 12 0.5 20.667 -4.5 26s-12 9 -21 11s-18.667 3 -29 3s-19.5 1 -27.5 3
s-14 5.5 -18 10.5s-4 13.5 0 25.5c14.667 2.66699 31.167 4.5 49.5 5.5s35.166 3.66699 50.499 8s27.666 11.333 36.999 21s12.333 24.5 9 44.5c-1.33301 10 -6.33301 19.5 -15 28.5l-26.5 27c-9 9 -16.5 18.333 -22.5 28s-7 19.5 -3 29.5
c7.33301 3.33301 14.833 4.33301 22.5 3s15 -4 22 -8s13.333 -8.66699 19 -14s10.5 -10.333 14.5 -15l10.5 24c4.33301 10 9 19.833 14 29.5s10.333 18.167 16 25.5s11 11.333 16 12s9.5 -3.33301 13.5 -12s7 -23.667 9 -45c1.33301 0.666992 3.5 2.33398 6.5 5.00098
s4.83301 4.66699 5.5 6l7 11c3.33301 5.33301 6.66602 11.166 9.99902 17.499s6.66602 12.166 9.99902 17.499l7 11c14.667 4.66699 24 3.83398 28 -2.49902s5 -15.833 3 -28.5s-6.16699 -27.334 -12.5 -44.001l-19.5 -49c-6.66699 -16 -12.334 -30.333 -17.001 -43
s-6.33398 -21.334 -5.00098 -26.001c22 -1.33301 43.667 -1.33301 65 0s42.833 3.16602 64.5 5.49902s43.334 4.33301 65.001 6s43.5 1.83398 65.5 0.500977c4 -8 0.333008 -14.833 -11 -20.5s-26.333 -10.834 -45 -15.501s-39 -8.83398 -61 -12.501s-42 -7.5 -60 -11.5
s-32.167 -8.5 -42.5 -13.5s-12.5 -10.5 -6.5 -16.5l102 -113v-23h-35l-135 124c-1.33301 -12.667 -1.16602 -25 0.500977 -37s3.5 -24.167 5.5 -36.5s3.83301 -24.5 5.5 -36.5s1.5 -24.333 -0.5 -37h-34l-34 68v0z" />
    <glyph glyph-name="plus" unicode="+" horiz-adv-x="345" 
d="M181 11c-6.66699 10 -11.9971 21.4971 -15.9971 34.4971s-7 26.5 -9 40.5s-3.66699 27.667 -5 41s-2.66602 25.666 -3.99902 36.999h-113l-23 28c1.33301 1.33301 5 3.33301 11 6s10 4.33398 12 5.00098c4 0.666992 11.333 2.16699 22 4.5l34 7.5
c12 2.66699 23.5 5 34.5 7s18.5 3.33301 22.5 4l23 158c0.666992 4 2.66699 7.16699 6 9.5s7 3.5 11 3.5s7.66699 -1 11 -3s5 -5.33301 5 -10v-146c4 0 10.833 -0.5 20.5 -1.5s20 -2.16699 31 -3.5s21.333 -2.66602 31 -3.99902s16.5 -2.33301 20.5 -3
c1.33301 0 5 -1.5 11 -4.5s9.66699 -5.5 11 -7.5c-7.33301 -11.333 -16.833 -18.666 -28.5 -21.999s-23.834 -5.83301 -36.501 -7.5s-24.5 -4 -35.5 -7s-19.167 -9.5 -24.5 -19.5c-6.66699 -13.333 -9.33398 -26.833 -8.00098 -40.5s3.16602 -27.167 5.49902 -40.5
s3.66602 -26.5 3.99902 -39.5s-3.5 -25.5 -11.5 -37.5c-1.33301 0.666992 -3.5 2.33398 -6.5 5.00098s-4.83301 4.66699 -5.5 6z" />
    <glyph glyph-name="comma" unicode="," horiz-adv-x="181" 
d="M-12 -146c-3.33301 9.33301 -1.83301 20.168 4.5 32.501s14.333 24.666 24 36.999l29.5 36.5c10 12 17 22 21 30c6 12 10.333 24 13 36s4.33398 24 5.00098 36s1.16699 24.167 1.5 36.5s1.5 25.166 3.5 38.499c2.66699 18.667 7.16699 25.5 13.5 20.5
s12.166 -16.333 17.499 -34s8.83301 -38.167 10.5 -61.5s-0.833008 -43.666 -7.5 -60.999c-1.33301 -2 -4 -8 -8 -18s-9.16699 -21.5 -15.5 -34.5s-13.666 -26.667 -21.999 -41s-17 -27 -26 -38s-18 -19.333 -27 -25s-17.833 -6.5 -26.5 -2.5
c-1.33301 0.666992 -3.33301 2.5 -6 5.5s-4.33398 5.16699 -5.00098 6.5z" />
    <glyph glyph-name="hyphen" unicode="-" horiz-adv-x="498" 
d="M29 282c-8.66699 8.66699 -8.16602 16.9941 1.50098 24.9941s25 15.333 46 22s46.167 12.334 75.5 17.001s59.666 8.33398 90.999 11.001s61.833 3.83398 91.5 3.50098s55.667 -2.5 78 -6.5s39 -10 50 -18s13.5 -18.333 7.5 -31c-7.33301 0 -19.5 -0.5 -36.5 -1.5
s-35.167 -2.16699 -54.5 -3.5s-37.666 -2.5 -54.999 -3.5s-29.333 -1.83301 -36 -2.5c-16.667 -1.33301 -37 -5.16602 -61 -11.499s-48.5 -11.666 -73.5 -15.999s-48.833 -6.16602 -71.5 -5.49902s-40.334 7.66699 -53.001 21z" />
    <glyph glyph-name="period" unicode="." horiz-adv-x="146" 
d="M34 11c-9.33301 14 -11.834 28.168 -7.50098 42.501s11.833 25.333 22.5 33s22.334 10.667 35.001 9s22.334 -10.834 29.001 -27.501c4 -10 3.5 -20.5 -1.5 -31.5s-12.167 -20 -21.5 -27s-19.333 -11 -30 -12s-19.334 3.5 -26.001 13.5z" />
    <glyph glyph-name="slash" unicode="/" horiz-adv-x="310" 
d="M23 11c-4 25.333 -2.83691 55.834 3.49609 91.501s16.166 73.667 29.499 114s29 81.833 47 124.5s36.5 84 55.5 124l55 112.5l46.5 89.5c7.33301 4.66699 13.333 5.66699 18 3s8.33398 -6.83398 11.001 -12.501s4.33398 -12 5.00098 -19s0.666992 -12.5 0 -16.5
l-20.5 -45l-30.5 -68l-30.5 -68c-9.66699 -21.333 -16.167 -36.333 -19.5 -45c-3.33301 -6.66699 -8.16602 -18.167 -14.499 -34.5l-20.5 -51.5l-20.5 -51c-6.33301 -16 -10.5 -27 -12.5 -33c-3.33301 -9.33301 -7.33301 -23.5 -12 -42.5s-10 -39.333 -16 -61
s-12.333 -42.667 -19 -63s-13.667 -36.5 -21 -48.5c-2 -2 -4.66699 -4.16699 -8 -6.5s-6.66602 -4 -9.99902 -5s-6.66602 -0.666992 -9.99902 1s-5.33301 5.16699 -6 10.5z" />
    <glyph glyph-name="zero" unicode="0" horiz-adv-x="486" 
d="M68 11c-20 15.333 -33.1641 37.1689 -39.4971 65.502s-7 60.166 -2 95.499s14.667 72.666 29 111.999s32 77.333 53 114s44.5 70.5 70.5 101.5s53.167 56 81.5 75s57 30.333 86 34s56.833 -3.5 83.5 -21.5c20 -13.333 32.333 -33.333 37 -60s3.66699 -57.167 -3 -91.5
s-18.334 -70.666 -35.001 -108.999s-36.334 -75.833 -59.001 -112.5s-47.334 -70.667 -74.001 -102s-53.5 -57 -80.5 -77s-53.167 -32.833 -78.5 -38.5s-48.333 -0.833984 -69 14.499zM79.0029 45.0029c10 -15.333 22.502 -21.998 37.502 -19.998s31.333 9.83301 49 23.5
s36 32 55 55s37.667 48.333 56 76s35.833 56.5 52.5 86.5s31.334 58.5 44.001 85.5s23 51.333 31 73s12.667 38.167 14 49.5c3.33301 37.333 -0.333984 62.166 -11.001 74.499s-25.834 15.333 -45.501 9s-42.334 -20.5 -68.001 -42.5s-51.167 -48.5 -76.5 -79.5
s-49.5 -64.833 -72.5 -101.5s-41.667 -72.834 -56 -108.501s-23 -69.5 -26 -101.5s2.5 -58.333 16.5 -79z" />
    <glyph glyph-name="one" unicode="1" horiz-adv-x="277" 
d="M23 11c-10 10 -14.3301 23.667 -12.9971 41s5 35.333 11 54s12.667 36 20 52s12.666 27.333 15.999 34c2 5.33301 6.16699 15.833 12.5 31.5l22.5 55l27 66.5l27 66.5l22.5 55c6.33301 15.667 10.5 26.167 12.5 31.5c1.33301 4 3.16602 10.5 5.49902 19.5
s5.16602 18.333 8.49902 28s7 19 11 28s8.66699 15.667 14 20s11.333 5.5 18 3.5s14 -9 22 -21c0.666992 -0.666992 -1.83301 -9.16699 -7.5 -25.5l-23 -65l-33 -92l-38.5 -105l-39.5 -105l-35 -92c-10.333 -27 -19 -48.833 -26 -65.5s-11.167 -25.334 -12.5 -26.001
s-4.83301 0.333008 -10.5 3s-9.5 5.33398 -11.5 8.00098z" />
    <glyph glyph-name="two" unicode="2" horiz-adv-x="548" 
d="M34 11c-9.33301 7.33301 -13.1602 14.9971 -11.4932 22.9971s5.5 15.667 11.5 23l76 86.5c25.333 27.667 49.666 55.834 72.999 84.501s45.5 58.5 66.5 89.5s39.833 64.5 56.5 100.5c8.66699 18.667 12.167 32.667 10.5 42s-6.66699 15.166 -15 17.499
s-18.833 2 -31.5 -1s-25.834 -7 -39.501 -12s-26.834 -10.167 -39.501 -15.5s-22.834 -9.33301 -30.501 -12s-12.167 -3.16699 -13.5 -1.5s2.66699 7.16699 12 16.5c12 14 26.833 26.333 44.5 37s35.667 18.5 54 23.5s35.666 6.83301 51.999 5.5s29.666 -6.5 39.999 -15.5
s16 -22.167 17 -39.5s-4.5 -39.666 -16.5 -66.999c-14 -32 -31.833 -61.833 -53.5 -89.5l-66.5 -81.5l-66 -80.5c-21.333 -27 -38.333 -56.167 -51 -87.5c10.667 -3.33301 27.167 -2 49.5 4s47.5 14 75.5 24l87.5 31c30.333 10.667 59.333 19 87 25s52.167 8.33301 73.5 7
s36.666 -9 45.999 -23c1.33301 -1.33301 2 -5.16602 2 -11.499s-0.666992 -10.166 -2 -11.499c-20 3.33301 -44 1.83301 -72 -4.5s-57.833 -14.833 -89.5 -25.5s-64 -22.167 -97 -34.5s-64.5 -22.5 -94.5 -30.5s-57.667 -12.333 -83 -13s-46 5 -62 17z" />
    <glyph glyph-name="three" unicode="3" horiz-adv-x="519" 
d="M29 23c-2 2.66699 -3.99121 5.66992 -5.99121 9.00293s-3.5 6.5 -4.5 9.5s-0.833008 5.83301 0.5 8.5s4.66602 5 9.99902 7c7.33301 2 15.166 2.5 23.499 1.5s17 -2.66699 26 -5s17.833 -4.5 26.5 -6.5s17 -2.66699 25 -2c14 1.33301 34.167 8 60.5 20
s54.333 26.833 84 44.5s58.667 37.167 87 58.5s51.166 42.333 68.499 63s26.666 39.5 27.999 56.5s-10 30.5 -34 40.5c-12 2 -27.667 0.833008 -47 -3.5s-39.666 -9.66602 -60.999 -15.999l-64 -19c-21.333 -6.33301 -40 -10.333 -56 -12s-28.167 0.166016 -36.5 5.49902
s-10.5 16.333 -6.5 33c8.66699 10 20.5 23 35.5 39l46 51.5c15.667 18.333 30.5 37.166 44.5 56.499s24.667 38 32 56l-15.5 -4l-38 -9.5c-15 -3.66699 -30.667 -6.83398 -47 -9.50098s-30.833 -4 -43.5 -4s-21.834 2 -27.501 6s-4.83398 11 2.49902 21
c1.33301 2 8.16602 6.83301 20.499 14.5s27.666 15.834 45.999 24.501s38 17.167 59 25.5s40.667 14.166 59 17.499s33.5 3.33301 45.5 0s18.333 -12 19 -26s-5.83301 -34.5 -19.5 -61.5s-37.5 -62.5 -71.5 -106.5v-34c53.333 4 95 1.5 125 -7.5s50.5 -22.333 61.5 -40
s13.667 -38.167 8 -61.5s-18 -47.333 -37 -72s-43.333 -48.834 -73 -72.501s-63 -44.167 -100 -61.5s-76.333 -30.5 -118 -39.5s-83.834 -11.5 -126.501 -7.5c-1.33301 0.666992 -3.33301 2.5 -6 5.5s-4.33398 5.16699 -5.00098 6.5z" />
    <glyph glyph-name="four" unicode="4" horiz-adv-x="542" 
d="M266 23c-4.66699 22.667 -3.33691 45.5 3.99609 68.5s15.666 45.833 24.999 68.5s17.5 45.167 24.5 67.5s7.83301 44.5 2.5 66.5c-13.333 2 -28.666 0.833008 -45.999 -3.5s-35.166 -9.83301 -53.499 -16.5l-55.5 -20c-18.667 -6.66699 -36.667 -11.167 -54 -13.5
s-33.166 -1.5 -47.499 2.5s-26.5 13.333 -36.5 28c-8.66699 13.333 -12.167 28.5 -10.5 45.5s6.66699 35.333 15 55s18.833 40.167 31.5 61.5l38.5 63c13 20.667 25 40.667 36 60s19.167 37.333 24.5 54c15.333 4 26.5 4.16699 33.5 0.5s11 -9.66699 12 -18
s-0.333008 -18.166 -4 -29.499s-8.16699 -22.666 -13.5 -33.999s-10.666 -22 -15.999 -32l-12 -23c-3.33301 -5.33301 -8.66602 -15 -15.999 -29l-23.5 -44l-24 -44c-7.66699 -14 -12.834 -23.667 -15.501 -29v-23c16 -2 33 -1.5 51 1.5s35.833 7 53.5 12s35 10.5 52 16.5
s32.5 11 46.5 15c32.667 9.33301 58.834 23.333 78.501 42s36 40.5 49 65.5s24.167 52.5 33.5 82.5s20 61 32 93c15.333 4.66699 25 2.5 29 -6.5s4.66699 -21.833 2 -38.5s-7.83398 -35.834 -15.501 -57.501l-23 -62.5l-20 -53.5
c-5.66699 -15.667 -8.16699 -25.834 -7.5 -30.501c11.333 4 22.5 4.16699 33.5 0.5s18.833 -11.167 23.5 -22.5c-4 -9.33301 -10.5 -15.666 -19.5 -18.999s-18.5 -6.33301 -28.5 -9s-19.833 -5.83398 -29.5 -9.50098s-17.5 -10.167 -23.5 -19.5c-14 -22 -26 -45 -36 -69
s-19 -48.667 -27 -74s-15 -50.833 -21 -76.5l-18 -74.5c-4.66699 -1.33301 -11.167 -1.5 -19.5 -0.5s-13.166 5.16699 -14.499 12.5z" />
    <glyph glyph-name="five" unicode="5" horiz-adv-x="542" 
d="M74 11c-5.33301 1.33301 -11.167 3.16992 -17.5 5.50293s-12.333 5.16602 -18 8.49902s-10.5 7.66602 -14.5 12.999s-6 11.666 -6 18.999c0 3.33301 6.16699 4.5 18.5 3.5s26.333 -2.83301 42 -5.5l45.5 -7.5c14.667 -2.33301 24.334 -3.16602 29.001 -2.49902
c38 4 74.167 15 108.5 33s64.166 40.833 89.499 68.5s44.833 59 58.5 94s18.5 71.5 14.5 109.5c-10 20 -24 32.5 -42 37.5s-37.667 5.33301 -59 1s-43.333 -11.5 -66 -21.5s-43.667 -20 -63 -30l-49.5 -25.5c-13.667 -7 -22.5 -9.16699 -26.5 -6.5
c-10.667 7.33301 -17.334 14.833 -20.001 22.5s-3.16699 15.834 -1.5 24.501s4.66699 17.5 9 26.5s8.5 18.5 12.5 28.5c0.666992 2 3.5 8.83301 8.5 20.5l17.5 40c6.66699 15 13.834 29.5 21.501 43.5s14.5 24.333 20.5 31c12 12 30.833 20.667 56.5 26
s53.167 9.33301 82.5 12s58.166 5 86.499 7s51.5 6 69.5 12c16 5.33301 27.333 4.66602 34 -2.00098s7.33398 -15.334 2.00098 -26.001s-17.333 -21.334 -36 -32.001s-45 -17.334 -79 -20.001c-6 0 -16.5 -0.5 -31.5 -1.5s-31 -2.16699 -48 -3.5s-33 -2.5 -48 -3.5
s-25.5 -1.5 -31.5 -1.5c-6 -4.66699 -12.667 -11 -20 -19s-14 -16.667 -20 -26s-10.833 -19 -14.5 -29s-4.5 -19.333 -2.5 -28c15.333 -3.33301 30.833 -3.33301 46.5 0s31.334 7.33301 47.001 12s31.667 8.66699 48 12s33.166 3 50.499 -1c34 -7.33301 59.5 -20 76.5 -38
s26.833 -38.833 29.5 -62.5s-1 -49.167 -11 -76.5s-24.667 -54.166 -44 -80.499s-42.333 -51.166 -69 -74.499s-55.667 -42.833 -87 -58.5s-64 -26.5 -98 -32.5s-67.667 -4.66699 -101 4z" />
    <glyph glyph-name="six" unicode="6" horiz-adv-x="362" 
d="M107 11l-20.498 7.00098c-7.66699 2.66699 -15.167 5.66699 -22.5 9s-14 7.33301 -20 12s-11 10.667 -15 18c-4.66699 28.667 -8.5 57 -11.5 85s0.833008 56 11.5 84c2.66699 7.33301 10 21.666 22 42.999s26.5 45 43.5 71s35.5 52.5 55.5 79.5s39.167 50 57.5 69
s34.666 32.167 48.999 39.5s24.833 4.33301 31.5 -9c1.33301 -2.66699 2 -8.33398 2 -17.001s-0.666992 -14 -2 -16l-39 -36.5c-15.333 -14.333 -31.5 -30.333 -48.5 -48s-33.833 -36.334 -50.5 -56.001s-31.167 -39.667 -43.5 -60s-21.666 -40.333 -27.999 -60
s-7.83301 -38.167 -4.5 -55.5h11c54.667 28.667 99.5 47.5 134.5 56.5s62.167 11.167 81.5 6.5s31.666 -14.5 36.999 -29.5s5.16602 -32.167 -0.500977 -51.5s-16 -39.166 -31 -59.499s-33 -38 -54 -53s-44 -25.667 -69 -32s-50.5 -5.16602 -76.5 3.50098zM107.002 57.001
c14.667 -8.66699 30.3301 -11.668 46.9971 -9.00098s33 8.66699 49 18s30.833 20.666 44.5 33.999s24.334 26.5 32.001 39.5s11.667 24.5 12 34.5s-4.5 16 -14.5 18c-6.66699 1.33301 -17.334 0 -32.001 -4s-30.5 -9.66699 -47.5 -17s-33.667 -16 -50 -26
s-29.666 -20.167 -39.999 -30.5s-16.166 -20.666 -17.499 -30.999s4.33398 -19.166 17.001 -26.499z" />
    <glyph glyph-name="seven" unicode="7" horiz-adv-x="480" 
d="M125 23c-0.666992 1.33301 -1 3.16309 -1 5.49609s0.333008 4.16602 1 5.49902c4 8 11.333 21.5 22 40.5l34 61l34 61.5l23 41c4.66699 8 11.5 18.5 20.5 31.5l29 42.5l31 47.5c10.333 16.333 19.333 32.333 27 48s13.167 30.334 16.5 44.001s3.33301 25.167 0 34.5
l-85 -21.5c-26 -6.33301 -51.667 -11.5 -77 -15.5s-51.333 -6.83301 -78 -8.5s-56 -1.5 -88 0.5c-12 8 -14.5 15.833 -7.5 23.5s20 15.334 39 23.001s42.667 14.834 71 21.501s58 12.667 89 18s61.5 9.83301 91.5 13.5s56.667 6.33398 80 8.00098s41.333 2 54 1
s17 -3.5 13 -7.5c-4 -9.33301 -11.167 -25 -21.5 -47l-37 -77.5l-47.5 -96l-53.5 -101c-18.333 -33 -36.5 -64.167 -54.5 -93.5s-35 -53.666 -51 -72.999s-30.5 -32.333 -43.5 -39s-23.167 -4 -30.5 8z" />
    <glyph glyph-name="eight" unicode="8" horiz-adv-x="498" 
d="M50 11c-14.667 8 -24.5 18.3301 -29.5 30.9971s-6.66699 26 -5 40s5.83398 27.833 12.501 41.5s14 25.167 22 34.5l27.5 30l41 44l40.5 44c12.667 14 21.667 23.667 27 29c6 15.333 6.33301 30 1 44s-12.666 28.167 -21.999 42.5s-18.333 28.833 -27 43.5
s-13.167 29.834 -13.5 45.501s5.5 32.334 17.5 50.001s34.333 36.5 67 56.5c37.333 23.333 67 36.666 89 39.999s40.333 0 55 -10s27.667 -24.833 39 -44.5s25.666 -40.834 42.999 -63.501c2 -2 5.33301 -4 10 -6s9.16699 -4.16699 13.5 -6.5s7.83301 -5.33301 10.5 -9
s3 -8.16699 1 -13.5c-16.667 -10.667 -34.167 -22.5 -52.5 -35.5s-36.5 -26.667 -54.5 -41s-35.333 -29.333 -52 -45s-31.667 -31.5 -45 -47.5c-6 -22.667 -6.83301 -43.5 -2.5 -62.5s9.66602 -36.667 15.999 -53s11.833 -31.666 16.5 -45.999s4.66699 -28.666 0 -42.999
s-16.167 -28.666 -34.5 -42.999s-47.166 -29.833 -86.499 -46.5c-18.667 -7.33301 -39.334 -11.333 -62.001 -12s-43.667 3.33301 -63 12zM62 44.9971c40 -7.33301 72.499 -6.66895 97.499 1.99805s44.333 21.167 58 37.5s22.5 34.833 26.5 55.5s4.83301 39.834 2.5 57.501
s-7.16602 31.5 -14.499 41.5s-15 13 -23 9l-33 -29c-15.333 -13.333 -31 -28.166 -47 -44.499s-30.5 -33 -43.5 -50s-20.833 -32.167 -23.5 -45.5v-34zM197.999 383.994c0.666992 -1.33301 2.16699 -3.66797 4.5 -7.00098l7 -10.5l6.5 -10.5
c2 -3.33301 3.33301 -5.33301 4 -6c1.33301 -0.666992 3.33301 -1 6 -1s4.66699 0.333008 6 1l22 18l34 27.5l34.5 27.5l22.5 18c3.33301 2.66699 8 6.83398 14 12.501s9 9.16699 9 10.5v90c0 7.33301 -6.33301 12.5 -19 15.5s-28 3.5 -46 1.5s-36.5 -7 -55.5 -15
s-34.833 -19.5 -47.5 -34.5s-20.167 -33.833 -22.5 -56.5s4.5 -49.667 20.5 -81z" />
    <glyph glyph-name="nine" unicode="9" horiz-adv-x="390" 
d="M118 11c-4 23.333 -3.49805 42.834 1.50195 58.501s12.5 34.167 22.5 55.5c4 7.33301 10.667 20.666 20 39.999l30.5 61.5l30.5 61.5c9.33301 19.333 16 32.666 20 39.999v11c-11.333 4 -22.5 4.66699 -33.5 2s-22 -6.66699 -33 -12s-22 -11.166 -33 -17.499
s-22 -11.333 -33 -15s-22.333 -5.33398 -34 -5.00098s-23.834 4.83301 -36.501 13.5c-18 12 -26 28.333 -24 49s10.833 42 26.5 64s36.667 42.333 63 61s54.666 31.834 84.999 39.501s61 8 92 1s59.5 -25.5 85.5 -55.5c1.33301 -5.33301 -3 -21.333 -13 -48
s-23.167 -58.334 -39.5 -95.001s-34.5 -75 -54.5 -115s-39.5 -76 -58.5 -108s-36.167 -56.667 -51.5 -74s-26.333 -21.666 -33 -12.999zM74.002 373.001c-1.33301 -1.33301 -3.33691 -5 -6.00391 -11s-4.66699 -10 -6 -12c20 -5.33301 41.5 -5.16602 64.5 0.500977
s45.333 14.334 67 26.001s41.834 25.334 60.501 41.001s34 31.167 46 46.5c-6.66699 13.333 -16.167 21.166 -28.5 23.499s-26 1.16602 -41 -3.50098s-30.667 -11.834 -47 -21.501s-31.666 -20.167 -45.999 -31.5s-27.166 -22.333 -38.499 -33s-19.666 -19 -24.999 -25z" />
    <glyph glyph-name="colon" unicode=":" horiz-adv-x="125" 
d="M28 23c-4.66699 9.33301 -5.00098 16.833 -1.00098 22.5s9.83301 9.5 17.5 11.5s15.334 2 23.001 0s13.167 -6 16.5 -12c6 -11.333 7.33301 -20.833 4 -28.5s-8.66602 -12.667 -15.999 -15s-15.333 -1.83301 -24 1.5s-15.334 10 -20.001 20zM38.999 294
c-7.33301 6.66699 -11.168 13.833 -11.501 21.5s1.33398 14.334 5.00098 20.001s9.16699 9.16699 16.5 10.5s15.333 -1 24 -7s13.5 -13.333 14.5 -22s-0.5 -16.167 -4.5 -22.5s-10 -10.333 -18 -12s-16.667 2.16602 -26 11.499z" />
    <glyph glyph-name="semicolon" unicode=";" horiz-adv-x="175" 
d="M-16 -165c-1.33301 1.33301 -2.00293 3.33203 -2.00293 5.99902s0.666992 4.33398 2 5.00098c18.667 24 34.334 45.5 47.001 64.5s22.5 38.5 29.5 58.5s11.5 41.667 13.5 65s2 51 0 83c3.33301 2 6.83301 2.16699 10.5 0.5s7.33398 -4.16699 11.001 -7.5
s6.66699 -6.66602 9 -9.99902l3.5 -5c12 -16 18.333 -35.833 19 -59.5s-2.16602 -47.834 -8.49902 -72.501s-15.5 -48.167 -27.5 -70.5s-24.5 -40.5 -37.5 -54.5s-25.833 -22 -38.5 -24s-23 5 -31 21zM39.9971 342.999c-1.33301 1.33301 -1.99902 5.16602 -1.99902 11.499
s0.666992 10.166 2 11.499h45v-45c-4.66699 -2.66699 -9.33398 -3.66699 -14.001 -3s-9 2.33398 -13 5.00098s-7.5 5.83398 -10.5 9.50098s-5.5 7.16699 -7.5 10.5z" />
    <glyph glyph-name="less" unicode="&#x3c;" horiz-adv-x="464" 
d="M396 11l-163.001 107.499c-54.667 35.667 -106 75.5 -154 119.5l-32.5 28.5c-11 9.66699 -19.667 19.5 -26 29.5s-9 20.5 -8 31.5s8.16699 22.5 21.5 34.5l27.5 24.5l42 38l49.5 44.5l49 44.5l41.5 38l27.5 24.5c3.33301 1.33301 8 1.33301 14 0s11.5 -3.5 16.5 -6.5
s8.33301 -6.83301 10 -11.5s-0.166016 -10 -5.49902 -16l-215 -214c-7.33301 -7.33301 -6.66602 -17 2.00098 -29s20 -24 34 -36s27.833 -22.667 41.5 -32s21.834 -15 24.501 -17l46.5 -31.5l71.5 -47.5l71.5 -47.5c22.333 -15 38.166 -25.167 47.499 -30.5
c6.66699 -8.66699 10.667 -17.167 12 -25.5s0.166016 -15.166 -3.50098 -20.499s-9.16699 -8.33301 -16.5 -9s-16 2.33301 -26 9z" />
    <glyph glyph-name="equal" unicode="=" horiz-adv-x="430" 
d="M23 23c-4 6 -1.50098 11.499 7.49902 16.499s21.667 9.5 38 13.5s34.5 7.66699 54.5 11s39 6 57 8l46.5 5c13 1.33301 20.5 2 22.5 2c5.33301 0 15 0.166992 29 0.5s28.833 0.5 44.5 0.5s30.5 -0.166992 44.5 -0.5s23.667 -0.5 29 -0.5c3.33301 -2 6.5 -5 9.5 -9
s3.5 -8.33301 1.5 -13c-24.667 -3.33301 -53.167 -7.66602 -85.5 -12.999l-96.5 -16.5l-90 -16c-28 -5 -50.333 -8.83301 -67 -11.5c-12 -2 -20.667 -1.5 -26 1.5s-11.666 10.167 -18.999 21.5zM78.999 247.999c4 8 13.666 15.332 28.999 21.999s33.333 12 54 16
s42.834 6.83301 66.501 8.5s46 1.5 67 -0.5s39.5 -5.83301 55.5 -11.5s27 -13.167 33 -22.5c-2.66699 -3.33301 -11.667 -6.66602 -27 -9.99902s-33.833 -6.5 -55.5 -9.5s-45 -5.5 -70 -7.5s-48.333 -2.83301 -70 -2.5s-40.167 1.83301 -55.5 4.5s-24.333 7 -27 13z" />
    <glyph glyph-name="greater" unicode="&#x3e;" horiz-adv-x="345" 
d="M39 23c-6.66699 12.667 -5.33398 26.9961 3.99902 42.9961s22.666 33 39.999 51s36.666 36.667 57.999 56s41 38.5 59 57.5s32.5 37.667 43.5 56s14.5 35.833 10.5 52.5c-0.666992 1.33301 -7 6.83301 -19 16.5l-43.5 35.5l-55.5 45.5
c-20 16.333 -38.167 32.166 -54.5 47.499s-29.666 29.333 -39.999 42s-14.833 22 -13.5 28c0.666992 2.66699 3.83398 6.83398 9.50098 12.501s9.83398 8.83398 12.501 9.50098c14 -10.667 32.167 -23.167 54.5 -37.5l68.5 -46
c23.333 -16.333 45.666 -33.666 66.999 -51.999s38.333 -37.333 51 -57s19.5 -40 20.5 -61s-7.16699 -41.833 -24.5 -62.5l-23 -28.5l-33.5 -40.5l-38 -45l-37 -43.5l-30.5 -36l-18 -21.5c-1.33301 -2 -4.16602 -5.16699 -8.49902 -9.5l-13.5 -13.5l-13.5 -13.5
c-4.33301 -4.33301 -7.5 -7.16602 -9.5 -8.49902c-2 1.33301 -6 4.83301 -12 10.5s-9.66699 9.83398 -11 12.501z" />
    <glyph glyph-name="question" unicode="?" horiz-adv-x="548" 
d="M78 26c-5.33301 7.33301 -9.5 14.666 -12.5 21.999s-2.83301 15.333 0.5 24c4.66699 14.667 9.5 22 14.5 22s9.5 -3.83301 13.5 -11.5s7 -17.5 9 -29.5s2.66699 -22.167 2 -30.5s-3.16699 -13.166 -7.5 -14.499s-10.833 4.66699 -19.5 18zM64 273
c-4.66699 17.333 1.66602 37.332 18.999 59.999s40.333 46.5 69 71.5s60.667 50.5 96 76.5l102 76c32.667 24.667 61.5 47.834 86.5 69.501s41.167 40.667 48.5 57s3.5 29.166 -11.5 38.499s-46.167 14 -93.5 14h-271c-5.33301 10.667 -6 20.834 -2 30.501
s12.333 14.5 25 14.5h282c16.667 0 35 -4.66699 55 -14s37 -21.5 51 -36.5s22.667 -32 26 -51s-3 -37.833 -19 -56.5c-30 -35.333 -64.833 -66 -104.5 -92l-119.5 -76c-40 -24.667 -78.167 -51.167 -114.5 -79.5s-66.5 -62.5 -90.5 -102.5
c-2 -2.66699 -4.66699 -5.16699 -8 -7.5s-6.66602 -3.83301 -9.99902 -4.5s-6.5 -0.166992 -9.5 1.5s-5.16699 5.16699 -6.5 10.5z" />
    <glyph glyph-name="at" unicode="@" horiz-adv-x="667" 
d="M170 11c-42 12 -74.501 31.3291 -97.501 57.9961s-38.333 57.834 -46 93.501s-8.66699 74.5 -3 116.5s16.334 84 32.001 126s35.167 82.833 58.5 122.5s48.666 75.334 75.999 107.001s56 57.667 86 78s59.167 32.333 87.5 36s55.166 -2.5 80.499 -18.5s47 -44.667 65 -86
c8.66699 -19.333 15.667 -39.833 21 -61.5s8 -43.167 8 -64.5s-3.16699 -42.5 -9.5 -63.5s-16.5 -40.5 -30.5 -58.5c-10 -13.333 -21.667 -27.166 -35 -41.499s-27.666 -27.333 -42.999 -39s-31.666 -20.834 -48.999 -27.501s-35.333 -8.66699 -54 -6
c-7.33301 0.666992 -17 0.666992 -29 0s-24.167 -1.5 -36.5 -2.5s-24 -1.5 -35 -1.5s-18.833 1.33301 -23.5 4c-26.667 13.333 -41.834 30.333 -45.501 51s-0.166992 41.5 10.5 62.5s26 41 46 60s40.167 33.833 60.5 44.5s38.833 15.5 55.5 14.5s26.667 -10.5 30 -28.5
c2.66699 -11.333 2.83398 -23.5 0.500977 -36.5s-5.66602 -26 -9.99902 -39s-8.83301 -25.667 -13.5 -38s-8 -23.5 -10 -33.5c2.66699 -5.33301 5.83398 -8.66602 9.50098 -9.99902s7.5 -1.66602 11.5 -0.999023s8.16699 2.16699 12.5 4.5s8.16602 4.5 11.499 6.5
c46.667 31.333 80.5 66.166 101.5 104.499s28.5 86.166 22.5 143.499c-3.33301 40.667 -13.5 69.334 -30.5 86.001s-37.667 24.167 -62 22.5s-50.833 -11.5 -79.5 -29.5s-57 -41.333 -85 -70s-54 -61.667 -78 -99s-43.167 -76.5 -57.5 -117.5s-22.333 -82.333 -24 -124
s5.5 -81.5 21.5 -119.5c14 -33.333 30.833 -57.5 50.5 -72.5s41.167 -23.167 64.5 -24.5s48 2.66699 74 12s52.167 22 78.5 38s52.666 34 78.999 54l75.5 59.5l67 54c20.667 16.333 38.667 28.833 54 37.5c4 -24.667 -1.5 -49.5 -16.5 -74.5s-35.833 -49.167 -62.5 -72.5
s-57.5 -44.666 -92.5 -63.999s-70.333 -35.5 -106 -48.5s-70 -21.833 -103 -26.5s-60.833 -3.66699 -83.5 3zM203.999 372.996c-1.33301 -2.66699 -1.99805 -8.33105 -1.99805 -16.998s0.666992 -14.334 2 -17.001c12.667 -7.33301 23.667 -6.66602 33 2.00098
s17.166 20.167 23.499 34.5s11.166 29.166 14.499 44.499l7 32c-9.33301 5.33301 -18.333 5.16602 -27 -0.500977s-16.5 -13.5 -23.5 -23.5s-13 -20.5 -18 -31.5s-8.16699 -18.833 -9.5 -23.5z" />
    <glyph glyph-name="A" unicode="A" horiz-adv-x="847" 
d="M-78 -185c-2 1.33301 -5.16309 4.50098 -9.49609 9.50098s-7.83301 10.167 -10.5 15.5s-3.83398 10 -3.50098 14s4.16602 6 11.499 6c14 -19.333 33.667 -26.666 59 -21.999s52.666 16.167 81.999 34.5s59.166 41.333 89.499 69s57.666 55.167 81.999 82.5
s44.333 52 60 74s23.5 36.667 23.5 44c0 2 -2.66699 5.16699 -8 9.5s-11.5 8.83301 -18.5 13.5l-19.5 13c-6 4 -9.66699 7 -11 9c2 6.66699 8.33301 11.834 19 15.501s22.667 7 36 10l39.5 9c13 3 22.833 6.83301 29.5 11.5l92.5 138.5l75 121l72.5 122.5l85 142
c8.66699 14.667 15.667 19.667 21 15s9.33301 -16 12 -34s4.33398 -40.833 5.00098 -68.5s0.666992 -57.5 0 -89.5s-1.83398 -64.667 -3.50098 -98s-3.33398 -64 -5.00098 -92s-3 -52.167 -4 -72.5s-1.16699 -33.5 -0.5 -39.5c2.66699 -34 4.5 -63.5 5.5 -88.5
s4.16699 -48 9.5 -69s14.5 -41.333 27.5 -61s32.833 -41.167 59.5 -64.5c-22 -7.33301 -40.167 -6.83301 -54.5 1.5s-26 21 -35 38s-16.333 36.667 -22 59l-16 65c-5 21 -10.667 39.333 -17 55s-14.833 25.834 -25.5 30.501c-0.666992 0 -2.5 0.166992 -5.5 0.5
s-6.33301 0.5 -10 0.5s-7.16699 -0.166992 -10.5 -0.5s-5.66602 -0.5 -6.99902 -0.5c-6 -1.33301 -17.167 -4 -33.5 -8l-53.5 -13l-55.5 -14l-38.5 -10c-16.667 -4.66699 -34.167 -15.334 -52.5 -32.001s-37.666 -36.834 -57.999 -60.501s-41.333 -49.5 -63 -77.5l-66.5 -82
c-22.667 -26.667 -45.667 -51.334 -69 -74.001s-46.666 -41 -69.999 -55s-46.833 -21.833 -70.5 -23.5s-46.834 5.16602 -69.501 20.499zM464.004 255.001c1.33301 -0.666992 4.83105 -1.00195 10.498 -1.00195s9.5 0.333008 11.5 1c12 2 27 4.33301 45 7
s36 5.83398 54 9.50098s34.667 8 50 13s26 10.5 32 16.5l3 21c2 14 4.33301 31.833 7 53.5l8.5 72l8.5 77.5c2.66699 25.333 4.83398 48.833 6.50098 70.5s2.83398 38.5 3.50098 50.5c-7.33301 3.33301 -17 -5.16699 -29 -25.5s-27.5 -48.166 -46.5 -83.499l-69 -123.5
c-27 -47 -58.833 -95.833 -95.5 -146.5v-12z" />
    <glyph glyph-name="B" unicode="B" horiz-adv-x="718" 
d="M74 3c-20 11.333 -34.0029 22.335 -42.0029 33.002s-12 22 -12 34s3 25.333 9 40l21 51l12 24.5l20.5 43.5l25 52.5l25 52.5l20 43.5c5.66699 12.333 9.5 20.5 11.5 24.5c8.66699 18.667 12.5 35.167 11.5 49.5s-2.66699 27.833 -5 40.5s-3.33301 25 -3 37
s6.5 25.667 18.5 41c2 2 6.33301 6.66699 13 14l21.5 23.5l21.5 23c6.66699 7 10.667 11.5 12 13.5c3.33301 4 12.833 10.667 28.5 20s34.834 19.5 57.501 30.5s47.834 22.333 75.501 34s55.167 22 82.5 31s53.666 15.833 78.999 20.5s47 6 65 4s31.167 -8.33301 39.5 -19
s9.5 -27 3.5 -49c-10 -36 -26.167 -67.667 -48.5 -95s-45.833 -51.666 -70.5 -72.999s-48.167 -40.333 -70.5 -57s-38.833 -32.334 -49.5 -47.001c80 -2.66699 138.5 -12.334 175.5 -29.001s58 -37.667 63 -63s-3.16699 -53.5 -24.5 -84.5s-50.666 -61.667 -87.999 -92
s-79.666 -59 -126.999 -86s-94.5 -49.167 -141.5 -66.5s-91 -28.333 -132 -33s-73.5 -0.333984 -97.5 12.999zM152.997 245.002c-12.667 -15.333 -24.3301 -32.165 -34.9971 -50.498s-18.834 -36.333 -24.501 -54s-8.16699 -34.334 -7.5 -50.001s5.66699 -28.334 15 -38.001
s23.5 -15.5 42.5 -17.5s44.5 1.66699 76.5 11c70.667 16 132.167 36.333 184.5 61s95.666 50.5 129.999 77.5s59.666 53.833 75.999 80.5s24 50.167 23 70.5s-10.667 35.833 -29 46.5s-44.833 13.834 -79.5 9.50098s-77.5 -18 -128.5 -41s-109.833 -58.167 -176.5 -105.5
c-7.33301 -6 -14 -8.83301 -20 -8.5s-11.667 1.66602 -17 3.99902l-15 6.5c-4.66699 2 -9.66699 1.33301 -15 -2zM175.001 329.003c0 -2 -0.170898 -4.99805 -0.503906 -8.99805s-0.5 -8.16699 -0.5 -12.5s0.166992 -8.5 0.5 -12.5s0.5 -7 0.5 -9
c5.33301 1.33301 16.333 7.66602 33 18.999s36.834 26 60.501 44l77.5 61.5l84.5 72c28.333 25 55.333 50 81 75s47.834 48.5 66.501 70.5s32.834 41.5 42.501 58.5s12.5 30.167 8.5 39.5c-29.333 4 -60.166 2.16699 -92.499 -5.5s-64 -18.834 -95 -33.501
s-59.833 -31.5 -86.5 -50.5s-49 -37.5 -67 -55.5c-4 -8.66699 -10.667 -24 -20 -46l-30.5 -70l-31 -69.5l-20.5 -45.5c0 -1.33301 -1.66699 -4.83301 -5 -10.5s-5.33301 -9.16699 -6 -10.5z" />
    <glyph glyph-name="C" unicode="C" horiz-adv-x="633" 
d="M107 11c-40.667 16 -68.667 37.6641 -84 64.9971s-21.5 57.833 -18.5 91.5s13.667 69.667 32 108s41 76.833 68 115.5s56.833 76.334 89.5 113.001s65 70.334 97 101.001s62 57.334 90 80.001s50.667 39.334 68 50.001c24 14.667 44 21.834 60 21.501
s28.833 -5.33301 38.5 -15s16.334 -23 20.001 -40s5.33398 -35 5.00098 -54s-2.33301 -38 -6 -57s-8.33398 -35.5 -14.001 -49.5s-11.667 -24.333 -18 -31s-12.5 -7 -18.5 -1c-0.666992 5.33301 0 13.5 2 24.5s4.5 23.5 7.5 37.5s5.83301 28.333 8.5 43s4.5 28.167 5.5 40.5
s0.666992 22.833 -1 31.5s-5.5 13.667 -11.5 15c-23.333 6 -51.166 0.5 -83.499 -16.5s-66 -41.333 -101 -73s-69.667 -68.334 -104 -110.001s-65.5 -84.5 -93.5 -128.5s-51 -86.833 -69 -128.5s-28.167 -78.334 -30.5 -110.001s4.66699 -56 21 -73
s45.166 -22.5 86.499 -16.5c38 5.33301 73.167 18.833 105.5 40.5s63.666 45.667 93.999 72l90.5 78c30 25.667 61.333 45.167 94 58.5c12 4.66699 21.5 3 28.5 -5s8.83301 -17.667 5.5 -29c-4 -11.333 -15.833 -26.333 -35.5 -45s-44 -38.167 -73 -58.5
s-60.833 -40.666 -95.5 -60.999s-68.5 -37.833 -101.5 -52.5s-63.667 -25.334 -92 -32.001s-50.5 -6.66699 -66.5 0z" />
    <glyph glyph-name="D" unicode="D" horiz-adv-x="823" 
d="M23 11c-3.33301 10 -2.66602 18.835 2.00098 26.502s11.667 14.167 21 19.5c41.333 20.667 81.666 38.167 120.999 52.5l116.5 43c38.333 14.333 76.5 30.333 114.5 48s76.667 40.5 116 68.5c87.333 50.667 154.333 98 201 142s77.667 83.833 93 119.5s17.333 67 6 94
s-31 48.833 -59 65.5s-62.167 27.834 -102.5 33.501s-82.166 5.16699 -125.499 -1.5s-85.666 -19.834 -126.999 -39.501s-77 -46.834 -107 -81.501c-0.666992 -1.33301 -1.66699 -3.66602 -3 -6.99902s-2.5 -6.83301 -3.5 -10.5l-3 -11
c-1 -3.66699 -1.5 -5.83398 -1.5 -6.50098c-20 -48 -38.833 -89.167 -56.5 -123.5l-50 -99c-15.667 -31.667 -30.5 -65.334 -44.5 -101.001s-27.333 -78.834 -40 -129.501c-12 -4 -20.5 -3.66699 -25.5 1s-7.83301 11.834 -8.5 21.501s0.5 20.834 3.5 33.501s6.5 25 10.5 37
s8 23 12 33s6.66699 17 8 21c5.33301 15.333 13.666 35.166 24.999 59.499l36 76.5l36 77c11.333 24.667 20 44.667 26 60c-6 19.333 -7.16699 36.5 -3.5 51.5s10.167 28.667 19.5 41s20.666 23.666 33.999 33.999l40 30.5c38 28 79 49.667 123 65s88.833 23.833 134.5 25.5
s91.167 -4.16602 136.5 -17.499s88 -35 128 -65c32 -26.667 50.833 -55.667 56.5 -87s1.16699 -63.5 -13.5 -96.5s-37.5 -66.5 -68.5 -100.5s-67.167 -67.333 -108.5 -100s-86.166 -64.167 -134.499 -94.5s-96.666 -58.333 -144.999 -84s-95.333 -48.334 -141 -68.001
s-86.334 -35.167 -122.001 -46.5s-64.834 -18.166 -87.501 -20.499s-35.667 1.16699 -39 10.5z" />
    <glyph glyph-name="E" unicode="E" horiz-adv-x="746" 
d="M18 23c-4 3.33301 -2.99121 7.00195 3.00879 11.002c6.66699 24 13.5 47 20.5 69s14.5 43.833 22.5 65.5l25.5 66l28.5 70.5c3.33301 6 2.83301 12.167 -1.5 18.5s-9.33301 12.666 -15 18.999s-9.66699 13 -12 20s0.166992 14.167 7.5 21.5
c0.666992 0.666992 3.16699 1.66699 7.5 3s9.16602 2.5 14.499 3.5s10.166 2 14.499 3s7.16602 1.83301 8.49902 2.5c2 1.33301 5.83301 4.83301 11.5 10.5s9.16699 9.5 10.5 11.5c10.667 18 20.834 34 30.501 48s18.667 28 27 42s15.833 28.667 22.5 44
s12.667 33.333 18 54c2 8 0.166992 13.167 -5.5 15.5s-12.167 4.5 -19.5 6.5s-13.333 5.16699 -18 9.5s-5 12.5 -1 24.5c2.66699 7.33301 15.5 15.333 38.5 24s52.167 17 87.5 25s75 15.333 119 22s88 12 132 16s86 6.5 126 7.5s74 -0.333008 102 -4s48 -10 60 -19
s11.667 -21.5 -1 -37.5c-6 -1.33301 -12.167 -1.5 -18.5 -0.5s-12.833 2.5 -19.5 4.5s-13.667 3.83301 -21 5.5s-14.333 2.16699 -21 1.5c-32 -2.66699 -63.333 -3.66699 -94 -3s-61.334 1 -92.001 1s-61.334 -1.16699 -92.001 -3.5s-61.334 -7.83301 -92.001 -16.5
c-21.333 -6 -40.333 -16.5 -57 -31.5s-32.5 -34 -47.5 -57s-30 -49.5 -45 -79.5l-50.5 -99c7.33301 -2 21.166 -0.666992 41.499 4s43.666 10.5 69.999 17.5s54.166 14 83.499 21s56.833 12 82.5 15s48.167 3 67.5 0s32.333 -10.833 39 -23.5
c0.666992 -1.33301 1 -3.33301 1 -6s-0.333008 -4.33398 -1 -5.00098c-35.333 -5.33301 -71.833 -10.166 -109.5 -14.499s-75 -9.83301 -112 -16.5s-73.167 -15.5 -108.5 -26.5s-68.666 -25.833 -99.999 -44.5c-25.333 -44.667 -48 -90.667 -68 -138
s-37.667 -95.333 -53 -144c19.333 6.66699 41.833 13.167 67.5 19.5l74 17.5c23.667 5.33301 44.334 9.66602 62.001 12.999l31.5 6c56.667 8.66699 111.167 15.5 163.5 20.5s106.833 5.83301 163.5 2.5c4.66699 -1.33301 8 -4 10 -8s3.33301 -8.5 4 -13.5
s0.666992 -9.83301 0 -14.5s-1.33398 -8 -2.00098 -10c-72.667 4 -144.834 1.33301 -216.501 -8s-142.834 -21.666 -213.501 -36.999c-11.333 -2.66699 -25.166 -7.33398 -41.499 -14.001s-33 -12.667 -50 -18s-33.333 -9 -49 -11s-28.834 0.666992 -39.501 8
c-2.66699 1.33301 -5 3 -7 5s-3.33301 4.66699 -4 8z" />
    <glyph glyph-name="F" unicode="F" horiz-adv-x="744" 
d="M18 11c-3.33301 9.33301 -4.16992 18.833 -2.50293 28.5s4.5 19.5 8.5 29.5s8.5 19.667 13.5 29s9.16699 18.333 12.5 27c3.33301 6.66699 8.83301 18.5 16.5 35.5l24 54l23.5 54.5c7.33301 17.333 12.666 29.333 15.999 36c4 8 3.5 15.167 -1.5 21.5
s-10.333 12.5 -16 18.5s-10 12 -13 18s-0.5 13 7.5 21c4.66699 4.66699 10.667 7.66699 18 9s15 2.5 23 3.5s15.333 2.83301 22 5.5s12 8 16 16l114 216c-4.66699 18 -6.16699 33 -4.5 45s5.66699 22.333 12 31s14.666 16.667 24.999 24l35.5 25
c68.667 10.667 136.167 19.667 202.5 27s134.5 9.33301 204.5 6c4 -0.666992 9 -3.5 15 -8.5s11 -10.667 15 -17s5.83301 -12.5 5.5 -18.5s-4.83301 -10 -13.5 -12c-0.666992 0 -2.66699 0.5 -6 1.5s-7 2.16699 -11 3.5s-7.66699 2.66602 -11 3.99902s-5.33301 2 -6 2
c-53.333 0 -99.666 -0.666992 -138.999 -2s-73.5 -4.16602 -102.5 -8.49902s-54 -10.833 -75 -19.5s-39.667 -20.5 -56 -35.5s-31.666 -33.833 -45.999 -56.5s-29.166 -50.334 -44.499 -83.001c-7.33301 -14 -14 -27.333 -20 -40
c-5.33301 -11.333 -9.66602 -22.5 -12.999 -33.5s-3.66602 -20.167 -0.999023 -27.5c37.333 -6.66699 75.166 -6 113.499 2s76.833 17.667 115.5 29s77.5 21.5 116.5 30.5s78.167 11.167 117.5 6.5v-23c0 -1.33301 -12.333 -4.16602 -37 -8.49902s-56.167 -10.333 -94.5 -18
s-80.333 -17 -126 -28s-89.5 -23.833 -131.5 -38.5s-79 -31.334 -111 -50.001s-53.667 -39 -65 -61c-21.333 -43.333 -41.666 -87.833 -60.999 -133.5s-37 -91.5 -53 -137.5c-4 -6 -9.5 -9.66699 -16.5 -11s-12.167 2.33398 -15.5 11.001z" />
    <glyph glyph-name="G" unicode="G" 
d="M74 11c-29.333 22 -49.335 49.0059 -60.002 81.0059s-14 66.833 -10 104.5s14 77 30 118s35.833 81.167 59.5 120.5s50.334 76.833 80.001 112.5s60 67 91 94s61.667 48.667 92 65s58.166 25.166 83.499 26.499c12 3.33301 24.167 3 36.5 -1s23.5 -10.167 33.5 -18.5
s18.333 -18.166 25 -29.499s11 -22.5 13 -33.5s0.666992 -21.333 -4 -31s-13.334 -16.834 -26.001 -21.501c-2 -1.33301 -5.16699 -2 -9.5 -2s-6.5 0.666992 -6.5 2v79c0 1.33301 -1.66699 2.83301 -5 4.5s-7.16602 3 -11.499 4s-8.66602 1.83301 -12.999 2.5
s-7.83301 0.666992 -10.5 0c-66 -16.667 -122.5 -44.667 -169.5 -84s-86.167 -86 -117.5 -140c-44.667 -78 -77.167 -143 -97.5 -195s-31.666 -93.333 -33.999 -124s3.16699 -52.167 16.5 -64.5s31.333 -17.833 54 -16.5s49 8.16602 79 20.499s60.5 27.666 91.5 45.999
s61.167 38.666 90.5 60.999s55 43.833 77 64.5s38.833 39.5 50.5 56.5s15.5 29.5 11.5 37.5c-10.667 2 -22.334 1.5 -35.001 -1.5s-23.667 -6.16699 -33 -9.5l-33.5 -11l-51.5 -17l-51 -17c-16 -5.33301 -27 -9.33301 -33 -12c-9.33301 -3.33301 -17.166 -2.5 -23.499 2.5
s-10.666 11.333 -12.999 19s-2.5 15 -0.5 22s6.66699 11.5 14 13.5c10.667 2 29.5 7.83301 56.5 17.5l91.5 32l105 34.5c36 11.333 67.667 19.666 95 24.999s48.166 6.16602 62.499 2.49902s17.166 -14.5 8.49902 -32.5c-6 -6.66699 -17 -18.167 -33 -34.5l-51 -51.5
l-51.5 -51c-16.333 -16 -27.833 -27 -34.5 -33c-2.66699 -2 -10.167 -8.33301 -22.5 -19l-42 -35.5l-46.5 -39c-15.333 -13 -27.333 -22.833 -36 -29.5l-33 -28c-13.333 -11.333 -28.166 -22.833 -44.499 -34.5s-33.5 -22.667 -51.5 -33s-36 -18.5 -54 -24.5
s-35.5 -9 -52.5 -9s-32.5 5 -46.5 15z" />
    <glyph glyph-name="H" unicode="H" horiz-adv-x="709" 
d="M34 11c-6.66699 10 -9.17285 25.9971 -7.50586 47.9971s6 46.833 13 74.5s15.833 56.667 26.5 87l32 87l29.5 74.5l19.5 48c4.66699 10 10.834 24.167 18.501 42.5l25 60l28.5 68.5l28.5 69l25 60l18.5 43c14.667 4.66699 24.334 4.16699 29.001 -1.5s6 -15.167 4 -28.5
s-6.66699 -29.5 -14 -48.5s-15.833 -39.333 -25.5 -61l-30 -66.5c-10.333 -22.667 -19.666 -44.167 -27.999 -64.5s-14.666 -38.833 -18.999 -55.5s-5.5 -30 -3.5 -40c12 -1.33301 25.833 -1.33301 41.5 0s31.667 3.33301 48 6s32.5 5.66699 48.5 9s30 6 42 8
c60.667 10 109.167 24.333 145.5 43s66.666 42.5 90.999 71.5s45.5 63.833 63.5 104.5l62 142c6 11.333 11.333 16.166 16 14.499s8.5 -6.33398 11.5 -14.001s5.16699 -16.167 6.5 -25.5s1.33301 -16 0 -20c-0.666992 -2 -2.66699 -6.33301 -6 -13l-11 -21.5l-11 -21
c-3.33301 -6.33301 -5.33301 -10.5 -6 -12.5c-1.33301 -2.66699 -3 -7.16699 -5 -13.5s-4.33301 -13.166 -7 -20.499s-5 -14.166 -7 -20.499s-3.33301 -10.833 -4 -13.5c3.33301 -0.666992 7.83301 -3.83398 13.5 -9.50098s8.83398 -10.167 9.50098 -13.5
c2 -11.333 -1.66699 -24.166 -11 -38.499s-20.833 -29.166 -34.5 -44.499l-40 -45c-13 -14.667 -21.833 -28.334 -26.5 -41.001c-27.333 -66.667 -50.833 -133.334 -70.5 -200.001s-34.167 -135.667 -43.5 -207c-2 -3.33301 -5 -6.66602 -9 -9.99902
s-8.33301 -3.66602 -13 -0.999023c-1.33301 14.667 -0.166016 34.834 3.50098 60.501s8.5 53.667 14.5 84s12.667 61.166 20 92.499l20.5 86.5l15.5 65.5c4 17.333 5.66699 27 5 29c-14 2.66699 -32 3.16699 -54 1.5s-46 -4.66699 -72 -9s-53 -9.5 -81 -15.5
s-55.167 -12.5 -81.5 -19.5l-73.5 -20c-22.667 -6.33301 -41.334 -11.833 -56.001 -16.5c-11.333 -25.333 -20.666 -53.166 -27.999 -83.499l-22.5 -91.5c-7.66699 -30.667 -16.167 -60.167 -25.5 -88.5s-21.666 -53.5 -36.999 -75.5
c-1.33301 0.666992 -3.5 2.33398 -6.5 5.00098s-4.83301 4.66699 -5.5 6z" />
    <glyph glyph-name="I" unicode="I" horiz-adv-x="220" 
d="M11 34c-1.33301 4.66699 -1.49805 11.1631 -0.498047 19.4961s2.33301 16.833 4 25.5s3.5 16.334 5.5 23.001s3 10.334 3 11.001l226 588c4.66699 12 9 16.5 13 13.5s7.16699 -9.33301 9.5 -19s3.5 -20.667 3.5 -33s-1.33301 -22.166 -4 -29.499l-64.5 -152.5
c-21.667 -51 -42.334 -102.333 -62.001 -154s-38.167 -103.667 -55.5 -156s-32 -105.5 -44 -159.5c-5.33301 -3.33301 -9.83301 -4.66602 -13.5 -3.99902s-7 2.5 -10 5.5s-5.33301 6.5 -7 10.5s-2.83398 7.66699 -3.50098 11z" />
    <glyph glyph-name="J" unicode="J" horiz-adv-x="622" 
d="M85 11c-6.66699 3.33301 -14.5039 9.99707 -23.5039 19.9971s-17.5 21.333 -25.5 34s-15.167 26.167 -21.5 40.5s-10.333 27.666 -12 39.999s-0.666992 22.666 3 30.999s11.5 13.5 23.5 15.5c0.666992 -9.33301 1.66699 -21.333 3 -36s4.33301 -29 9 -43
s11.334 -26.5 20.001 -37.5s20.667 -17.167 36 -18.5c43.333 -3.33301 80.833 3.83398 112.5 21.501s59.167 41.834 82.5 72.501s43 65.834 59 105.501s30.167 80.167 42.5 121.5s23.5 81.333 33.5 120s20.333 72.334 31 101.001
c6.66699 24.667 6.33398 41.167 -0.999023 49.5s-19 11.833 -35 10.5s-34.833 -5.83301 -56.5 -13.5l-64.5 -23c-21.333 -7.66699 -41.333 -13.334 -60 -17.001s-33 -2.16699 -43 4.5c-14 9.33301 -18.667 18.5 -14 27.5s15.667 17.667 33 26s39.833 16.166 67.5 23.499
s57.334 14.333 89.001 21s64 12.834 97 18.501s63.833 10.5 92.5 14.5s53.834 7.33301 75.501 10s36.834 4.66699 45.501 6l47 5.5c20 2.33301 40.333 4.83301 61 7.5s39 4.83398 55 6.50098s25.667 2.5 29 2.5c12.667 0.666992 28.5 1.33398 47.5 2.00098s37.5 1 55.5 1
s33.667 -0.333008 47 -1s20 -1.33398 20 -2.00098l11 -33c-18 -1.33301 -42.333 -2.5 -73 -3.5s-64.334 -2.5 -101.001 -4.5s-74.667 -4.83301 -114 -8.5s-76 -8.66699 -110 -15s-64 -14.333 -90 -24s-44.333 -21.5 -55 -35.5c-5.33301 -15.333 -11.666 -38 -18.999 -68
s-16.333 -64.167 -27 -102.5s-22.834 -79 -36.501 -122s-29 -84.833 -46 -125.5s-35.833 -78.5 -56.5 -113.5s-43.5 -63.667 -68.5 -86s-52 -36.666 -81 -42.999s-60.5 -0.833008 -94.5 16.5z" />
    <glyph glyph-name="K" unicode="K" horiz-adv-x="795" 
d="M712 -92c-21.333 34 -42.502 65.001 -63.502 93.001s-42.833 55.167 -65.5 81.5l-71.5 79.5l-81.5 85c-42 44 -76.833 76.667 -104.5 98s-50.667 33.666 -69 36.999s-33.5 -1.83398 -45.5 -15.501s-23.667 -33.667 -35 -60s-23.333 -58.166 -36 -95.499s-29 -78 -49 -122
l-22.5 -48.5c-8.33301 -18.333 -19.833 -32.5 -34.5 -42.5c-11.333 -7.33301 -16.333 -3.83301 -15 10.5s6.66602 34.833 15.999 61.5s21.166 56.834 35.499 90.501l42.5 97.5l37 81.5c10.667 23 17.334 37.167 20.001 42.5c16 38 32.333 72.833 49 104.5l49.5 93.5l48 94
c15.667 32 30.167 67.333 43.5 106c6 4 11.333 5.16699 16 3.5s8.66699 -4.5 12 -8.5s5.5 -8.83301 6.5 -14.5s0.833008 -10.5 -0.5 -14.5l-18.5 -37.5l-26 -53l-25.5 -53l-18 -38.5l-8 -20.5c-4 -10.333 -5.33301 -18.833 -4 -25.5c19.333 -4 43.5 -2.33301 72.5 5
s60.333 18 94 32s68.667 30.167 105 48.5l104 54.5l90 50.5c27 15.667 48.833 27.5 65.5 35.5c16 8 24.333 9.33301 25 4s-2.83301 -13.333 -10.5 -24s-17.334 -21.834 -29.001 -33.501s-21.834 -19.834 -30.501 -24.501c-6.66699 -4 -16.667 -9.5 -30 -16.5l-42 -21
l-40 -19.5c-12 -6 -20 -9.66699 -24 -11c-18 -8 -40.667 -17 -68 -27l-85.5 -32c-29.667 -11.333 -59 -23.5 -88 -36.5s-53.833 -26.5 -74.5 -40.5c-5.33301 -4 -10 -8 -14 -12c-3.33301 -3.33301 -6.16602 -7 -8.49902 -11s-2.16602 -7.66699 0.500977 -11
c10 -6 25.333 -18 46 -36l70 -64l82.5 -82l84.5 -91c27.333 -30.667 52.333 -60.667 75 -90s40.834 -55.833 54.501 -79.5s21.5 -43.5 23.5 -59.5s-4.33301 -25.667 -19 -29c-1.33301 0.666992 -3.16602 2.33398 -5.49902 5.00098s-4.16602 4.66699 -5.49902 6z" />
    <glyph glyph-name="L" unicode="L" horiz-adv-x="701" 
d="M29 11c-10.667 7.33301 -15.001 18.3301 -13.001 32.9971s6.66699 29.667 14 45c7.33301 17.333 18 36.333 32 57l57.5 109.5l47.5 91.5l42 83l40.5 84l42.5 94l49 114c1.33301 2.66699 3.5 6.5 6.5 11.5s6.66699 9 11 12s8.83301 4 13.5 3
s9.33398 -5.83301 14.001 -14.5c6.66699 -13.333 7.16699 -31.666 1.5 -54.999s-15.5 -50.166 -29.5 -80.499s-30.667 -63 -50 -98l-61 -106.5l-63 -107c-20.667 -35.333 -38.834 -68.333 -54.501 -99s-27.667 -58.5 -36 -83.5s-11.166 -44.833 -8.49902 -59.5
c47.333 -4.66699 95 -4.33398 143 0.999023s96 11.833 144 19.5s96.167 14.5 144.5 20.5s96.5 7.33301 144.5 4c8.66699 1.33301 16 -1.66699 22 -9s6.33301 -15.333 1 -24c-1.33301 0 -4.16602 0.166992 -8.49902 0.5s-8.83301 0.5 -13.5 0.5
s-9.16699 -0.166992 -13.5 -0.5s-7.5 -0.5 -9.5 -0.5c-37.333 -3.33301 -81 -9.16602 -131 -17.499s-101.667 -16.166 -155 -23.499s-106.5 -13 -159.5 -17s-100.833 -3.66699 -143.5 1c-0.666992 0 -3.83398 1.5 -9.50098 4.5s-9.5 5.16699 -11.5 6.5z" />
    <glyph glyph-name="M" unicode="M" horiz-adv-x="1014" 
d="M756 -67c-0.666992 0.666992 -1.00098 2.49805 -1.00098 5.49805s0.333008 5.16699 1 6.5s2 5.33301 4 12s4.33301 13.667 7 21s5 14.333 7 21s3.33301 11 4 13l51 166.5l42 143.5l39.5 144.5l43.5 169.5v22c-19.333 6.66699 -40.166 6 -62.499 -2
s-45.166 -21 -68.499 -39s-47 -39.5 -71 -64.5s-47.333 -51.333 -70 -79l-66 -82l-59 -74c-18 -22.333 -34.167 -40.666 -48.5 -54.999s-25.833 -22.5 -34.5 -24.5c-6 -1.33301 -13.333 -0.5 -22 2.5s-13 6.16699 -13 9.5v68c2 7.33301 4.83301 19 8.5 35l12 54l14 63l14 63
l11.5 53.5c3.33301 15.667 6 27.5 8 35.5l9.5 45c3 14.667 3.5 30 1.5 46c-20 6.66699 -41.333 1.5 -64 -15.5s-45.834 -41.833 -69.501 -74.5s-47.5 -70.667 -71.5 -114s-47.333 -88 -70 -134l-65.5 -136l-57.5 -118.5c-17.333 -34.333 -32.5 -61.666 -45.5 -81.999
s-23.167 -29.166 -30.5 -26.499c-9.33301 2.66699 -12.833 13.667 -10.5 33s8.83301 43.833 19.5 73.5s24.334 63.334 41.001 101.001s34.834 76.5 54.501 116.5l60.5 120l59 111l49.5 89.5l31.5 56.5c14 -5.33301 26.333 -7.16602 37 -5.49902s20.667 5.16699 30 10.5
s18.5 11.666 27.5 18.999s19.167 14.333 30.5 21c24 14.667 43 21 57 19s24.167 -9.33301 30.5 -22s9.5 -29.834 9.5 -51.501s-1.66699 -45.167 -5 -70.5s-7.83301 -51.166 -13.5 -77.499s-11.167 -50.666 -16.5 -72.999l-13.5 -57
c-3.66699 -15.667 -5.16699 -25.5 -4.5 -29.5c5.33301 -2.66699 9.83301 -2.33398 13.5 0.999023s6.83398 6.66602 9.50098 9.99902c2 3.33301 6.83301 9.66602 14.5 18.999l26.5 32.5l32 39.5l32.5 39.5l26.5 32.5l15 19c58 46 107.167 80.167 147.5 102.5
s73 34.833 98 37.5s43.167 -3.33301 54.5 -18s17.333 -35.5 18 -62.5s-3.33301 -59.333 -12 -97s-20.334 -78.167 -35.001 -121.5c-2 -6 -5.83301 -18.5 -11.5 -37.5l-20.5 -67l-24.5 -81.5l-24.5 -81.5l-20.5 -67c-5.66699 -19 -9.5 -31.5 -11.5 -37.5
c0 -0.666992 -0.666992 -5 -2 -13s-3.5 -17.5 -6.5 -28.5s-6.5 -22.667 -10.5 -35s-9 -23.5 -15 -33.5s-12.833 -17.667 -20.5 -23s-16.167 -6.33301 -25.5 -3c-0.666992 0 -2.33398 1.5 -5.00098 4.5s-4.33398 5.16699 -5.00098 6.5z" />
    <glyph glyph-name="N" unicode="N" horiz-adv-x="830" 
d="M11 23c4.66699 20.667 12.8311 43.666 24.498 68.999s24.5 50.333 38.5 75l41 70.5c13.333 22.333 24 41.166 32 56.499l18.5 36.5l28 56l33 65.5l33 65.5l28 56l18.5 36.5c20.667 21.333 37.834 27.333 51.501 18s25.834 -28.333 36.501 -57s20.334 -64 29.001 -106
s18 -85 28 -129s21.333 -86 34 -126s28 -72.333 46 -97c8.66699 -4 19.167 0.333008 31.5 13s25.833 31.167 40.5 55.5s30 52.833 46 85.5l48.5 103l47.5 109l43 101.5l34.5 81.5c9.66699 23.333 17.167 39.666 22.5 48.999c4.66699 8.66699 9.5 12.834 14.5 12.501
s9.16699 -3 12.5 -8s5.83301 -11.333 7.5 -19s1.5 -14.5 -0.5 -20.5l-60 -157c-18.667 -46.667 -37.834 -91.667 -57.501 -135l-63 -132.5l-76.5 -149.5c-21.333 -26 -42 -40.5 -62 -43.5s-40.667 11.5 -62 43.5c-22 38.667 -39.333 75.334 -52 110.001
s-23.5 68.834 -32.5 102.501s-17.167 68 -24.5 103s-16.333 72.833 -27 113.5c-6 4 -16 -3 -30 -21s-30.167 -42 -48.5 -72s-37.5 -63.667 -57.5 -101l-57 -108l-48 -93c-14 -27.333 -24 -46.333 -30 -57l-12.5 -22l-15 -26l-13 -22l-5.5 -9h-34
c-0.666992 1.33301 -1 5 -1 11s0.333008 10 1 12z" />
    <glyph glyph-name="O" unicode="O" horiz-adv-x="527" 
d="M97 11c-33.333 14 -55.3359 33.5 -66.0029 58.5s-14.334 52 -11.001 81s11.5 58.167 24.5 87.5s26.5 55.333 40.5 78c4.66699 8 13.334 21.667 26.001 41l40.5 61.5l41 61l27.5 39.5c8 51.333 24 92.166 48 122.499s51.167 51.166 81.5 62.499s61.5 13.833 93.5 7.5
s60 -20.666 84 -42.999s41.333 -52.166 52 -89.499s9.83398 -81 -2.49902 -131s-38.5 -106 -78.5 -168s-98.667 -129 -176 -201c-13.333 -12.667 -29.166 -24.834 -47.499 -36.501s-37.666 -21.167 -57.999 -28.5s-40.833 -11.666 -61.5 -12.999s-40 2 -58 10zM61.9971 90
c6.66699 -30 19.334 -48.666 38.001 -55.999s40.667 -6 66 4s53 27 83 51s60 52.167 90 84.5s58.667 67.5 86 105.5s51.166 75.667 71.499 113s35.833 73 46.5 107s14.167 63.5 10.5 88.5s-15.667 43.833 -36 56.5s-51.5 16.334 -93.5 11.001
c-15.333 -13.333 -35.666 -32.833 -60.999 -58.5s-52.333 -54.834 -81 -87.501s-57.334 -67.834 -86.001 -105.501s-54 -75.167 -76 -112.5s-38.667 -73.333 -50 -108s-14 -65.667 -8 -93z" />
    <glyph glyph-name="P" unicode="P" 
d="M23 23c-5.33301 10.667 -5.66602 25.335 -0.999023 44.002s11.5 38 20.5 58s18.5 39.333 28.5 58s17.667 34 23 46c2 4 3.5 7.33301 4.5 10s2 5.66699 3 9s2.16699 7 3.5 11s3.66602 9.66699 6.99902 17l19.5 40.5l30.5 62l35.5 72.5l35 72.5l30 62l19.5 40.5v23
c-12 2 -23.667 1.33301 -35 -2s-22.166 -8 -32.499 -14s-20.333 -12.833 -30 -20.5l-26.5 -20.5c-9.33301 2 -14.666 6.33301 -15.999 13s-0.666016 13.667 2.00098 21s6.5 14.166 11.5 20.499s9.5 10.833 13.5 13.5c69.333 43.333 143.666 72.166 222.999 86.499
s159.666 15.5 240.999 3.5c49.333 -24.667 83 -50.834 101 -78.501s24.5 -55.834 19.5 -84.501s-19.667 -57 -44 -85s-54.333 -54.833 -90 -80.5s-75 -49.5 -118 -71.5s-85.667 -41 -128 -57s-82.5 -28.5 -120.5 -37.5s-69.667 -13.5 -95 -13.5l-31 -49.5
c-8 -13 -14.333 -24.333 -19 -34s-8.5 -18.667 -11.5 -27s-6 -17.666 -9 -27.999s-6.83301 -22.833 -11.5 -37.5s-11 -33 -19 -55l-11 -11c-2.66699 1.33301 -6.83398 4.83301 -12.501 10.5s-9.16699 9.83398 -10.5 12.501zM192 299.001c28 -4.66699 57.667 -3.83301 89 2.5
s62.5 15.5 93.5 27.5s60.833 25.5 89.5 40.5l78 41.5c56 31.333 97.833 61.833 125.5 91.5s44.5 57.334 50.5 83.001s3.16699 48.5 -8.5 68.5s-29 36.167 -52 48.5s-49.667 20.166 -80 23.499s-61 1 -92 -7s-60.5 -22.333 -88.5 -43s-51.333 -48.667 -70 -84l-24 -46.5
l-29 -57.5l-30 -59.5l-26.5 -53l-18.5 -38.5c-4.66699 -10 -7 -15.333 -7 -16v-22z" />
    <glyph glyph-name="Q" unicode="Q" horiz-adv-x="593" 
d="M448 -164c-8.66699 10.667 -15.9961 25.1709 -21.9961 43.5039l-18.5 55c-6.33301 18.333 -13.333 35.166 -21 50.499s-17.167 25.666 -28.5 30.999c-4 2.66699 -11.167 2.16699 -21.5 -1.5l-36.5 -13c-14 -5 -29.5 -9.66699 -46.5 -14s-34.5 -6 -52.5 -5
s-35.833 5.66699 -53.5 14s-34.167 22.5 -49.5 42.5c-20 26.667 -30.333 57.334 -31 92.001s5.33301 70.667 18 108s29.834 75.166 51.501 113.499s44.667 74.833 69 109.5s48.166 66.167 71.499 94.5l58 69.5l34.5 43c12.333 16 25.666 31.667 39.999 47
s29.5 29.166 45.5 41.499s32.667 21.5 50 27.5c5.33301 2 10.333 1 15 -3s9 -8.83301 13 -14.5s7.5 -11.167 10.5 -16.5s5.16699 -9 6.5 -11c30 -36.667 51.167 -76.5 63.5 -119.5s17.166 -86.833 14.499 -131.5s-11.834 -89 -27.501 -133s-36.167 -85.333 -61.5 -124
c-2 -4 -8.16699 -12.667 -18.5 -26l-32.5 -42.5l-32.5 -42.5c-10.333 -13.333 -16.5 -21.666 -18.5 -24.999c-11.333 -16 -17.666 -32 -18.999 -48s0 -31.833 4 -47.5s9.66699 -31.167 17 -46.5s14.166 -30.333 20.499 -45s11 -29 14 -43s2.16699 -27.667 -2.5 -41
c-5.33301 -2.66699 -9.83301 -2.33398 -13.5 0.999023s-6.83398 6.66602 -9.50098 9.99902zM155.004 28.0039c28 -18.667 53.001 -27.0029 75.001 -25.0029s41.333 10.667 58 26s30.667 35.5 42 60.5s20.666 50.667 27.999 77s12.666 51.5 15.999 75.5s5.33301 43 6 57
c0.666992 0.666992 3.16699 1 7.5 1s9 -0.166992 14 -0.5s9.33301 -1.5 13 -3.5s5.5 -4.66699 5.5 -8v-113c22.667 16.667 43.667 37.334 63 62.001s36.166 51.334 50.499 80.001s25.833 58 34.5 88s14 58.667 16 86c4 70.667 0.166992 122 -11.5 154
s-28.5 49.167 -50.5 51.5s-47.667 -7.5 -77 -29.5s-59.5 -51.667 -90.5 -89s-61.167 -79.666 -90.5 -126.999s-55.166 -94.833 -77.499 -142.5s-39.666 -93.334 -51.999 -137.001s-16.833 -80.167 -13.5 -109.5c0.666992 -1.33301 2.66699 -3.66602 6 -6.99902l10 -10.5
l10 -10.5c3.33301 -3.33301 6 -5.33301 8 -6z" />
    <glyph glyph-name="R" unicode="R" horiz-adv-x="687" 
d="M18 11c-5.33301 15.333 -2.33203 39.167 9.00098 71.5s26.833 69 46.5 110s41.667 83.5 66 127.5l67 123.5c20.333 38.333 37 71 50 98s18.167 44.167 15.5 51.5c-8 2.66699 -16.5 1.66699 -25.5 -3l-27 -14c-9 -4.66699 -17.833 -7.33398 -26.5 -8.00098
s-16.334 4 -23.001 14c-3.33301 4.66699 -4.5 9.16699 -3.5 13.5s3 8.5 6 12.5s6.33301 7.5 10 10.5l9.5 7.5c76 50 148.167 89 216.5 117s129.666 47 183.999 57s100 12 137 6s62.5 -18.167 76.5 -36.5s14.833 -42 2.5 -71s-40.666 -61.5 -84.999 -97.5
s-106.666 -74.5 -186.999 -115.5s-181.166 -82.833 -302.499 -125.5c-6.66699 -10.667 -4.83398 -22.667 5.49902 -36s25.666 -27.833 45.999 -43.5s44.333 -31.834 72 -48.501l84 -50.5l81 -50c25.667 -16.333 46.834 -31.833 63.501 -46.5s27.5 -28.334 32.5 -41.001
s0.5 -23.667 -13.5 -33c-0.666992 -0.666992 -4.83398 1.83301 -12.501 7.5l-28.5 22l-36.5 29.5l-37 30l-30 24c-8.33301 6.66699 -13.166 10.667 -14.499 12l-120 75c-40 24.667 -79 52.334 -117 83.001c-12.667 4 -25.334 -2.66699 -38.001 -20s-25 -39.5 -37 -66.5
s-23.833 -55.667 -35.5 -86s-22.5 -56.666 -32.5 -78.999s-19 -37.666 -27 -45.999s-15 -3.5 -21 14.5zM256.001 428.001c14.667 -4.66699 34.5 -4.33301 59.5 1s52.667 14.333 83 27s62 28 95 46s64.5 36.833 94.5 56.5s57.5 39.5 82.5 59.5s44.5 38.5 58.5 55.5
s21.5 31.5 22.5 43.5s-7.16699 19.667 -24.5 23c-72 1.33301 -133.333 -2.16699 -184 -10.5s-94 -23.833 -130 -46.5s-66.333 -53.667 -91 -93s-46.667 -89.333 -66 -150v-12z" />
    <glyph glyph-name="S" unicode="S" horiz-adv-x="614" 
d="M91 11c-3.33301 1.33301 -11.1719 5.00781 -23.5049 11.0078s-23.833 13 -34.5 21s-18.167 16.333 -22.5 25s-0.166016 16 12.501 22c7.33301 -6.66699 17.5 -14.667 30.5 -24s25.5 -16.333 37.5 -21c36.667 -2 72.334 -2.16699 107.001 -0.5s68.5 6 101.5 13
s65 17.667 96 32s61.167 33.166 90.5 56.499c32.667 27.333 54.167 52.5 64.5 75.5s12.333 44.333 6 64s-19.333 38 -39 55s-43 33 -70 48s-55.833 29 -86.5 42l-88 38c-28 12.333 -53.333 24.5 -76 36.5s-39.334 24.333 -50.001 37c-2.66699 11.333 3 24.666 17 39.999
s33.333 31.166 58 47.499s53 32.666 85 48.999s64.833 31.166 98.5 44.499s66.334 24.666 98.001 33.999s59.5 15.166 83.5 17.499s42.333 0.5 55 -5.5s17 -17.333 13 -34c-4.66699 -0.666992 -16.667 -3.66699 -36 -9l-70.5 -20c-27.667 -8 -57.667 -17.333 -90 -28
s-64.166 -21.834 -95.499 -33.501s-60.333 -23.5 -87 -35.5s-47.667 -23.667 -63 -35s-23.833 -21.666 -25.5 -30.999s7.16602 -17.333 26.499 -24c97.333 -29.333 173.833 -60.5 229.5 -93.5s94.834 -66.333 117.501 -100s31.334 -66.834 26.001 -99.501
s-19.833 -63 -43.5 -91s-54.5 -52.833 -92.5 -74.5s-78.167 -38.5 -120.5 -50.5s-84.666 -18.333 -126.999 -19s-79.833 6 -112.5 20z" />
    <glyph glyph-name="T" unicode="T" horiz-adv-x="558" 
d="M175 11c-4 16.667 -3.83301 35.835 0.5 57.502s10.5 43.5 18.5 65.5s16.667 43.167 26 63.5l23 50.5c3.33301 8 8.5 19.667 15.5 35l24 52l28 61l28 61l24 51.5l15.5 33.5c-11.333 2 -27.5 1 -48.5 -3s-44.167 -9.16699 -69.5 -15.5l-78 -19.5
c-26.667 -6.66699 -51.5 -11.5 -74.5 -14.5s-42.667 -3.33301 -59 -1s-26.5 9.16602 -30.5 20.499c4.66699 8.66699 21.667 18.667 51 30s66.833 23.166 112.5 35.499s96.667 24.833 153 37.5s113.833 24.667 172.5 36s116 21.666 172 30.999s106 17 150 23
s79.5 10 106.5 12s41.167 1.33301 42.5 -2c2 -5.33301 2.33301 -11.833 1 -19.5s-5.66602 -12.5 -12.999 -14.5l-106 -17.5l-115.5 -20l-114.5 -21c-37.333 -7 -72 -13.833 -104 -20.5c-20.667 -4 -40.667 -16 -60 -36s-38 -44.833 -56 -74.5s-35.333 -62.667 -52 -99
s-32.5 -73.166 -47.5 -110.499s-28.833 -73.333 -41.5 -108s-24.334 -65.167 -35.001 -91.5s-20 -46.833 -28 -61.5s-14.667 -20.667 -20 -18l-6 6z" />
    <glyph glyph-name="U" unicode="U" 
d="M91 11c-24 19.333 -40.3301 44.333 -48.9971 75s-11.667 64.667 -9 102s9.66699 76.5 21 117.5s24.833 81.333 40.5 121s32.334 77.5 50.001 113.5s34 67.667 49 95s27.667 49 38 65s16.166 23.667 17.499 23c5.33301 -2.66699 9 -6.16699 11 -10.5
s3.16699 -9.16602 3.5 -14.499s0.166016 -10.666 -0.500977 -15.999s-1.33398 -10.333 -2.00098 -15l-6 -11.5l-6 -11.5c-52 -114 -91 -209.5 -117 -286.5s-42 -138.5 -48 -184.5s-3.16699 -78.167 8.5 -96.5s29.334 -25.666 53.001 -21.999s52 16.667 85 39
s68 51.166 105 86.499s74.5 75.666 112.5 120.999s74.167 92.666 108.5 141.999s65 99 92 149s48.167 97.667 63.5 143c1.33301 1.33301 3.16602 3.5 5.49902 6.5s4.16602 4.5 5.49902 4.5c18.667 -12.667 25.667 -34.167 21 -64.5s-17.5 -65.833 -38.5 -106.5
s-48.667 -84.667 -83 -132s-71.666 -94 -111.999 -140s-81.833 -89.5 -124.5 -130.5s-83.334 -75.5 -122.001 -103.5s-73.167 -47.833 -103.5 -59.5s-53.5 -11.167 -69.5 1.5z" />
    <glyph glyph-name="V" unicode="V" horiz-adv-x="560" 
d="M79 34c-12 18.667 -22.1689 45.0039 -30.502 79.0039s-14.333 71.667 -18 113s-5 84.166 -4 128.499s4.83301 86.166 11.5 125.499s16.167 73.666 28.5 102.999s27.833 49.666 46.5 60.999c4 -2.66699 5.16699 -14.834 3.5 -36.501s-4.83398 -49 -9.50098 -82
l-15.5 -109.5c-5.66699 -40 -10.667 -79.667 -15 -119s-7 -76.166 -8 -110.499s1.33301 -62.666 7 -84.999s15 -36.333 28 -42s31.5 0.833008 55.5 19.5c54.667 43.333 107.834 91.166 159.501 143.499l145.5 150.5c55.333 58.667 108 117.667 158 177s99 121 147 185
c6 8.66699 12.167 13.334 18.5 14.001s11.833 -1.33301 16.5 -6s8 -10.834 10 -18.501s2 -15.5 0 -23.5l-22 -24.5l-34 -38l-40 -45l-40 -44.5l-34 -38l-22 -25c-12 -13.333 -27.667 -31.833 -47 -55.5l-65 -79l-77 -91c-27.333 -31.667 -55.166 -62 -83.499 -91
s-56.166 -55.667 -83.499 -80s-53 -43.333 -77 -57s-45.5 -21 -64.5 -22s-34.167 6.83301 -45.5 23.5z" />
    <glyph glyph-name="W" unicode="W" horiz-adv-x="702" 
d="M46 11c-8.66699 12.667 -15.1709 33.6699 -19.5039 63.0029s-7 63.333 -8 102s-0.5 80.667 1.5 126s5 90.333 9 135s9.16699 87.667 15.5 129s13.166 77.5 20.499 108.5s15 55.167 23 72.5s16.333 24.666 25 21.999c1.33301 -1.33301 3.5 -3.33301 6.5 -6
s4.83301 -4.66699 5.5 -6c0.666992 -7.33301 0 -21.166 -2 -41.499s-4.83301 -44.666 -8.5 -72.999l-12 -93.5l-13.5 -103.5c-4.66699 -35 -9 -69 -13 -102s-7.16699 -62.667 -9.5 -89s-3.5 -48.166 -3.5 -65.499s1.66699 -27.666 5 -30.999l11 -12
c10 4.66699 20.333 16.834 31 36.501s21.5 43.667 32.5 72s22.333 59.5 34 93.5l35 100.5l34.5 93.5c11.333 29.333 22.666 53.333 33.999 72s22.333 30.5 33 35.5s20.834 0 30.501 -15s19 -41.5 28 -79.5s17.167 -91 24.5 -159c0 -3.33301 1.66699 -13.833 5 -31.5
s7.5 -38 12.5 -61s10.833 -46.333 17.5 -70s13.667 -43.334 21 -59.001s15 -25 23 -28s15.667 4.83301 23 23.5c2 5.33301 6.5 16.666 13.5 33.999l24.5 61l29.5 74l29.5 74l24.5 61c7 17.333 11.833 29 14.5 35c2.66699 6.66699 7 18.667 13 36s13.5 36.833 22.5 58.5
s19.167 44.167 30.5 67.5s23.333 44.166 36 62.499s25.834 32.5 39.501 42.5s27.5 12.667 41.5 8c1.33301 0 3.33301 -1.5 6 -4.5s4 -5.16699 4 -6.5c-41.333 -53.333 -75.5 -106.666 -102.5 -159.999s-50.667 -107.833 -71 -163.5s-39.666 -112.334 -57.999 -170.001
s-39.5 -116.834 -63.5 -177.501c-10 -26 -20.5 -41 -31.5 -45s-21.833 -0.166992 -32.5 11.5s-21.167 29.167 -31.5 52.5s-20.166 49.5 -29.499 78.5s-18 58.833 -26 89.5s-15 59.167 -21 85.5s-10.833 48.666 -14.5 66.999l-6.5 32.5
c-1.33301 5.33301 -2.5 11.666 -3.5 18.999s-2.16699 14.666 -3.5 21.999c-1.33301 8 -2.66602 17 -3.99902 27h-11c-0.666992 0 -4.66699 -6.83301 -12 -20.5l-25.5 -49l-29.5 -59.5l-24 -51c-3.33301 -6.66699 -8.5 -22.167 -15.5 -46.5s-15.5 -52.166 -25.5 -83.499
s-20.833 -63.333 -32.5 -96s-23.667 -60.834 -36 -84.501s-24.666 -40.167 -36.999 -49.5s-23.5 -6.33301 -33.5 9z" />
    <glyph glyph-name="X" unicode="X" horiz-adv-x="537" 
d="M464 34c-4 5.33301 -10.8301 15.334 -20.4971 30.001l-33 51l-39 60l-38.5 56c-12 16.667 -22.667 29.834 -32 39.501s-15.666 13.5 -18.999 11.5c-41.333 -38.667 -78.666 -78.667 -111.999 -120l-102 -128c-9.33301 -12 -17.5 -18.667 -24.5 -20s-12 0.5 -15 5.5
s-4.16699 12 -3.5 21s3.66699 18.167 9 27.5c8 13.333 19.5 28.5 34.5 45.5l48.5 54l52 58c17.333 19.667 32.666 39 45.999 58s23.333 37 30 54s8 32.5 4 46.5l-13.5 27.5l-20 41l-20.5 40.5c-6.66699 12.667 -11.334 21.334 -14.001 26.001
c-1.33301 2 -4.16602 6.83301 -8.49902 14.5l-14.5 25l-14.5 25.5c-4.33301 8 -6.83301 13 -7.5 15c-1.33301 1.33301 -2 5 -2 11s0.666992 10 2 12c6.66699 5.33301 14.667 3.16602 24 -6.50098s19.166 -23 29.499 -40s21 -36 32 -57s21.667 -40.333 32 -58
s20 -31.834 29 -42.501s16.833 -14.334 23.5 -11.001c0.666992 2 2.66699 5 6 9s6.66602 8.5 9.99902 13.5s6.66602 9.5 9.99902 13.5s5.66602 7 6.99902 9c4.66699 6 11.334 17.333 20.001 34s18.834 33.167 30.501 49.5s24.834 30 39.501 41s30 14.5 46 10.5
c12 -2.66699 16.167 -9.83398 12.5 -21.501s-11.334 -25.5 -23.001 -41.5s-26 -33.667 -43 -53l-47.5 -56c-14.667 -18 -26.834 -34.833 -36.501 -50.5s-12.834 -27.834 -9.50098 -36.501c4 -10.667 11.833 -25.167 23.5 -43.5l39 -60.5l44 -68
c15 -23.333 28.5 -45.333 40.5 -66s21.333 -39.167 28 -55.5s8.66699 -27.833 6 -34.5c-1.33301 -0.666992 -3.33301 -1 -6 -1s-4.33398 0.333008 -5.00098 1c-1.33301 0.666992 -3.5 2.33398 -6.5 5.00098s-6.33301 5.83398 -10 9.50098l-10.5 11
c-3.33301 3.66699 -5.66602 6.5 -6.99902 8.5z" />
    <glyph glyph-name="Y" unicode="Y" horiz-adv-x="402" 
d="M56 -128c-8 20 -8.99902 41.001 -2.99902 63.001s15.667 45.167 29 69.5s29 49.5 47 75.5s35 52.833 51 80.5s29.333 56.167 40 85.5s16 59 16 89c-2.66699 6 -8.66699 16.167 -18 30.5l-33 50l-41 61.5l-42.5 64.5c-13.667 21 -26 41 -37 60s-19.167 34.833 -24.5 47.5
s-7 21.5 -5 26.5s9 4.5 21 -1.5c9.33301 -8.66699 21 -22.5 35 -41.5s28.5 -40.333 43.5 -64l46 -73l43.5 -67c13.333 -19.667 25 -35.334 35 -47.001s17.333 -15.834 22 -12.501c6.66699 13.333 16.5 34.5 29.5 63.5l42.5 95l47.5 103
c16.333 34.333 31.666 63.5 45.999 87.5s27 40.167 38 48.5s18.5 3.83301 22.5 -13.5c2.66699 -10 -0.333008 -27.5 -9 -52.5s-21 -55 -37 -90s-34.833 -74 -56.5 -117l-68 -133.5l-71 -138.5l-66.5 -133c-20.667 -42.333 -38.667 -81.166 -54 -116.499s-26.333 -65 -33 -89
c-2 -6.66699 -5.16699 -13.167 -9.5 -19.5s-9.16602 -10.833 -14.499 -13.5s-10.833 -2.5 -16.5 0.5s-10.834 10.167 -15.501 21.5z" />
    <glyph glyph-name="Z" unicode="Z" horiz-adv-x="842" 
d="M29 11c-12.667 9.33301 -12.6699 24.666 -0.00292969 45.999s33.167 46.833 61.5 76.5s62.5 62.167 102.5 97.5l124.5 109l127 111.5c41.667 37 78.167 71.833 109.5 104.5s55.5 62 72.5 88s22.167 46.667 15.5 62c-1.33301 0 -9 -1.33301 -23 -4l-54 -10
c-22 -4 -46.5 -8 -73.5 -12s-54 -7.5 -81 -10.5s-52.333 -5.16699 -76 -6.5s-43.167 -0.833008 -58.5 1.5s-25.166 6.83301 -29.499 13.5s-0.5 16 11.5 28c14.667 -2 34.167 -0.833008 58.5 3.5s51 9.66602 80 15.999l90 20.5c31 7.33301 60.5 13.333 88.5 18s53.333 7 76 7
s39.834 -4 51.501 -12s16.834 -20.667 15.501 -38s-11.666 -41.333 -30.999 -72c-34.667 -54.667 -72.667 -103.167 -114 -145.5s-84.666 -82.5 -129.999 -120.5l-139 -113c-47.333 -37.333 -94 -78.666 -140 -123.999c-0.666992 0 -4.33398 -3.5 -11.001 -10.5
s-13.834 -15.333 -21.501 -25s-14.167 -19.5 -19.5 -29.5s-7 -18 -5 -24c7.33301 -2 24.333 -0.333008 51 5s59 12.666 97 21.999l125 30.5l136 31.5c45.333 10 88.5 18.333 129.5 25s76 10 105 10s50.167 -4.33301 63.5 -13s15 -23 5 -43
c-16.667 -1.33301 -40.334 -4.16602 -71.001 -8.49902s-65.5 -9.66602 -104.5 -15.999l-125 -21l-133 -23l-128.5 -21.5c-41.333 -6.66699 -78.166 -12.167 -110.499 -16.5s-59 -7.33301 -80 -9s-33.5 -1.16699 -37.5 1.5z" />
    <glyph glyph-name="bracketleft" unicode="[" horiz-adv-x="474" 
d="M45 -68c-1.33301 0.666992 -3.49707 2.50391 -6.49707 5.50391s-4.5 5.16699 -4.5 6.5c-0.666992 8 -0.5 24.833 0.5 50.5s2.83301 56.5 5.5 92.5s6.16699 75.833 10.5 119.5s9.33301 87.834 15 132.501s12.167 88.167 19.5 130.5s15.166 80.5 23.499 114.5
s17.166 61.833 26.499 83.5s19.333 34.167 30 37.5c1.33301 0.666992 5.83301 1.5 13.5 2.5s16 2 25 3s17.333 2 25 3s12.5 1.83301 14.5 2.5l34.5 10.5l51.5 16.5l51 17.5c16 5.66699 27 9.83398 33 12.501c4.66699 1.33301 11 1.16602 19 -0.500977
s14.667 -4.16699 20 -7.5s8.16602 -7.5 8.49902 -12.5s-4.5 -9.83301 -14.5 -14.5c-50.667 -14.667 -92.667 -28.334 -126 -41.001s-60.666 -26.834 -81.999 -42.501s-38 -33.834 -50 -54.501s-21.833 -46.334 -29.5 -77.001s-14.667 -67.334 -21 -110.001
s-14.5 -93.667 -24.5 -153c-4.66699 -16 -8.83398 -37.5 -12.501 -64.5s-6.5 -55 -8.5 -84s-3.16699 -57.167 -3.5 -84.5s0.166992 -49.333 1.5 -66l340 17c6 -10 5.33301 -18 -2 -24s-16.666 -10.667 -27.999 -14s-22.333 -5.5 -33 -6.5s-16.334 -1.5 -17.001 -1.5
c-26 -3.33301 -49.5 -6 -70.5 -8s-41.667 -3.5 -62 -4.5s-41.666 -1.33301 -63.999 -1s-47.5 1.16602 -75.5 2.49902c-2 0.666992 -7.33301 2.33398 -16 5.00098s-14.334 4.66699 -17.001 6z" />
    <glyph glyph-name="backslash" unicode="\" horiz-adv-x="328" 
d="M271 11c-18 18 -36.001 39.9971 -54.001 65.9971s-35.333 54.333 -52 85s-32.5 62.5 -47.5 95.5s-28.667 65.167 -41 96.5s-23.333 61 -33 89s-17.5 52.333 -23.5 73c6.66699 23.333 15 31.333 25 24s21.5 -24.666 34.5 -51.999s27.5 -61.666 43.5 -102.999
s33.833 -84.166 53.5 -128.499s41 -87.333 64 -129s48.167 -76.5 75.5 -104.5c-7.33301 -11.333 -14.666 -18.833 -21.999 -22.5s-15 -0.166992 -23 10.5z" />
    <glyph glyph-name="bracketright" unicode="]" horiz-adv-x="446" 
d="M67 -85c-4 6 -0.499023 12.168 10.501 18.501s26.167 12.333 45.5 18s40.666 11 63.999 16s45.333 9.5 66 13.5s38 7.16699 52 9.5s21.333 3.5 22 3.5c-0.666992 23.333 -0.333984 53.5 0.999023 90.5s3 77.333 5 121s4.5 89.167 7.5 136.5s5.5 92.833 7.5 136.5
s3.33301 83.834 4 120.501s0.333984 66.667 -0.999023 90c-10 0.666992 -24.167 0 -42.5 -2l-61.5 -7c-22.667 -2.66699 -46.334 -5 -71.001 -7s-48 -2.66699 -70 -2s-41.333 3.16699 -58 7.5s-28.334 11.833 -35.001 22.5c-4 5.33301 2.83301 11.333 20.5 18
s40.834 12.834 69.501 18.501s60.334 10 95.001 13s67.334 3.5 98.001 1.5s56.5 -7 77.5 -15s32.5 -20 34.5 -36c2.66699 -26 3.66699 -58.333 3 -97s-2.16699 -80.834 -4.5 -126.501s-5 -92.834 -8 -141.501s-5.5 -95.834 -7.5 -141.501s-2.83301 -88 -2.5 -127
s2.5 -71.167 6.5 -96.5c0 -2 0.333008 -5.33301 1 -10s0.833984 -9.5 0.500977 -14.5s-1.33301 -9.5 -3 -13.5s-4.83398 -6.33301 -9.50098 -7c-24 2.66699 -51.833 0.5 -83.5 -6.5l-93.5 -20c-30.667 -6.33301 -58.834 -9.5 -84.501 -9.5s-44.167 8.33301 -55.5 25z" />
    <glyph glyph-name="asciicircum" unicode="^" horiz-adv-x="260" 
d="M213 374c-0.666992 1.33301 -2.16797 6.50293 -4.50098 15.5029l-8.5 32.5l-10.5 40.5c-3.66699 14.333 -7.5 27.166 -11.5 38.499s-7.83301 20 -11.5 26s-6.83398 7.66699 -9.50098 5c-2 -3.33301 -5 -10 -9 -20s-8.83301 -21.333 -14.5 -34
s-11.834 -25.667 -18.501 -39s-14 -25 -22 -35s-16.167 -17.167 -24.5 -21.5s-16.833 -3.5 -25.5 2.5c-3.33301 2 -6.66602 5 -9.99902 9s-3.66602 8.33301 -0.999023 13c2.66699 6 7.83398 16.5 15.501 31.5l24.5 48l24 48c7.33301 15 12.333 25.5 15 31.5
c14.667 31.333 28.334 51.166 41.001 59.499s24 9 34 2s18.667 -20 26 -39s13.166 -40 17.499 -63s7.33301 -46.333 9 -70s2 -43.667 1 -60s-3.83301 -27.333 -8.5 -33s-10.667 -1.83398 -18 11.499z" />
    <glyph glyph-name="underscore" unicode="_" horiz-adv-x="627" 
d="M29 11c-1.33301 0.666992 -3.50293 2.49902 -6.50293 5.49902s-4.5 5.16699 -4.5 6.5c0.666992 2 9.33398 4.66699 26.001 8s38.334 7 65.001 11s57.334 8 92.001 12s70 7.66699 106 11s71.333 5.83301 106 7.5s65.834 2.5 93.501 2.5s50.5 -1.5 68.5 -4.5
s28 -7.5 30 -13.5c0.666992 -1.33301 1 -5 1 -11s-0.333008 -10 -1 -12c-12.667 -0.666992 -32 -2 -58 -4l-88 -6.5c-32.667 -2.33301 -67 -4.66602 -103 -6.99902s-70.333 -4.66602 -103 -6.99902s-62 -4.33301 -88 -6s-45.333 -2.83398 -58 -3.50098
c-8 -0.666992 -15.333 -1 -22 -1s-12.834 0.166992 -18.501 0.5s-11.5 1.5 -17.5 3.5s-12.667 4.66699 -20 8z" />
    <glyph glyph-name="grave" unicode="`" horiz-adv-x="170" 
d="M118 428c-9.33301 16 -19.001 27.333 -29.001 34l-26.5 18c-7.66699 5.33301 -13.334 12.333 -17.001 21s-3.5 23 0.5 43c14.667 1.33301 29.334 -3 44.001 -13s28.167 -22 40.5 -36s22.333 -28.5 30 -43.5s11.834 -27 12.501 -36s-3.33301 -13.333 -12 -13
s-23 8.83301 -43 25.5z" />
    <glyph glyph-name="a" unicode="a" horiz-adv-x="702" 
d="M57 23c-16 13.333 -24.833 33.002 -26.5 59.002s2 55.333 11 88s22.333 66.834 40 102.501s38.167 69.667 61.5 102s48.666 61.333 75.999 87s54.666 44.667 81.999 57s54 16.666 80 12.999s49.667 -18.834 71 -45.501c13.333 -16.667 21.333 -33.5 24 -50.5
s2.33398 -34.333 -0.999023 -52s-8.66602 -35.667 -15.999 -54l-21.5 -55.5c-7 -18.667 -12.667 -37.667 -17 -57s-5.16602 -39 -2.49902 -59c3.33301 -25.333 14.666 -40.333 33.999 -45s42.5 -3.33398 69.5 3.99902s55.5 19 85.5 35s57.833 32 83.5 48s47 30 64 42
l25.5 18c18.667 4 29.167 2.83301 31.5 -3.5s-1.33398 -15.666 -11.001 -27.999s-24.167 -26.333 -43.5 -42s-41.333 -30.834 -66 -45.501s-51 -28 -79 -40s-55.333 -20.167 -82 -24.5s-51.834 -4 -75.501 1s-43.167 16.833 -58.5 35.5c-7.33301 8 -12.833 16 -16.5 24
s-9.5 15 -17.5 21c-10 -9.33301 -22 -21.5 -36 -36.5s-29.167 -30 -45.5 -45s-33.666 -29.167 -51.999 -42.5s-37.166 -23.333 -56.499 -30s-38.833 -9 -58.5 -7s-38.5 10.667 -56.5 26zM68 57.002c6 -21.333 19.3359 -31.168 40.0029 -29.501s44.667 11.834 72 30.501
s55.666 44.167 84.999 76.5s55.666 68.333 78.999 108s41.166 81.5 53.499 125.5s15.5 87.333 9.5 130c-16 12.667 -36 13.167 -60 1.5s-49.5 -30.667 -76.5 -57s-53.667 -57.666 -80 -93.999s-49.5 -73 -69.5 -110s-35.167 -71.833 -45.5 -104.5
s-12.833 -58.334 -7.5 -77.001z" />
    <glyph glyph-name="b" unicode="b" horiz-adv-x="548" 
d="M18 34c-1.33301 0.666992 -1.99707 2.33301 -1.99707 5s0.666992 4.66699 2 6c8.66699 17.333 18.334 40.166 29.001 68.499l34 93l36.5 105l37 105c12.333 33.667 24.5 64.5 36.5 92.5s23.333 50.5 34 67.5s20.334 27 29.001 30s16.334 -3.5 23.001 -19.5
c6 -15.333 7.66699 -31.166 5 -47.499s-7.83398 -33 -15.501 -50s-16.667 -34.333 -27 -52s-19.833 -35.167 -28.5 -52.5s-15.667 -34.666 -21 -51.999s-6.66602 -34.333 -3.99902 -51c18.667 4.66699 35.5 13.667 50.5 27s29.667 27.5 44 42.5s29.166 28.833 44.499 41.5
s33 21 53 25c31.333 6 57.666 4.5 78.999 -4.5s37.166 -22.833 47.499 -41.5s15.166 -41 14.499 -67s-7.33398 -53 -20.001 -81s-31.667 -55.333 -57 -82s-57.333 -50.334 -96 -71.001s-84.334 -36.667 -137.001 -48s-112.667 -15.333 -180 -12
c-1.33301 1.33301 -3.5 5 -6.5 11s-4.5 10 -4.5 12zM107.003 89.999c-0.666992 -2.66699 -0.998047 -8.16895 -0.998047 -16.502s0.333008 -13.833 1 -16.5c44.667 -6 89.5 -2.5 134.5 10.5s85.167 33.333 120.5 61s63.333 61.5 84 101.5s28.667 84 24 132
c-0.666992 1.33301 -2.5 3.33301 -5.5 6s-5.16699 4.33398 -6.5 5.00098c-22 3.33301 -45 1.33301 -69 -6s-48 -18.166 -72 -32.499s-47.167 -31.5 -69.5 -51.5s-42.833 -41 -61.5 -63s-34.834 -44.333 -48.501 -67s-23.834 -43.667 -30.501 -63z" />
    <glyph glyph-name="c" unicode="c" horiz-adv-x="559" 
d="M102 11c-34 11.333 -56.4961 28.999 -67.4961 52.999s-14 51.167 -9 81.5s16.5 62.333 34.5 96s39.333 65.834 64 96.501s50.667 58.334 78 83.001s53.166 43.334 77.499 56.001s45.166 17.667 62.499 15s28 -16 32 -40c2 -10.667 0.833008 -22.334 -3.5 -35.001
s-10.333 -24.834 -18 -36.501s-16.334 -22.334 -26.001 -32.001s-19 -16.834 -28 -21.501s-17 -6.33398 -24 -5.00098s-11.5 7 -13.5 17c8 13.333 17 26.833 27 40.5l29 38.5c-4 7.33301 -11.667 9 -23 5s-25 -12 -41 -24s-32.833 -27.167 -50.5 -45.5
s-34.834 -38.166 -51.501 -59.499s-31.5 -43.5 -44.5 -66.5s-22.5 -45.167 -28.5 -66.5s-7.5 -41.166 -4.5 -59.499s12.5 -33.166 28.5 -44.499c22 -2 47.333 0.166992 76 6.5s58 14.5 88 24.5s59.833 20.833 89.5 32.5l81 32.5c24.333 10 45 17.833 62 23.5
s28.167 7.16699 33.5 4.5c12.667 -6.66699 13.5 -16.334 2.5 -29.001s-29.5 -26.334 -55.5 -41.001s-56.833 -29.167 -92.5 -43.5s-71.5 -26.666 -107.5 -36.999s-70 -17.666 -102 -21.999s-57 -3.5 -75 2.5z" />
    <glyph glyph-name="d" unicode="d" horiz-adv-x="544" 
d="M430 23c-25.333 17.333 -43.668 38.834 -55.001 64.501s-19.666 53.167 -24.999 82.5h-11c-54 -44 -100.833 -77 -140.5 -99s-73.167 -35.5 -100.5 -40.5s-48.666 -2.83301 -63.999 6.5s-25.166 22.833 -29.499 40.5s-3.5 38.5 2.5 62.5s16.333 48.167 31 72.5
s33.667 47.5 57 69.5s50.166 40 80.499 54s64 22.833 101 26.5s76.833 -0.5 119.5 -12.5l11 12l135 271c18 -2.66699 28.667 -10.667 32 -24s3.16602 -28 -0.500977 -44s-9 -31.5 -16 -46.5l-15.5 -32.5l-11.5 -23l-20 -40.5l-24.5 -49.5l-24.5 -49.5l-20.5 -41
c-6 -11.667 -9.66699 -19.167 -11 -22.5c-12 -24.667 -17.5 -50.834 -16.5 -78.501s2.5 -54.167 4.5 -79.5c2.66699 -12 8 -21.833 16 -29.5s16.5 -14.667 25.5 -21l27 -18.5c9 -6 16.5 -13.333 22.5 -22c-2.66699 -8.66699 -8 -13.167 -16 -13.5s-16.333 1.16699 -25 4.5
s-16.667 7.33301 -24 12zM56.998 68.001c2.66699 -11.333 12.834 -14.667 30.501 -10s38.5 14.5 62.5 29.5s49.5 33.167 76.5 54.5s51.333 42.666 73 63.999s38.667 41 51 59s16.166 31.333 11.499 40c-20.667 11.333 -43.667 17 -69 17s-50.5 -4.5 -75.5 -13.5
s-49 -21.667 -72 -38s-42.333 -35.166 -58 -56.499s-26.667 -44.5 -33 -69.5s-5.5 -50.5 2.5 -76.5z" />
    <glyph glyph-name="e" unicode="e" horiz-adv-x="435" 
d="M85 11c-20 6.66699 -35.167 16.8311 -45.5 30.498s-17.166 28.834 -20.499 45.501s-3.83301 34.167 -1.5 52.5s6.16602 35.833 11.499 52.5l67.5 73.5c25 27.667 51.5 54.834 79.5 81.501s57.167 51.5 87.5 74.5s61.166 40.5 92.499 52.5
c10.667 4.66699 19.167 4.5 25.5 -0.5s10.833 -12.833 13.5 -23.5s3.83398 -23 3.50098 -37s-1.5 -27.667 -3.5 -41s-4.66699 -25.333 -8 -36s-6.66602 -18 -9.99902 -22c-8 -9.33301 -23.5 -20.333 -46.5 -33l-76.5 -41.5l-84 -46.5c-28 -16 -51 -31.833 -69 -47.5
s-28.667 -31.167 -32 -46.5s6 -29.333 28 -42c22.667 -2.66699 50.167 -1.5 82.5 3.5s65.333 11.667 99 20s66.167 17 97.5 26l77 21.5l12 -11c-14.667 -19.333 -38.667 -37 -72 -53s-69.333 -29.167 -108 -39.5s-76.334 -17 -113.001 -20s-65.667 -0.833008 -87 6.5z
M324 392.997c-0.666992 0.666992 -5.66602 -2.16797 -14.999 -8.50098s-20.833 -14.666 -34.5 -24.999l-44 -34l-43 -34.5l-32.5 -27.5c-8.66699 -7.66699 -12.334 -11.5 -11.001 -11.5c10.667 -2 24.5 -0.5 41.5 4.5s34.667 12.167 53 21.5s35.833 19.833 52.5 31.5
s29.834 23.167 39.501 34.5s14.667 21.333 15 30s-6.83398 15 -21.501 19z" />
    <glyph glyph-name="f" unicode="f" horiz-adv-x="470" 
d="M40 23c-1.33301 1.33301 -1.99707 5.00098 -1.99707 11.001s0.666992 9.66699 2 11l84 193h-95c-2 0 -3.83301 1.33301 -5.5 4s-3 5.83398 -4 9.50098s-1.83301 7.33398 -2.5 11.001s-0.333984 6.5 0.999023 8.5c2 0.666992 5.66699 2 11 4s11 4.33301 17 7
s11.667 5 17 7s9 3.66699 11 5c2 0.666992 7.5 2.66699 16.5 6l29 10.5l28.5 10.5c8.66699 3.33301 14 5.66602 16 6.99902c8 5.33301 17.5 18.5 28.5 39.5s23.5 46.167 37.5 75.5l46 94.5c16.667 33.667 34.667 66 54 97s39.666 58.667 60.999 83s43.5 41.666 66.5 51.999
s46.833 11.833 71.5 4.5s50 -27 76 -59c4.66699 -6.66699 8 -13.834 10 -21.501s2.33301 -15.5 1 -23.5c-6 -3.33301 -12 -4 -18 -2s-11.5 5.33301 -16.5 10s-9.5 9.5 -13.5 14.5s-6.66699 8.83301 -8 11.5c-44.667 7.33301 -80.167 5.5 -106.5 -5.5s-48 -27.667 -65 -50
s-31.833 -48.833 -44.5 -79.5s-27.334 -62.334 -44.001 -95.001c-4.66699 -8 -10.167 -18.333 -16.5 -31l-18.5 -37l-15.5 -31l-6.5 -13v-12c0 -2.66699 8.33301 -4.66699 25 -6s35.5 -3.33301 56.5 -6s41.333 -6.5 61 -11.5s32.5 -12.167 38.5 -21.5l-11 -11
c-38 2 -70 2.66699 -96 2s-48.667 -5 -68 -13s-36.333 -20.833 -51 -38.5s-29.667 -42.5 -45 -74.5l-21 -43.5l-26 -52l-22 -44c-6 -12.333 -9.33301 -18.833 -10 -19.5l-12 -11c-2 1.33301 -5.83301 4.83301 -11.5 10.5s-9.16699 9.83398 -10.5 12.501z" />
    <glyph glyph-name="g" unicode="g" horiz-adv-x="362" 
d="M-136 -282c-20.667 7.33301 -37.4971 18.3359 -50.4971 33.0029s-23 30.5 -30 47.5s-11.333 34.167 -13 51.5s-1.33398 32.666 0.999023 45.999s6.33301 23.5 12 30.5s12.167 8.83301 19.5 5.5c-0.666992 -58 6.16602 -101.833 20.499 -131.5s33 -48.334 56 -56.001
s49 -5.83398 78 5.49902s58.333 28.833 88 52.5s58 52 85 85s49.833 67.333 68.5 103s32 71 40 106s7.66699 66.833 -1 95.5c-60 -43.333 -106.667 -70.666 -140 -81.999s-56.5 -11.833 -69.5 -1.5s-17.167 28.833 -12.5 55.5s14.667 56 30 88s34.666 64.167 57.999 96.5
s47.333 59.5 72 81.5s48.5 36 71.5 42s42.167 -1 57.5 -21c15.333 -20.667 25 -48.5 29 -83.5s3 -73.833 -3 -116.5s-16.5 -87.334 -31.5 -134.001s-33.5 -92.167 -55.5 -136.5s-47.167 -85.5 -75.5 -123.5s-58.833 -69.667 -91.5 -95s-67 -42.5 -103 -51.5
s-72.667 -6.5 -110 7.5zM68.0029 214.003c-0.666992 -2 -1.16504 -5.66406 -1.49805 -10.9971s-0.5 -11 -0.5 -17s0.166992 -11.667 0.5 -17s0.833008 -9 1.5 -11c21.333 -5.33301 43.333 -0.333008 66 15s43.5 35 62.5 59s35 49.333 48 76s21 49 24 67
s-0.5 28.167 -10.5 30.5s-28.333 -8.5 -55 -32.5l-32 -30c-13.333 -12.667 -26.833 -26.334 -40.5 -41.001s-26.334 -29.834 -38.001 -45.501s-19.834 -29.834 -24.501 -42.501z" />
    <glyph glyph-name="h" unicode="h" horiz-adv-x="554" 
d="M11 23c-0.666992 1.33301 -0.999023 3.16992 -0.999023 5.50293s0.333008 4.16602 1 5.49902l13.5 27.5l20 41l20.5 40.5l14 27c1.33301 2 4.83301 7.66699 10.5 17l21 34.5l27 45.5l29 49l27 45l20.5 35l46.5 78l54.5 91l55.5 89
c18.333 28.667 35.166 52.334 50.499 71.001s28.333 31 39 37s18 2 22 -12v-32l-19 -28.5l-24.5 -37l-24.5 -37.5c-8 -12 -14 -21.333 -18 -28l-29 -45l-45 -70l-51 -81.5l-47 -79.5c-14 -24.667 -25.167 -45.834 -33.5 -63.501s-11.5 -28.834 -9.5 -33.501
c16 4.66699 33.167 13.167 51.5 25.5s36.833 25.5 55.5 39.5l56 40.5c18.667 13 36 23.167 52 30.5c16 -2 30 -8 42 -18s20.667 -22.667 26 -38c-0.666992 -6 -1.16699 -17.167 -1.5 -33.5s-0.5 -33.5 -0.5 -51.5s0.166992 -35 0.5 -51s0.833008 -27 1.5 -33
c0.666992 -7.33301 4 -16.5 10 -27.5s12.5 -22 19.5 -33s13.333 -20.5 19 -28.5s8.16699 -12.333 7.5 -13c-13.333 -4.66699 -26 -4.83398 -38 -0.500977s-22.5 11.333 -31.5 21s-16.333 20.667 -22 33s-9.16699 24.5 -10.5 36.5c-0.666992 6 -1.66699 17.167 -3 33.5
s-2.5 33.5 -3.5 51.5s-2 35 -3 51s-1.5 27 -1.5 33l-23 12c-4 2 -10.833 0.333008 -20.5 -5s-20.834 -12.666 -33.501 -21.999s-26 -20 -40 -32l-39.5 -34l-31.5 -28c-8.66699 -8 -14 -13 -16 -15l-29 -28.5l-44.5 -44l-44 -44.5c-13.667 -14 -23.167 -24 -28.5 -30
c-9.33301 -2 -18.166 -2.83301 -26.499 -2.5s-14.833 5.16602 -19.5 14.499z" />
    <glyph glyph-name="i" unicode="i" horiz-adv-x="254" 
d="M11 11c27.333 88 52.165 157.831 74.498 209.498s41 87.834 56 108.501s25.167 27.334 30.5 20.001s4.83301 -26 -1.5 -56s-19.666 -70.167 -39.999 -120.5s-48.833 -107.833 -85.5 -172.5c-5.33301 -2 -11.666 -2.33301 -18.999 -1s-12.333 5.33301 -15 12z
M185.999 491.998c-1.33301 3.33301 -2.00098 9.33398 -2.00098 18.001s0.666992 14 2 16c15.333 5.33301 27 6 35 2s13 -9.83301 15 -17.5s1.83301 -15.834 -0.5 -24.501s-6.16602 -15.167 -11.499 -19.5s-11.5 -5 -18.5 -2s-13.5 12.167 -19.5 27.5z" />
    <glyph glyph-name="j" unicode="j" horiz-adv-x="186" 
d="M-243 -350c-16.667 7.33301 -33.5029 17.332 -50.5029 29.999s-30.333 26.667 -40 42s-13.667 31.5 -12 48.5s13.167 33.5 34.5 49.5c4.66699 -0.666992 8 -4 10 -10s3.5 -13.333 4.5 -22s2 -18 3 -28s3.33301 -19.667 7 -29s8.83398 -17.333 15.501 -24
s16 -10.667 28 -12c30.667 -4.66699 58.334 0.166016 83.001 14.499s46.834 34.833 66.501 61.5s37.5 57.834 53.5 93.501s30.667 72.5 44 110.5s25.333 76 36 114s21 72.333 31 103s19.667 56.334 29 77.001s19.333 33 30 37c8.66699 -3.33301 12.834 -16.333 12.501 -39
s-4.33301 -51.5 -12 -86.5s-18.5 -74 -32.5 -117s-30.333 -86 -49 -129s-39.5 -84.167 -62.5 -123.5s-47 -72.833 -72 -100.5s-50.833 -47.5 -77.5 -59.5s-53.334 -12.333 -80.001 -1zM129.997 474.999c-9.33301 12 -12.001 21.5029 -8.00098 28.5029s9.66699 10.167 17 9.5
s14.333 -5.83398 21 -15.501s8 -24.834 4 -45.501c-3.33301 -2 -7 -2 -11 0s-7.66699 4.66699 -11 8s-6.16602 6.66602 -8.49902 9.99902z" />
    <glyph glyph-name="k" unicode="k" horiz-adv-x="729" 
d="M424 34l-102.994 145.497c-26 38.333 -47.333 66.833 -64 85.5s-30.334 27.667 -41.001 27s-22.167 -10.834 -34.5 -30.501s-27.5 -48.5 -45.5 -86.5s-42.667 -85 -74 -141c-4 -7.33301 -8.16699 -11.833 -12.5 -13.5s-8.5 -1.66699 -12.5 0
s-7.66699 4.83398 -11 9.50098s-6 9.66699 -8 15c-2 6.66699 0.333008 19.5 7 38.5s16.5 42 29.5 69s28.333 57 46 90l56 101.5l59 103l55 94.5l45.5 76.5c13.333 22 23 38.333 29 49c4.66699 3.33301 9.5 3.66602 14.5 0.999023s9.33301 -6.83398 13 -12.501
s6.16699 -11.667 7.5 -18s0.666016 -11.5 -2.00098 -15.5l-90 -158v-23c14 -3.33301 31.5 -2.16602 52.5 3.50098s43.667 13.834 68 24.501s49.166 23.167 74.499 37.5s49.5 28.666 72.5 42.999s43.667 28 62 41l43.5 31.5c8.66699 4.66699 16.5 6 23.5 4
s12.333 -5.66699 16 -11s5.16699 -11.666 4.5 -18.999s-4 -14 -10 -20c-18.667 -19.333 -40.834 -35.833 -66.501 -49.5s-52.834 -26 -81.501 -37s-57.834 -21.333 -87.501 -31s-58.167 -20.167 -85.5 -31.5s-52.333 -24 -75 -38s-41.334 -30.667 -56.001 -50
c8.66699 -7.33301 20.167 -18.833 34.5 -34.5l47 -52.5l51.5 -61.5c17.333 -21.667 32.833 -42.667 46.5 -63s25 -38.666 34 -54.999s13.5 -29.166 13.5 -38.499v-23c-5.33301 -2.66699 -10.166 -3.5 -14.499 -2.5s-8.5 2.83301 -12.5 5.5s-7.5 5.83398 -10.5 9.50098z" />
    <glyph glyph-name="l" unicode="l" horiz-adv-x="328" 
d="M57 11c-19.333 14 -31.832 31.6631 -37.499 52.9961s-6.5 44.5 -2.5 69.5s11.167 50.833 21.5 77.5s21.666 52.334 33.999 77.001s24.333 47.334 36 68.001s20.834 37.667 27.501 51l14.5 29l24.5 50l24.5 50.5l14.5 29.5c2 3.33301 4.83301 9.83301 8.5 19.5l12.5 31.5
c4.66699 11.333 9.83398 22.166 15.501 32.499s11.667 17.833 18 22.5s12.666 5.33398 18.999 2.00098s12.5 -13.333 18.5 -30c-2.66699 -6.66699 -9.16699 -20 -19.5 -40l-36.5 -72l-46.5 -93l-49.5 -103l-45 -101.5c-14 -33 -25.5 -63 -34.5 -90s-14.333 -49.333 -16 -67
s1.5 -28.5 9.5 -32.5c9.33301 -4.66699 21.5 -6.5 36.5 -5.5s30.5 2.83301 46.5 5.5s31.667 5.5 47 8.5s28.666 4.16699 39.999 3.5c2.66699 -6 0.666992 -11.833 -6 -17.5s-16 -10.667 -28 -15s-25.833 -8 -41.5 -11s-30.667 -5.16699 -45 -6.5s-27 -1.66602 -38 -0.999023
s-18.5 2.33398 -22.5 5.00098z" />
    <glyph glyph-name="m" unicode="m" horiz-adv-x="825" 
d="M622 23c-7.33301 8.66699 -11.5 18.5029 -12.5 29.5029s-0.333008 22 2 33s5.66602 21.667 9.99902 32l12.5 28.5c2.66699 6.66699 8.16699 18.834 16.5 36.501l27 55.5l27.5 54.5l18 35.5v22c-6.66699 3.33301 -20.334 -1.16699 -41.001 -13.5s-44.667 -29.333 -72 -51
l-87 -72.5l-86.5 -76.5l-70.5 -65c-20 -19 -32.667 -31.5 -38 -37.5c-14.667 -4.66699 -24.167 -1.5 -28.5 9.5s-5.5 26.333 -3.5 46s6 41.667 12 66s12.167 47.333 18.5 69s12 40.167 17 55.5s7.16699 23.666 6.5 24.999c-13.333 4.66699 -27.333 3 -42 -5
s-29.667 -19.833 -45 -35.5s-30.666 -34 -45.999 -55l-46 -63l-44 -60c-14 -19 -27.333 -34.5 -40 -46.5s-24.5 -19 -35.5 -21s-20.5 3 -28.5 15c-0.666992 0.666992 -1 2.33398 -1 5.00098s0.333008 4.66699 1 6l15.5 31.5l23.5 48.5l28 56.5l28.5 56l24 47.5
c7 14 12.5 24.333 16.5 31c3.33301 6.66699 8 15.167 14 25.5l18 30l16 25l7 10.5h24c4.66699 -15.333 4 -29.666 -2 -42.999s-13.167 -26.333 -21.5 -39s-15.333 -25.167 -21 -37.5s-5.83398 -25.5 -0.500977 -39.5c57.333 50.667 101.5 88 132.5 112
s52.833 37.667 65.5 41s18.667 -1.66699 18 -15s-3.5 -31.333 -8.5 -54s-10 -48.5 -15 -77.5s-5.5 -57.167 -1.5 -84.5h12c4 2.66699 10.667 7.66699 20 15l30.5 24l31 24c9.66699 7.33301 16.5 12.333 20.5 15l32 25l42.5 32.5l39 29c11.667 8.33301 19.167 13.5 22.5 15.5
l17.5 12.5l30 20.5l31.5 20.5c10 6.33301 17.333 11.166 22 14.499c10 6.66699 19.333 9.66699 28 9s15.834 -3.83398 21.501 -9.50098s9.16699 -13.334 10.5 -23.001s0 -20.5 -4 -32.5l-47.5 -88c-15.667 -28.667 -30 -57.5 -43 -86.5s-23.667 -58.833 -32 -89.5
s-12.833 -63.334 -13.5 -98.001c-3.33301 -2 -6.83301 -2 -10.5 0s-7.16699 4.66699 -10.5 8s-6.16602 6.66602 -8.49902 9.99902z" />
    <glyph glyph-name="n" unicode="n" horiz-adv-x="576" 
d="M390 11c-2 22 -0.164062 43.835 5.50293 65.502s13.334 43 23.001 64s20 42 31 63s20.5 41.667 28.5 62s13.667 40.333 17 60s2 39.167 -4 58.5c-16.667 6 -35.834 4.66699 -57.501 -4s-44.5 -21.834 -68.5 -39.501s-48.833 -38.334 -74.5 -62.001l-75 -72l-69.5 -69.5
c-22 -22 -41.833 -40.167 -59.5 -54.5s-32.5 -23.333 -44.5 -27s-20 0.5 -24 12.5c-0.666992 0.666992 3.16602 9.16699 11.499 25.5l31 61.5l41 80l42.5 80.5l35 63.5c10 17.333 16.333 26.666 19 27.999c14 -9.33301 21.167 -19.5 21.5 -30.5s-1.5 -22.333 -5.5 -34
s-8.5 -23.5 -13.5 -35.5s-5.83301 -24 -2.5 -36l44.5 30.5l62 40.5c22.333 14 45.666 27.667 69.999 41s47.166 23.833 68.499 31.5s40.5 11.834 57.5 12.501s29.5 -4.33301 37.5 -15s10.5 -28.167 7.5 -52.5s-13.5 -57.5 -31.5 -99.5l-14.5 -33.5l-25 -57l-25 -57
l-14.5 -33.5c-0.666992 -2.66699 -1.5 -7.5 -2.5 -14.5s-2.16699 -14.667 -3.5 -23s-3.33301 -16.333 -6 -24s-6 -13.5 -10 -17.5s-8.66699 -3.5 -14 1.5s-8.33301 8.16699 -9 9.5z" />
    <glyph glyph-name="o" unicode="o" horiz-adv-x="430" 
d="M79 11c-28 11.333 -45.502 28.333 -52.502 51s-6.83301 47.834 0.5 75.501s20 56.334 38 86.001s38 56.834 60 81.501s44.167 45.5 66.5 62.5s41.5 26.5 57.5 28.5c41.333 5.33301 73.833 2.5 97.5 -8.5s39.834 -26.833 48.501 -47.5s11 -44.834 7 -72.501
s-12.833 -55.5 -26.5 -83.5s-31.334 -55 -53.001 -81s-45.667 -47.833 -72 -65.5s-54.166 -29.334 -83.499 -35.001s-58.666 -2.83398 -87.999 8.49902zM67.998 68c5.33301 -21.333 16.666 -33.168 33.999 -35.501s37.5 2 60.5 13s47.167 27 72.5 48s48.5 43.833 69.5 68.5
s38.333 49.5 52 74.5s20.334 46.833 20.001 65.5s-9.33301 32.834 -27 42.501s-47.167 11.5 -88.5 5.5c-9.33301 -8.66699 -21.333 -19.167 -36 -31.5s-29.834 -25.833 -45.501 -40.5s-31.167 -30.5 -46.5 -47.5s-28.666 -34.5 -39.999 -52.5s-19.5 -36.333 -24.5 -55
s-5.16699 -37 -0.5 -55z" />
    <glyph glyph-name="p" unicode="p" horiz-adv-x="542" 
d="M-90 -350c-6 37.333 -4.1709 75.1621 5.49609 113.495s22.334 76.5 38.001 114.5l47.5 113.5c16 37.667 27 74.5 33 110.5c0 1.33301 2.83301 5.33301 8.5 12l19 21.5c7 7.66699 13.333 15 19 22s8.83398 11.167 9.50098 12.5c10.667 23.333 21.5 44.833 32.5 64.5
s19.5 38.834 25.5 57.501s8.66699 37.167 8 55.5s-7.33398 38.166 -20.001 59.499c-1.33301 1.33301 -2 3.33301 -2 6s0.666992 4.33398 2 5.00098c19.333 24.667 41.666 45.334 66.999 62.001s52.333 30 81 40s58.334 16.667 89.001 20s61 4 91 2
c25.333 -21.333 41.5 -45.5 48.5 -72.5s7.33301 -55 1 -84s-18 -58.167 -35 -87.5s-36.5 -56.666 -58.5 -81.999s-45.167 -48 -69.5 -68s-47.166 -35.333 -68.499 -46c-19.333 -9.33301 -33.5 -15.5 -42.5 -18.5s-17.833 -4.83301 -26.5 -5.5
s-19.167 -1.33398 -31.5 -2.00098s-31.166 -3.33398 -56.499 -8.00098c-11.333 -2 -20.833 -7.16699 -28.5 -15.5s-14 -17.666 -19 -27.999s-9 -21 -12 -32s-5.83301 -19.833 -8.5 -26.5l-32.5 -81.5l-28 -74c-9 -24.333 -17.833 -49.5 -26.5 -75.5l-27 -85
c-1.33301 -3.33301 -3.66602 -6.16602 -6.99902 -8.49902s-6.83301 -3.66602 -10.5 -3.99902s-7 0.333984 -10 2.00098s-4.83301 5.16699 -5.5 10.5zM135.996 112.996c30.667 -6 60.5 -4.33203 89.5 5.00098s56.167 23.833 81.5 43.5s48.166 43.334 68.499 71.001
s37.5 56.834 51.5 87.501s24.333 61.5 31 92.5s8.66699 59.5 6 85.5c-9.33301 8 -20.5 12.167 -33.5 12.5s-24.5 -0.166992 -34.5 -1.5c-36 -4.66699 -64.333 -13.834 -85 -27.501s-37.5 -30.834 -50.5 -51.501s-24.167 -44.5 -33.5 -71.5s-20.666 -56.167 -33.999 -87.5
c-2.66699 -4.66699 -6.66699 -12.834 -12 -24.501l-17 -37l-17 -37.5l-11 -25v-34z" />
    <glyph glyph-name="q" unicode="q" horiz-adv-x="396" 
d="M62 -350c-19.333 18.667 -30.498 41.3291 -33.498 67.9961s-1.83301 54 3.5 82s13.333 55.667 24 83l29 72c14 33.333 22.833 59.833 26.5 79.5s4.16699 34.834 1.5 45.501s-8 18 -16 22s-16.5 6.83301 -25.5 8.5s-18 3.16699 -27 4.5s-16.167 4.83301 -21.5 10.5
s-8 14.5 -8 26.5s4.66699 29.333 14 52c2.66699 7.33301 8.83398 17.833 18.501 31.5s21.667 28.667 36 45s30.5 33.333 48.5 51s36.5 34 55.5 49s38 27.667 57 38s36.5 16.5 52.5 18.5s30.333 -1 43 -9s22 -22.667 28 -44c1.33301 -5.33301 1.33301 -12.666 0 -21.999
s-3.5 -19.166 -6.5 -29.499s-6 -20.166 -9 -29.499s-5.5 -16.333 -7.5 -21c-6.66699 -18.667 -20.167 -42.834 -40.5 -72.501l-67.5 -98.5l-75 -113.5c-25.333 -39.667 -46.333 -78.5 -63 -116.5s-27.334 -74.167 -32.001 -108.5s1.33301 -63.833 18 -88.5
c4 -6 14.667 -2.66699 32 10s38.333 29.667 63 51l79.5 69.5c28.333 25 55.166 46.833 80.499 65.5s47.666 31.667 66.999 39s32.333 4.33301 39 -9c1.33301 -1.33301 2 -3.33301 2 -6s-0.666992 -4.66699 -2 -6c-10 -7.33301 -24.833 -20.166 -44.5 -38.499l-66.5 -60.5
l-78 -66.5c-27.333 -22.333 -53.5 -41.5 -78.5 -57.5s-47.833 -27 -68.5 -33s-36.667 -3.33301 -48 8zM74.002 180.995c-0.666992 -2 -1.16504 -5.16895 -1.49805 -9.50195s-0.5 -8.83301 -0.5 -13.5s0.166992 -9.16699 0.5 -13.5s0.833008 -7.16602 1.5 -8.49902
c17.333 -6 34.666 -4.5 51.999 4.5s34.166 21.833 50.499 38.5s32.166 35.167 47.499 55.5l43.5 56c13.667 17 26 30.333 37 40s20.833 12.5 29.5 8.5c6 25.333 4.16699 40.333 -5.5 45s-23.667 2.83398 -42 -5.49902s-39.166 -21.5 -62.499 -39.5s-45.666 -37 -66.999 -57
s-39.833 -39.333 -55.5 -58s-24.834 -33 -27.501 -43z" />
    <glyph glyph-name="r" unicode="r" horiz-adv-x="486" 
d="M29 11c-1.33301 0.666992 -1.16602 8.5 0.500977 23.5s4.16699 33.833 7.5 56.5s7.66602 47.667 12.999 75s11 53.5 17 78.5s12.5 47 19.5 66s13.833 32.167 20.5 39.5c4.66699 4.66699 9.33398 4.83398 14.001 0.500977s9.33398 -9.66602 14.001 -15.999
s9.33398 -12 14.001 -17s9.66699 -5.5 15 -1.5c18.667 26 39.167 50.833 61.5 74.5s47.166 44.167 74.499 61.5c2.66699 2 10 5.16699 22 9.5s25.667 8.66602 41 12.999s31.166 8 47.499 11s30.333 4.33301 42 4s19.667 -3.33301 24 -9s2.16602 -15.167 -6.50098 -28.5
c-40 -0.666992 -77.333 -12.334 -112 -35.001s-66.667 -50.667 -96 -84s-56 -69.5 -80 -108.5s-44.833 -75.167 -62.5 -108.5l-44 -83c-11.667 -22 -20.167 -33 -25.5 -33c-0.666992 0 -3.66699 1.5 -9 4.5s-9.33301 5.16699 -12 6.5z" />
    <glyph glyph-name="s" unicode="s" horiz-adv-x="396" 
d="M29 11c-8 5.33301 -8.1709 12.5 -0.503906 21.5s20 18.667 37 29s36.833 21.166 59.5 32.499l65.5 32l55.5 26.5c16 7.66699 26.333 13.5 31 17.5c22 18.667 33.5 34.167 34.5 46.5s-4.5 22.333 -16.5 30s-28.833 13.667 -50.5 18s-44 8.33301 -67 12s-45 7.5 -66 11.5
s-36.833 9.33301 -47.5 16s-14.167 15.5 -10.5 26.5s18.167 25.167 43.5 42.5l41 29c18 12.667 37.5 25.667 58.5 39s41.833 25.333 62.5 36s38 17.667 52 21c7.33301 1.33301 14.833 0.666016 22.5 -2.00098s13.834 -6.5 18.501 -11.5s6.83398 -10.5 6.50098 -16.5
s-4.83301 -11.333 -13.5 -16l-109.5 -60c-35 -18.667 -70.167 -40 -105.5 -64c-2 -5.33301 -1.5 -10 1.5 -14s6.5 -7 10.5 -9c70.667 -7.33301 123.834 -17.666 159.501 -30.999s58.334 -28 68.001 -44s8.5 -33 -3.5 -51s-29.833 -35.667 -53.5 -53
s-50.834 -33.666 -81.501 -48.999s-60.167 -28.333 -88.5 -39s-53.166 -18.667 -74.499 -24s-34.333 -6.33301 -39 -3z" />
    <glyph glyph-name="t" unicode="t" horiz-adv-x="430" 
d="M91 11c-0.666992 1.33301 -1.00195 5.00098 -1.00195 11.001s0.333008 10 1 12l11 38.5l17 58l17 57.5c5.33301 18 9 30.667 11 38l9 32.5c3.33301 12.333 4 24.166 2 35.499c-10 1.33301 -22.333 0.166016 -37 -3.50098s-29.167 -6.66699 -43.5 -9
s-27.666 -2.33301 -39.999 0s-21.166 10.166 -26.499 23.499c8 16.667 20 27.5 36 32.5s33.333 8.5 52 10.5s36.5 5 53.5 9s30.5 13 40.5 27l21.5 63.5l26.5 78.5c9.33301 27.333 19.5 54.333 30.5 81s22.5 50.334 34.5 71.001c7.33301 4.66699 13.333 5 18 1
s8.16699 -9.83301 10.5 -17.5s3.83301 -15.5 4.5 -23.5s0.666992 -13.333 0 -16c-4 -17.333 -10.833 -35.833 -20.5 -55.5s-18.667 -39.5 -27 -59.5s-15 -40 -20 -60s-5.16699 -39 -0.5 -57h215c0.666992 0 2.33398 -2.16699 5.00098 -6.5s5 -7.83301 7 -10.5
c3.33301 -9.33301 -0.333984 -15.666 -11.001 -18.999s-25 -5.5 -43 -6.5s-38.5 -1.66699 -61.5 -2s-45 -2 -66 -5s-39.833 -8 -56.5 -15s-28 -17.5 -34 -31.5c-17.333 -44.667 -33.333 -89.5 -48 -134.5s-28.667 -90.5 -42 -136.5c-1.33301 -2 -4 -5.16699 -8 -9.5
s-8.33301 -8 -13 -11s-9.16699 -4.16699 -13.5 -3.5s-7.83301 4.66699 -10.5 12z" />
    <glyph glyph-name="u" unicode="u" horiz-adv-x="576" 
d="M430 11c-18 7.33301 -32.335 17.001 -43.002 29.001s-19 25.667 -25 41s-10.667 31.5 -14 48.5s-6.33301 34.167 -9 51.5c-6 4 -16.667 0.166992 -32 -11.5s-33 -26.167 -53 -43.5l-64.5 -53.5c-23 -18.333 -45.167 -31.833 -66.5 -40.5s-40.833 -10.334 -58.5 -5.00098
s-31.5 22.666 -41.5 51.999c-3.33301 10 -2.16602 24.5 3.50098 43.5s14.167 39.833 25.5 62.5s24.5 46.167 39.5 70.5s29.667 47 44 68s27.666 39 39.999 54s21.833 24.833 28.5 29.5c15.333 -7.33301 22.166 -18.5 20.499 -33.5s-7.66699 -32.167 -18 -51.5
s-23.666 -40 -39.999 -62s-31.666 -43.833 -45.999 -65.5s-25.833 -42.5 -34.5 -62.5s-11 -37.667 -7 -53c14.667 -6 32.834 -2.83301 54.501 9.5s45 29.5 70 51.5s50.667 47.167 77 75.5l73.5 82l60 69.5c17.333 20 30 33.333 38 40c14 -6.66699 21 -17.5 21 -32.5
s-3.83301 -32.167 -11.5 -51.5s-17 -40.166 -28 -62.499s-20.5 -44.5 -28.5 -66.5s-12.667 -43 -14 -63s4 -37.333 16 -52l34 -40h101c4.66699 0 5.66699 -2 3 -6s-6.5 -8.33301 -11.5 -13s-10.167 -9.16699 -15.5 -13.5s-8.33301 -6.5 -9 -6.5
c-17.333 -3.33301 -31.333 -3.83301 -42 -1.5s-23 6.5 -37 12.5z" />
    <glyph glyph-name="v" unicode="v" horiz-adv-x="531" 
d="M57 23c-14 8 -24 20.6621 -30 37.9951s-9.33301 37 -10 59s0.666016 45 3.99902 69s7.33301 47.333 12 70s9.33398 43 14.001 61s8 32 10 42c3.33301 2 6.83301 2 10.5 0s7.33398 -4.83301 11.001 -8.5s6.66699 -7 9 -10l3.5 -4.5c2 -23.333 2.16699 -46.166 0.5 -68.499
s-3.66699 -44.5 -6 -66.5s-4.33301 -44.333 -6 -67s-1.83398 -45.667 -0.500977 -69c5.33301 -10 16.333 -10.167 33 -0.5s37 25.334 61 47.001s50.167 47.334 78.5 77.001l84 88.5l78.5 82.5c24.667 25.667 45.5 45.334 62.5 59.001s28.833 19.334 35.5 17.001
s5.66699 -16.5 -3 -42.5c-16 -14 -35 -35 -57 -63l-72 -90.5l-81 -96.5c-28 -32 -56.167 -59.5 -84.5 -82.5s-55.833 -39 -82.5 -48s-51.667 -6.5 -75 7.5z" />
    <glyph glyph-name="w" unicode="w" horiz-adv-x="746" 
d="M334 11c-13.333 10 -23.6699 22.999 -31.0029 38.999s-12.833 33 -16.5 51s-6.16699 36 -7.5 54s-2 34 -2 48c-1.33301 1.33301 -3.16602 2 -5.49902 2s-4.16602 -0.666992 -5.49902 -2c-16.667 -12 -32.667 -26.333 -48 -43l-45.5 -51l-44 -51.5
c-14.333 -17 -28.833 -32.5 -43.5 -46.5c-9.33301 -3.33301 -19 -4.16602 -29 -2.49902s-18.5 5 -25.5 10s-12 11.667 -15 20s-2.16699 18.166 2.5 29.499l41.5 129.5c15 45.667 30.833 89.167 47.5 130.5c6 14.667 12.5 22.667 19.5 24s13.167 -1.33398 18.5 -8.00098
s9 -15.834 11 -27.501s1 -23.167 -3 -34.5l-11 -28.5l-17 -44l-17 -44.5l-11 -29v-34c20.667 18.667 38 35.334 52 50.001s27.167 29.5 39.5 44.5l38.5 48c13.333 17 30 37.167 50 60.5c15.333 18 27.333 27.833 36 29.5s15.167 -2 19.5 -11s6.83301 -22 7.5 -39
s0.833984 -35.333 0.500977 -55s-1.16602 -39.334 -2.49902 -59.001s-1.83301 -36.667 -1.5 -51s1.83301 -24.666 4.5 -30.999s7.66699 -5.83301 15 1.5l35 55l52 79.5c19.333 29 40.5 58.333 63.5 88s46.5 56.334 70.5 80.001s48 42.334 72 56.001s47 18.834 69 15.501
c0.666992 -2.66699 -3.16602 -10 -11.499 -22s-19.333 -26.167 -33 -42.5l-45 -53l-48 -54.5l-41.5 -47c-12 -14 -20.333 -24.333 -25 -31l-12.5 -17.5l-22 -32l-27 -39.5l-27.5 -40l-22.5 -33c-6.33301 -9.33301 -10.5 -15.333 -12.5 -18l-15 -21
c-4 -5.33301 -7.83301 -9 -11.5 -11s-7.83398 -2.33301 -12.501 -1s-10.334 4.66602 -17.001 9.99902z" />
    <glyph glyph-name="x" unicode="x" horiz-adv-x="503" 
d="M18 23c-6 9.33301 -4.66602 19.9961 4.00098 31.9961s21.334 24.833 38.001 38.5s35.5 27.834 56.5 42.501s40.5 29.334 58.5 44.001s32.667 28.834 44 42.501s15.666 26.167 12.999 37.5c-0.666992 2.66699 -2.66699 10.167 -6 22.5l-11 39.5l-11 39
c-3.33301 12 -5.33301 19.667 -6 23v23c8.66699 6.66699 17.167 4.66699 25.5 -6s16.333 -24.167 24 -40.5l22 -48.5c7 -16 13.167 -26 18.5 -30c12 8 24.833 17.5 38.5 28.5l40.5 34l38 34c12 11 22 20.5 30 28.5c14 7.33301 23.833 10.5 29.5 9.5s8.5 -4.5 8.5 -10.5
s-1.83301 -13.333 -5.5 -22s-7.83398 -17.167 -12.501 -25.5s-9.16699 -15.5 -13.5 -21.5l-6.5 -9c-35.333 -32 -62.333 -59.167 -81 -81.5s-31.5 -41.166 -38.5 -56.499s-9.5 -27.666 -7.5 -36.999s6.5 -17.166 13.5 -23.499s15.167 -11.833 24.5 -16.5
s17.5 -9.83398 24.5 -15.501s11.667 -12.5 14 -20.5s0.166016 -18.667 -6.50098 -32c-18 -4.66699 -32 -3.83398 -42 2.49902s-18.333 15.166 -25 26.499s-12.167 23.666 -16.5 36.999s-9.66602 24.833 -15.999 34.5s-14.666 16 -24.999 19s-24.5 -0.166992 -42.5 -9.5
s-40.833 -26.166 -68.5 -50.499s-61.834 -59.166 -102.501 -104.499c-2 1.33301 -5.83301 5 -11.5 11s-9.16699 10 -10.5 12z" />
    <glyph glyph-name="y" unicode="y" horiz-adv-x="441" 
d="M-170 -384c-6 9.33301 -5.83496 23.8369 0.498047 43.5039s15.333 40 27 61s23.667 40.667 36 59s21.5 31.5 27.5 39.5l24.5 33l37.5 50l44.5 59l44.5 58.5l38 49.5l25 33c5.33301 6 5.33301 15.333 0 28s-13.5 27.5 -24.5 44.5l-37 56c-13.667 20.333 -26 41 -37 62
s-19.333 41.833 -25 62.5s-5.83398 40 -0.500977 58c7.33301 5.33301 15.333 2.16602 24 -9.50098s17.834 -27.667 27.501 -48l30.5 -67c10.667 -24.333 21 -46.333 31 -66s19.833 -35.167 29.5 -46.5s18.834 -13.666 27.501 -6.99902
c17.333 12.667 34.333 28.834 51 48.501s32.667 40.167 48 61.5l43.5 62.5c13.667 20.333 26.5 38.166 38.5 53.499c4.66699 6 9.16699 10.167 13.5 12.5s11.166 1.83301 20.499 -1.5c7.33301 -2.66699 6 -14.334 -4 -35.001s-25.667 -47.334 -47 -80.001
s-46.833 -69.834 -76.5 -111.501l-94 -130l-99 -134.5l-91 -124.5l-71 -101c-19.667 -29 -32.5 -50.167 -38.5 -63.5c-2.66699 -6 -5.5 -12 -8.5 -18s-7.16699 -11 -12.5 -15c-1.33301 0.666992 -3.16602 2 -5.49902 4s-4.66602 4.16699 -6.99902 6.5l-7 7
c-2.33301 2.33301 -3.83301 4.16602 -4.5 5.49902z" />
    <glyph glyph-name="z" unicode="z" horiz-adv-x="566" 
d="M40 11c-12.667 7.33301 -17.167 17.6611 -13.5 30.9941s13.167 28.5 28.5 45.5s34.833 35.333 58.5 55l77 61.5l84.5 64.5l80.5 63.5c25 20.667 46.667 40.334 65 59.001s30.833 35.334 37.5 50.001c-1.33301 8.66699 -8 13.5 -20 14.5s-26.333 0.333008 -43 -2
s-34.334 -5.5 -53.001 -9.5s-35.334 -6.16699 -50.001 -6.5s-25.834 2 -33.501 7s-9.16699 14.833 -4.5 29.5c0.666992 1.33301 7.83398 4.16602 21.501 8.49902s30.834 8.83301 51.501 13.5s43 8.66699 67 12s46.333 4.83301 67 4.5s38.167 -3.5 52.5 -9.5s22 -16 23 -30
s-6.16699 -32.667 -21.5 -56s-42 -53 -80 -89c-2 -2.66699 -7.5 -8 -16.5 -16l-30 -26.5l-32 -28l-22.5 -19.5c-4.66699 -4 -13 -10.5 -25 -19.5l-40.5 -31l-46.5 -36.5c-16 -12.667 -30.333 -24.667 -43 -36s-22.667 -21.166 -30 -29.499
s-9.66602 -14.166 -6.99902 -17.499c28 -2.66699 56.167 -2.5 84.5 0.5s56.5 6.5 84.5 10.5s56.167 7.5 84.5 10.5s56.833 3.16699 85.5 0.5c6.66699 -4 13.167 -10.167 19.5 -18.5s7.16602 -17.166 2.49902 -26.499c-17.333 -1.33301 -38.833 -4.16602 -64.5 -8.49902
l-83 -14.5c-29.667 -5.33301 -60.167 -10.5 -91.5 -15.5s-61.166 -8.5 -89.499 -10.5s-54.333 -2.16699 -78 -0.5s-42.5 6.83398 -56.5 15.501z" />
    <glyph glyph-name="braceleft" unicode="{" horiz-adv-x="271" 
d="M155 -47c-22 8 -43.8369 21.8271 -65.5039 41.4941s-39 41.834 -52 66.501s-20 50.334 -21 77.001s7.5 51.334 25.5 74.001c2 2.66699 6.83301 8.5 14.5 17.5l25 28.5l25 28c7.66699 8.66699 12.5 14 14.5 16c8 10 12.167 18.667 12.5 26s-1.5 13.833 -5.5 19.5
s-9.33301 10.667 -16 15s-12.667 9 -18 14s-9 10.5 -11 16.5s-0.666992 13.333 4 22c0.666992 2 3.33398 5.66699 8.00098 11l15 17.5l15 18c4.66699 5.66699 7.33398 9.16699 8.00098 10.5c7.33301 17.333 9 34.5 5 51.5s-10 34 -18 51s-15.5 33.833 -22.5 50.5
s-9.66699 33.167 -8 49.5s9.66699 32 24 47s39.5 29.833 75.5 44.5c8 2.66699 14.833 0.5 20.5 -6.5s9.83398 -12.5 12.501 -16.5c-6 -7.33301 -15.333 -15.166 -28 -23.499s-24.667 -17.5 -36 -27.5s-20.166 -21.167 -26.499 -33.5s-5.83301 -25.833 1.5 -40.5l56 -112
c0 -0.666992 -0.5 -6 -1.5 -16s-1.83301 -22 -2.5 -36s-0.833984 -28.667 -0.500977 -44s1.83301 -28.666 4.5 -39.999c4.66699 -18.667 5.5 -34.667 2.5 -48s-8.16699 -25 -15.5 -35s-16.166 -19 -26.499 -27s-20.333 -16.333 -30 -25s-18.667 -18.334 -27 -29.001
s-13.833 -23.667 -16.5 -39c-6.66699 -33.333 -6 -60.333 2 -81s20.5 -37.667 37.5 -51s37.167 -24.5 60.5 -33.5l70 -27.5c12.667 -5.33301 18.5 -10.666 17.5 -15.999s-6.66699 -9.5 -17 -12.5s-23.833 -4.16699 -40.5 -3.5s-33.667 4.33398 -51 11.001z" />
    <glyph glyph-name="bar" unicode="|" horiz-adv-x="113" 
d="M34 11c-1.33301 1.33301 -3.33301 5.00195 -6 11.002s-4.33398 10 -5.00098 12c0 8.66699 -0.166992 23.667 -0.5 45s-0.5 44 -0.5 68s0.166992 46.667 0.5 68s0.5 36.333 0.5 45c0 5.33301 0.333008 16 1 32s1.33398 35 2.00098 57s1.5 45.167 2.5 69.5
s1.83301 47.333 2.5 69s1.33398 40.5 2.00098 56.5s1 26.667 1 32c0 1.33301 0.5 5.5 1.5 12.5s2.33301 14.833 4 23.5s3.66699 17.667 6 27s5.16602 16.666 8.49902 21.999s7.16602 8 11.499 8s8.83301 -4.66699 13.5 -14c2 -53.333 2.33301 -106.833 1 -160.5
s-3 -107.334 -5 -161.001l-6 -161c-2 -53.667 -2.33301 -107.5 -1 -161.5c-4.66699 -8.66699 -10.167 -12.5 -16.5 -11.5s-12.166 4.83301 -17.499 11.5z" />
    <glyph glyph-name="braceright" unicode="}" horiz-adv-x="300" 
d="M66 -57c-2 5.33301 1.00293 12.0049 9.00293 20.0049s18.5 16.833 31.5 26.5l42.5 32.5c15.333 12 29.166 25 41.499 39s21.833 29.167 28.5 45.5s8.33398 33.5 5.00098 51.5c-2.66699 14.667 -8.66699 28.167 -18 40.5s-19.833 24.166 -31.5 35.499l-35 33.5
c-11.667 11 -21.667 22.333 -30 34s-13.833 24.167 -16.5 37.5s-0.666992 28.333 6 45c-14.667 30.667 -23.834 53.667 -27.501 69s-3.83398 26.5 -0.500977 33.5s9.16602 12 17.499 15s16.666 7.33301 24.999 13s15.666 14.5 21.999 26.5s9.5 31 9.5 57
c0 13.333 -3.83301 26.333 -11.5 39s-17.167 24.667 -28.5 36s-23.333 22.5 -36 33.5s-24 21.833 -34 32.5s-17.667 21.167 -23 31.5s-6 20.833 -2 31.5h32c2 0 7.83301 -4.33301 17.5 -13s20.5 -19 32.5 -31l36 -37.5c12 -13 21.333 -23.5 28 -31.5
c16.667 -21.333 27.167 -41 31.5 -59s4.5 -35.667 0.5 -53s-11 -34.333 -21 -51s-21 -34 -33 -52c-2 -3.33301 -4.5 -7.83301 -7.5 -13.5s-4.5 -8.83398 -4.5 -9.50098l56 -57c8.66699 -8.66699 11.667 -15.834 9 -21.501s-7 -10.834 -13 -15.501
s-11.5 -9.33398 -16.5 -14.001s-5.5 -10 -1.5 -16c8 -12 17.833 -24.167 29.5 -36.5l35 -38.5c11.667 -13.333 22.167 -27 31.5 -41s15 -28.333 17 -43c2.66699 -17.333 0.333984 -37.166 -6.99902 -59.499s-17.666 -44.333 -30.999 -66s-28.5 -41.834 -45.5 -60.501
s-33.5 -33.5 -49.5 -44.5s-30.5 -16.667 -43.5 -17s-21.833 7.16699 -26.5 22.5z" />
    <glyph glyph-name="asciitilde" unicode="~" horiz-adv-x="531" 
d="M249 11c-18 10.667 -31.168 25.501 -39.501 44.501s-14.833 37.5 -19.5 55.5l-12 45.5c-3.33301 12.333 -9.16602 17.166 -17.499 14.499s-20.5 -15.167 -36.5 -37.5s-38.333 -59.166 -67 -110.499c-12 -4 -19.5 -1.5 -22.5 7.5s-2.66699 21.5 1 37.5s10 33.833 19 53.5
s19.667 38 32 55s25.5 31 39.5 42s27.833 16 41.5 15s26.667 -9.83301 39 -26.5s22.833 -44 31.5 -82c6 -28.667 14.5 -48.334 25.5 -59.001s23.667 -15.667 38 -15s29.833 6 46.5 16s34 21.333 52 34l55 38.5c18.667 13 36.667 23.167 54 30.5
c4 -6 2.16699 -15.333 -5.5 -28s-19 -26.167 -34 -40.5s-32.5 -28.5 -52.5 -42.5s-40.333 -25.833 -61 -35.5s-40.5 -16.167 -59.5 -19.5s-34.833 -1 -47.5 7z" />
    <glyph glyph-name="exclamdown" unicode="&#xa1;" horiz-adv-x="266" 
d="M15.9326 653.33c-5.30078 -7.18945 -5.79785 -14.9775 -1.49121 -23.3652s10.4355 -15.4277 18.3857 -21.1191c7.95117 -5.69141 15.9023 -8.6875 23.8525 -8.9873s13.251 4.04395 15.9014 13.0312s2.81641 18.2734 0.49707 27.8594s-6.29492 17.374 -11.9268 23.3652
s-12.4229 8.6875 -20.373 8.08887c-7.95117 -0.599609 -16.2334 -6.89062 -24.8457 -18.873zM72.5811 399.902c-1.3252 -3.59473 -0.662109 -12.582 1.98828 -26.9609s6.62598 -31.9033 11.9258 -52.5723c5.30078 -20.6699 11.9268 -43.5869 19.877 -68.75
s16.5635 -50.3262 25.8398 -75.4893s18.8838 -49.4277 28.8223 -72.7939c9.93848 -23.3652 19.7109 -43.7354 29.3184 -61.1104c9.60645 -17.374 18.8818 -30.5547 27.8262 -39.542c8.94434 -8.98633 17.0605 -11.9814 24.3486 -8.98633
c0.663086 2.99512 -0.496094 13.0303 -3.47754 30.1055s-7.45312 38.0449 -13.416 62.9092c-5.96387 24.8633 -13.0869 52.2734 -21.3691 82.2295s-16.8955 59.3125 -25.8398 88.0703s-18.3857 55.5684 -28.3242 80.4316
c-9.93848 24.8643 -19.5459 44.7852 -28.8223 59.7627c-9.27539 14.9775 -18.2197 23.3652 -26.833 25.1631s-15.9014 -5.69141 -21.8643 -22.4668z" />
    <glyph glyph-name="cent" unicode="&#xa2;" horiz-adv-x="559" 
d="M102 11c-34 11.333 -56.4961 28.999 -67.4961 52.999s-14 51.167 -9 81.5s16.5 62.333 34.5 96s39.333 65.834 64 96.501s50.667 58.334 78 83.001s53.166 43.334 77.499 56.001s45.166 17.667 62.499 15s28 -16 32 -40c2 -10.667 0.833008 -22.334 -3.5 -35.001
s-10.333 -24.834 -18 -36.501s-16.334 -22.334 -26.001 -32.001s-19 -16.834 -28 -21.501s-17 -6.33398 -24 -5.00098s-11.5 7 -13.5 17c8 13.333 17 26.833 27 40.5l29 38.5c-4 7.33301 -11.667 9 -23 5s-25 -12 -41 -24s-32.833 -27.167 -50.5 -45.5
s-34.834 -38.166 -51.501 -59.499s-31.5 -43.5 -44.5 -66.5s-22.5 -45.167 -28.5 -66.5s-7.5 -41.166 -4.5 -59.499s12.5 -33.166 28.5 -44.499c22 -2 47.333 0.166992 76 6.5s58 14.5 88 24.5s59.833 20.833 89.5 32.5l81 32.5c24.333 10 45 17.833 62 23.5
s28.167 7.16699 33.5 4.5c12.667 -6.66699 13.5 -16.334 2.5 -29.001s-29.5 -26.334 -55.5 -41.001s-56.833 -29.167 -92.5 -43.5s-71.5 -26.666 -107.5 -36.999s-70 -17.666 -102 -21.999s-57 -3.5 -75 2.5zM231.004 -44.001
c-1.33301 1.33301 -3.49805 4.83203 -6.49805 10.499s-4.83301 9.5 -5.5 11.5c0 5.33301 -0.833008 14.833 -2.5 28.5l-6 47l-7.5 55.5l-7.5 55c-2.33301 17.333 -4.16602 32.833 -5.49902 46.5s-1.66602 23.167 -0.999023 28.5c0 5.33301 0.666992 16.5 2 33.5
s2.66602 37 3.99902 60s3 47.667 5 74s3.66699 51 5 74s2.66602 43 3.99902 60s2 28.167 2 33.5c0 1.33301 0.5 5.5 1.5 12.5s2.33301 14.833 4 23.5s3.83398 17.667 6.50098 27s5.66699 16.666 9 21.999s7.16602 8 11.499 8s8.83301 -4.66699 13.5 -14
c-7.33301 -54 -13.833 -110.5 -19.5 -169.5s-8.83398 -118.667 -9.50098 -179s1.66602 -120.166 6.99902 -179.499s15.333 -115.666 30 -168.999c-5.33301 -9.33301 -11 -13.5 -17 -12.5s-11.667 5.16699 -17 12.5z" />
    <glyph glyph-name="sterling" unicode="&#xa3;" horiz-adv-x="332" 
d="M100 265c-5.33301 0.666992 -10.1699 1.16016 -14.5029 1.49316s-8.83301 0.833008 -13.5 1.5c-4.66699 -24.667 -8.16699 -48.5 -10.5 -71.5s-3.66602 -44.333 -3.99902 -64s0.333984 -37.167 2.00098 -52.5s4.5 -27 8.5 -35c7.33301 3.33301 21.666 7.5 42.999 12.5
s46.5 8 75.5 9s60.667 -1.5 95 -7.5s68.5 -18.333 102.5 -37c8.66699 -4.66699 7.33398 -7.16699 -3.99902 -7.5s-28.333 0.333984 -51 2.00098s-48.667 3.83398 -78 6.50098s-57.5 4.33398 -84.5 5.00098s-50.833 -0.166016 -71.5 -2.49902
s-33.334 -7.16602 -38.001 -14.499c-15.333 32 -24.833 71.167 -28.5 117.5s-2.5 94.833 3.5 145.5c-17.333 2.66699 -29.333 5.5 -36 8.5s-9.33398 5.83301 -8.00098 8.5s6.33301 5 15 7s19.667 3.66699 33 5c5.33301 35.333 12.833 70 22.5 104s21 65.5 34 94.5
s27.833 54.5 44.5 76.5s34.834 38.667 54.501 50s40.334 16.333 62.001 15s44.5 -10.666 68.5 -27.999l-29 -53c-24.667 24 -48 32.333 -70 25s-42.167 -24.5 -60.5 -51.5s-34.666 -61 -48.999 -102s-25.833 -83.5 -34.5 -127.5c20 0.666992 40.833 0.666992 62.5 0
s42 -2.16699 61 -4.5s35.5 -5.66602 49.5 -9.99902s23.667 -9.83301 29 -16.5c-6.66699 0 -18.667 -0.5 -36 -1.5s-35.5 -2.16699 -54.5 -3.5s-37.167 -2.5 -54.5 -3.5s-29.333 -1.5 -36 -1.5z" />
    <glyph glyph-name="currency" unicode="&#xa4;" horiz-adv-x="594" 
d="M130 112c-10.667 2 -16.5029 11.998 -17.5029 29.998s1.5 38.833 7.5 62.5s14.667 47.167 26 70.5s24.666 41.666 39.999 54.999c-9.33301 12 -20.666 23.5 -33.999 34.5s-25.833 22.5 -37.5 34.5s-21.167 24.667 -28.5 38s-9.66602 28.333 -6.99902 45
c12 0.666992 24.667 -3.83301 38 -13.5s26 -21.5 38 -35.5s22.667 -28.667 32 -44s15.666 -28.666 18.999 -39.999c10 17.333 23.833 30.833 41.5 40.5s36 16 55 19s37.5 2.5 55.5 -1.5s33 -11 45 -21c40 28 72.167 48.333 96.5 61s41.833 19.834 52.5 21.501
s15.334 -1.16602 14.001 -8.49902s-8 -16.666 -20 -27.999s-28.667 -23.5 -50 -36.5s-46 -24.5 -74 -34.5c4.66699 -12 6.66699 -25 6 -39s-3.5 -28.5 -8.5 -43.5s-11.667 -30 -20 -45s-17.5 -29.5 -27.5 -43.5c11.333 -6 23 -15 35 -27s22.833 -24.833 32.5 -38.5
s17.667 -27 24 -40s9.83301 -23.5 10.5 -31.5s-2 -12.167 -8 -12.5s-16.333 5.16699 -31 16.5c-6 10 -13.5 19.333 -22.5 28l-26.5 25c-8.66699 8 -16.667 16.167 -24 24.5s-12.666 17.5 -15.999 27.5c-6 -12 -16.167 -22.5 -30.5 -31.5s-30.166 -16.167 -47.499 -21.5
s-34.666 -8.83301 -51.999 -10.5s-32 -0.833984 -44 2.49902c-6 -6.66699 -14 -14.5 -24 -23.5l-31.5 -27c-11 -9 -21.5 -16.833 -31.5 -23.5s-17.833 -11 -23.5 -13s-8.33398 -0.666992 -8.00098 4s5.83301 14 16.5 28zM146.997 148.998
c0.666992 -4 2.33398 -7.33203 5.00098 -9.99902s5.33398 -4.66699 8.00098 -6s5.16699 -2.33301 7.5 -3s3.83301 -1.33398 4.5 -2.00098c12 -7.33301 26.667 -9.16602 44 -5.49902s35.166 11 53.499 22s36.333 24.5 54 40.5s33.167 33 46.5 51s23.5 35.667 30.5 53
s8.83301 32.666 5.5 45.999s-12.666 23.666 -27.999 30.999s-38.333 10 -69 8c-4 0.666992 -11.167 -2.16602 -21.5 -8.49902s-22 -15.333 -35 -27s-26.5 -25 -40.5 -40s-26.333 -31 -37 -48s-18.834 -34.167 -24.501 -51.5s-6.83398 -34 -3.50098 -50z" />
    <glyph glyph-name="yen" unicode="&#xa5;" horiz-adv-x="402" 
d="M75 248c3.33301 6.66699 10.166 12.6602 20.499 17.9932s22.666 10 36.999 14s30.333 7.33301 48 10s35.5 4.33398 53.5 5.00098c0.666992 6.66699 1.16699 13.334 1.5 20.001s0.5 13.334 0.5 20.001c-2.66699 6 -8.66699 16.167 -18 30.5l-33 50l-41 61.5l-42.5 64.5
c-13.667 21 -26 41 -37 60s-19.167 34.833 -24.5 47.5s-7 21.5 -5 26.5s9 4.5 21 -1.5c9.33301 -8.66699 21 -22.5 35 -41.5s28.5 -40.333 43.5 -64l46 -73l43.5 -67c13.333 -19.667 25 -35.334 35 -47.001s17.333 -15.834 22 -12.501c6.66699 13.333 16.5 34.5 29.5 63.5
l42.5 95l47.5 103c16.333 34.333 31.666 63.5 45.999 87.5s27 40.167 38 48.5s18.5 3.83301 22.5 -13.5c-7.33301 -12 -17.833 -33 -31.5 -63l-47 -108l-56.5 -138.5c-20 -50.333 -39.333 -101.5 -58 -153.5c33.333 -4 55.333 -14 66 -30
c-3.33301 -3.33301 -12.5 -6.66602 -27.5 -9.99902s-33.5 -6.66602 -55.5 -9.99902c-2.66699 -7.33301 -5 -14.333 -7 -21s-4.33301 -13.667 -7 -21h107c4 -2 7.5 -5.16699 10.5 -9.5s3.5 -9.16602 1.5 -14.499c-18 -2 -38.5 -4.83301 -61.5 -8.5l-71.5 -11.5
c-19.333 -62.667 -34.666 -119.834 -45.999 -171.501s-15.333 -93.167 -12 -124.5c-2 -6.66699 -5.16699 -13.167 -9.5 -19.5s-9.16602 -10.666 -14.499 -12.999s-10.833 -2 -16.5 1s-10.834 10.167 -15.501 21.5c-8 18.667 -11.667 39.334 -11 62.001
s3.83398 46.5 9.50098 71.5s13 51 22 78l26.5 82.5l-79.5 -14.5c-24.333 -4.33301 -44.166 -7.5 -59.499 -9.5c-12 -2 -20.5 -1.5 -25.5 1.5s-11.5 10.167 -19.5 21.5c-4.66699 6.66699 0 13 14 19s32 11.333 54 16s45.167 8.5 69.5 11.5l60.5 7.5
c1.33301 6.66699 2.83301 13 4.5 19s3.16699 12.333 4.5 19c-18 -1.33301 -35.5 -2.16602 -52.5 -2.49902s-32.5 0 -46.5 1s-25.5 2.83301 -34.5 5.5s-14.5 6.33398 -16.5 11.001z" />
    <glyph glyph-name="brokenbar" unicode="&#xa6;" horiz-adv-x="113" 
d="M28 403l2 54.002c0.666992 18.667 1.33398 36.167 2.00098 52.5s1.16699 30.5 1.5 42.5s0.5 20 0.5 24c0 1.33301 0.5 5.5 1.5 12.5s2.33301 14.833 4 23.5s3.66699 17.667 6 27s5.16602 16.666 8.49902 21.999s7.16602 8 11.499 8s8.83301 -4.66699 13.5 -14
c1.33301 -38.667 1.83301 -79.834 1.5 -123.501s-1.16602 -85.167 -2.49902 -124.5zM80 352.002c-1.33301 -34 -2.66699 -64.5 -4 -91.5l-4 -79c-1.33301 -25.667 -2.5 -52 -3.5 -79s-1.16699 -57.5 -0.5 -91.5c-4.66699 -8.66699 -10.167 -12.5 -16.5 -11.5
s-12.166 4.83301 -17.499 11.5c-1.33301 1.33301 -3.33301 5 -6 11s-4.33398 10 -5.00098 12c0 8.66699 -0.166992 23.667 -0.5 45s-0.5 44 -0.5 68s0.166992 46.667 0.5 68s0.5 36.333 0.5 45c0 4 0.166992 7.33301 0.5 10l1.5 12.5
c0.666992 5.66699 1.16699 13.5 1.5 23.5l1.5 43z" />
    <glyph glyph-name="section" unicode="&#xa7;" horiz-adv-x="604" 
d="M74 19c-8 5.33301 -8 12.335 0 21.002s20.5 18.334 37.5 29.001s36.833 21.667 59.5 33l65.5 32l55.5 26.5c16 7.66699 26 13.167 30 16.5c15.333 12.667 25.5 24 30.5 34s6.33301 18.5 4 25.5s-8.16602 13 -17.499 18s-20.333 9.16699 -33 12.5l-94 5
c-22 3.33301 -42.5 7.66602 -61.5 12.999s-33.167 12.333 -42.5 21s-12 19 -8 31s18 26.333 42 43l36.5 25.5l51.5 34.5c18.667 12 37.5 23.333 56.5 34s36.167 19 51.5 25l-69.5 11.5c-22.333 3.66699 -39.5 9 -51.5 16s-16.5 16 -13.5 27s17.5 25.5 43.5 43.5l41.5 29
l59 39c21 13.333 41.833 25.333 62.5 36s38 17.667 52 21c6.66699 1.33301 14 0.666016 22 -2.00098s14.333 -6.5 19 -11.5s6.83398 -10.333 6.50098 -16s-4.83301 -10.834 -13.5 -15.501l-110 -60c-35.333 -18.667 -70.333 -40.334 -105 -65.001
c-2.66699 -5.33301 -2.33398 -9.83301 0.999023 -13.5s7 -6.5 11 -8.5c64 -7.33301 113.667 -16.833 149 -28.5s59.333 -24.667 72 -39s16 -29.5 10 -45.5s-18 -32 -36 -48s-40 -31.5 -66 -46.5s-52.667 -28.5 -80 -40.5c33.333 -11.333 55.5 -24 66.5 -38
s14.167 -28.5 9.5 -43.5s-15.834 -30.5 -33.501 -46.5s-38.5 -31.167 -62.5 -45.5s-49.667 -27.5 -77 -39.5s-52.833 -22.333 -76.5 -31s-44.167 -14.667 -61.5 -18s-28.333 -3.66602 -33 -0.999023zM428 394.002c21.333 18.667 32.999 33.501 34.999 44.501
s-1 18.833 -9 23.5s-18.5 6.5 -31.5 5.5s-23.833 -3.83301 -32.5 -8.5l-108.5 -59.5c-35 -19 -70.167 -40.5 -105.5 -64.5c-3.33301 -7.33301 -2.16602 -12.833 3.50098 -16.5s12.667 -6.5 21 -8.5s17 -3.33301 26 -4s15.5 -1.33398 19.5 -2.00098l55.5 28.5l56 26.5
l45.5 21c12.667 6 21 10.667 25 14z" />
    <glyph glyph-name="dieresis" unicode="&#xa8;" horiz-adv-x="478" 
d="M110 426c-9.33301 14 -11.834 28.001 -7.50098 42.001s11.833 24.833 22.5 32.5s22.334 10.667 35.001 9s22.667 -10.834 30 -27.501c4 -10 3.33301 -20.5 -2 -31.5s-12.666 -20 -21.999 -27s-19.333 -10.833 -30 -11.5s-19.334 4 -26.001 14zM253.999 431.001
c-10 14 -12.6719 28.001 -8.00488 42.001s12.334 24.833 23.001 32.5s22.334 10.667 35.001 9s22.334 -10.834 29.001 -27.501c4 -10 3.33301 -20.5 -2 -31.5s-12.666 -20 -21.999 -27s-19.166 -10.833 -29.499 -11.5s-18.833 4 -25.5 14z" />
    <glyph glyph-name="copyright" unicode="&#xa9;" horiz-adv-x="682" 
d="M99 22c-34 24 -58.165 55.5029 -72.498 94.5029s-20.5 81.667 -18.5 128s11.333 94.166 28 143.499s38.5 96.333 65.5 141s58.667 85 95 121s75.166 63.833 116.499 83.5s84.5 29.167 129.5 28.5s90.167 -15.667 135.5 -45c34 -20.667 57.333 -49 70 -85
s17 -76.333 13 -121s-15.167 -91.167 -33.5 -139.5s-41.833 -94.833 -70.5 -139.5s-61.334 -85.5 -98.001 -122.5s-75.167 -66.333 -115.5 -88s-81.333 -33.334 -123 -35.001s-82.167 10.166 -121.5 35.499zM236.002 186.003c-24.667 8.66699 -41.168 21.834 -49.501 39.501
s-10.5 37.667 -6.5 60s12.5 46 25.5 71s28.5 49 46.5 72s37.167 43.667 57.5 62s39.333 32.166 57 41.499s32.834 13.166 45.501 11.499s20.667 -11.5 24 -29.5c2 -12 -0.666992 -25.333 -8 -40s-16.166 -27.167 -26.499 -37.5s-20.5 -17 -30.5 -20s-16.333 1.5 -19 13.5
l20.5 29.5l21.5 28.5c-3.33301 7.33301 -11.833 7.33301 -25.5 0s-28.834 -19 -45.501 -35s-33.5 -35 -50.5 -57s-30.833 -44.167 -41.5 -66.5s-16.334 -43.5 -17.001 -63.5s6.66602 -35.667 21.999 -47c19.333 -1.33301 42 1.33398 68 8.00098s52.167 14.834 78.5 24.501
s51.666 19.667 75.999 30s44.5 18.5 60.5 24.5c14.667 26 27.334 52 38.001 78s18.834 51 24.501 75s8.5 46.333 8.5 67s-3 39 -9 55c-10 46 -28 77 -54 93s-56 20.833 -90 14.5s-70.167 -22.166 -108.5 -47.499s-74.833 -56.333 -109.5 -93s-65.667 -77.167 -93 -121.5
s-47.333 -88.5 -60 -132.5s-16 -86.333 -10 -127s25.333 -75.667 58 -105c28.667 -21.333 59.334 -30.833 92.001 -28.5s65.334 12.833 98.001 31.5s64.167 43.667 94.5 75s58.166 65.666 83.499 102.999c-20 -9.33301 -41.833 -18.333 -65.5 -27s-47 -15.834 -70 -21.501
s-44.333 -9.5 -64 -11.5s-35.167 -1 -46.5 3z" />
    <glyph glyph-name="ordfeminine" unicode="&#xaa;" horiz-adv-x="429" 
d="M34.6855 198.874c-9.73633 8.04297 -15.1113 19.9102 -16.126 35.5928c-1.01367 15.6836 1.21777 33.3779 6.69434 53.083s13.5898 40.3145 24.3408 61.8291s23.2256 42.0234 37.4238 61.5273s29.6143 36.9971 46.2471 52.4795s33.2656 26.9434 49.8994 34.3828
c16.6328 7.43945 32.8604 10.0537 48.6816 7.8418s30.2227 -11.3604 43.2041 -27.4463c8.11426 -10.0537 12.9824 -20.208 14.6055 -30.4629c1.62207 -10.2549 1.41895 -20.7109 -0.609375 -31.3682s-5.27344 -21.5146 -9.73633 -32.5732l-13.083 -33.4785
c-4.25977 -11.2598 -7.70801 -22.7207 -10.3447 -34.3828s-3.14355 -23.5254 -1.52148 -35.5889c2.02832 -15.2822 8.9248 -24.3301 20.6895 -27.1445c11.7646 -2.81543 25.8623 -2.01172 42.293 2.41113c16.4297 4.42383 33.7725 11.4609 52.0283 21.1123
s35.1934 19.3027 50.8115 28.9541s28.5996 18.0957 38.9443 25.334l15.5176 10.8584c11.3584 2.41309 17.748 1.70898 19.168 -2.11133s-0.811523 -9.4502 -6.69336 -16.8896c-5.88281 -7.44043 -14.7061 -15.8857 -26.4707 -25.3359s-25.1523 -18.5986 -40.1631 -27.4453
c-15.0098 -8.84668 -31.0342 -16.8896 -48.0732 -24.1289c-17.0381 -7.23828 -33.6709 -12.1641 -49.8984 -14.7783s-31.542 -2.41309 -45.9434 0.603516c-14.4014 3.01562 -26.2676 10.1533 -35.5977 21.4141c-4.46289 4.8252 -7.80957 9.65039 -10.041 14.4756
s-5.78125 9.04785 -10.6494 12.668c-6.08496 -5.62988 -13.3867 -12.9688 -21.9053 -22.0166c-8.51953 -9.04785 -17.749 -18.0957 -27.6875 -27.1436c-9.93945 -9.04785 -20.4873 -17.5938 -31.6436 -25.6367c-11.1562 -8.04199 -22.6162 -14.0742 -34.3809 -18.0957
s-23.6309 -5.42871 -35.5986 -4.22266s-23.4287 6.43359 -34.3818 15.6826zM41.3789 219.387c3.65137 -12.8682 11.7705 -18.7988 24.3467 -17.7939c12.5752 1.00586 27.1797 7.13867 43.8125 18.3984c16.6338 11.2598 33.875 26.6416 51.7246 46.1455
c17.8506 19.5039 33.875 41.2197 48.0732 65.1465c14.1982 23.9277 25.0498 49.1621 32.5547 75.7031s9.43164 52.6797 5.78027 78.417c-9.73633 7.64062 -21.9072 7.94238 -36.5117 0.905273c-14.6045 -7.03809 -30.1221 -18.499 -46.5527 -34.3828
c-16.4297 -15.8848 -32.6572 -34.7852 -48.6816 -56.7021s-30.1221 -44.0352 -42.293 -66.3545c-12.1709 -22.3184 -21.4004 -43.3301 -27.6885 -63.0352s-7.80957 -35.1875 -4.56445 -46.4473z" />
    <glyph glyph-name="guillemotleft" unicode="&#xab;" horiz-adv-x="682" 
d="M396 11l-163.001 107.499c-54.667 35.667 -106 75.5 -154 119.5l-32.5 28.5c-11 9.66699 -19.667 19.5 -26 29.5s-9 20.5 -8 31.5s8.16699 22.5 21.5 34.5l27.5 24.5l42 38l49.5 44.5l49 44.5l41.5 38l27.5 24.5c3.33301 1.33301 8 1.33301 14 0s11.5 -3.5 16.5 -6.5
s8.33301 -6.83301 10 -11.5s-0.166016 -10 -5.49902 -16l-215 -214c-7.33301 -7.33301 -6.66602 -17 2.00098 -29s20 -24 34 -36s27.833 -22.667 41.5 -32s21.834 -15 24.501 -17l46.5 -31.5l71.5 -47.5l71.5 -47.5c22.333 -15 38.166 -25.167 47.499 -30.5
c6.66699 -8.66699 10.667 -17.167 12 -25.5s0.166016 -15.166 -3.50098 -20.499s-9.16699 -8.33301 -16.5 -9s-16 2.33301 -26 9zM593.999 37.999l-162.002 107.5c-54.667 35.667 -106 75.5 -154 119.5l-32.5 28.5c-11 9.66699 -19.5 19.5 -25.5 29.5s-8.5 20.333 -7.5 31
s8.16699 22 21.5 34l27.5 25l41.5 38.5l49 44.5l49 44.5l41.5 38l27.5 24.5c3.33301 1.33301 8 1.33301 14 0s11.5 -3.5 16.5 -6.5s8.33301 -6.83301 10 -11.5s-0.166016 -9.66699 -5.49902 -15l-215 -216c-4.66699 -4.66699 -5.66699 -10.5 -3 -17.5s7.5 -14.5 14.5 -22.5
s15.333 -16 25 -24s19 -15.333 28 -22l24 -17.5c7 -5 11.167 -7.83301 12.5 -8.5l27.5 -18.5l41.5 -28.5l49 -33.5l49.5 -33l42 -27.5l27.5 -18c6.66699 -8.66699 10.667 -17.167 12 -25.5s0.333008 -15 -3 -20s-8.66602 -7.83301 -15.999 -8.5s-16.333 2.33301 -27 9z" />
    <glyph glyph-name="logicalnot" unicode="&#xac;" horiz-adv-x="515" 
d="M470 165c-7.33301 -14 -14.667 -18.002 -22 -12.002s-14 17.833 -20 35.5s-10.5 39 -13.5 64s-3.83301 49.833 -2.5 74.5c-10 0.666992 -24.333 -0.166016 -43 -2.49902s-39.334 -4.66602 -62.001 -6.99902s-46.334 -4.5 -71.001 -6.5s-48 -2.66699 -70 -2
s-41.333 3.16699 -58 7.5s-28.334 11.5 -35.001 21.5c-4 5.33301 2.83301 11.5 20.5 18.5s40.834 13.333 69.501 19s60.334 10 95.001 13s67.334 3.5 98.001 1.5s56.667 -7 78 -15s33 -20.333 35 -37z" />
    <glyph glyph-name="registered" unicode="&#xae;" horiz-adv-x="682" 
d="M99 22c-34 24 -58.165 55.5029 -72.498 94.5029s-20.5 81.667 -18.5 128s11.333 94.166 28 143.499s38.5 96.333 65.5 141s58.667 85 95 121s75.166 63.833 116.499 83.5s84.5 29.167 129.5 28.5s90.167 -15.667 135.5 -45c34 -20.667 57.333 -49 70 -85
s17 -76.333 13 -121s-15.167 -91.167 -33.5 -139.5s-41.833 -94.833 -70.5 -139.5s-61.334 -85.5 -98.001 -122.5s-75.167 -66.333 -115.5 -88s-81.333 -33.334 -123 -35.001s-82.167 10.166 -121.5 35.499zM114.002 62.0029c26.667 -19.333 54.5 -28.834 83.5 -28.501
s58.333 7.5 88 21.5s58.667 33.833 87 59.5s54.833 54.5 79.5 86.5s46.834 66 66.501 102s35.5 71 47.5 105s19.667 66.167 23 96.5s0.666016 55.833 -8.00098 76.5c-10 46 -28 77 -54 93s-56 20.833 -90 14.5s-70.167 -22.166 -108.5 -47.499s-74.833 -56.333 -109.5 -93
s-65.667 -77.167 -93 -121.5s-47.333 -88.5 -60 -132.5s-16 -86.333 -10 -127s25.333 -75.667 58 -105zM136.002 159.002c-2.66699 6.66699 -0.837891 17.835 5.49512 33.502s15 33.667 26 54s23.167 41.5 36.5 63.5l37 61.5l28 48.5c7.33301 13.333 10.333 21.666 9 24.999
c-4 1.33301 -8.33301 1 -13 -1l-13.5 -6c-4.33301 -2 -8.66602 -3.16699 -12.999 -3.5s-8.16602 1.5 -11.499 5.5s-2.83301 7.83301 1.5 11.5s7.5 6.16699 9.5 7.5c54.667 35.333 105 60.166 151 74.499s84 20.833 114 19.5s50.167 -9.33301 60.5 -24
s7.16602 -33.5 -9.50098 -56.5s-48.667 -49.167 -96 -78.5s-113.666 -59 -198.999 -89c-2.66699 -5.33301 2.33301 -12 15 -20s28.5 -16.333 47.5 -25l60 -27.5c21 -9.66699 38.333 -19 52 -28s21.5 -17.5 23.5 -25.5s-6.33301 -14.667 -25 -20
c-0.666992 0 -5.66699 2 -15 6s-19.666 8.83301 -30.999 14.5l-32 15.5c-10 4.66699 -15.333 7.33398 -16 8.00098c-28 20.667 -51.5 33.167 -70.5 37.5s-34.667 3.83301 -47 -1.5s-22.166 -13.5 -29.499 -24.5s-13.833 -21.5 -19.5 -31.5s-11.167 -17.833 -16.5 -23.5
s-11.666 -5.83398 -18.999 -0.500977zM261.998 353.003c56 14.667 100.833 30.335 134.5 47.002s58.5 32.667 74.5 48s24.333 29.166 25 41.499s-3.83301 21.666 -13.5 27.999s-23.167 8.83301 -40.5 7.5s-36.5 -8 -57.5 -20s-42.333 -30.333 -64 -55s-41.167 -57 -58.5 -97
z" />
    <glyph glyph-name="degree" unicode="&#xb0;" horiz-adv-x="328" 
d="M66 425c-16.667 6.66699 -27.167 15.833 -31.5 27.5s-4.33301 24.167 0 37.5s11.666 27 21.999 41s22 27 35 39s26.167 21.833 39.5 29.5s25 12.167 35 13.5c33.333 4 57.333 0.833008 72 -9.5s22.167 -23.833 22.5 -40.5s-5.16699 -35 -16.5 -55
s-26.166 -37.5 -44.499 -52.5s-39.333 -26 -63 -33s-47.167 -6.16699 -70.5 2.5zM73 469.999c3.33301 -12.667 9.83496 -20.333 19.502 -23s20.834 -2 33.501 2s25.667 10.5 39 19.5s25.333 18.833 36 29.5s19.167 21.667 25.5 33s8.66602 21.166 6.99902 29.499
s-8.33398 14.5 -20.001 18.5s-29.834 4.33301 -54.501 1c-8.66699 -7.33301 -18.667 -14.166 -30 -20.499s-21.833 -13.5 -31.5 -21.5s-17.167 -17.333 -22.5 -28s-6 -24 -2 -40z" />
    <glyph glyph-name="plusminus" unicode="&#xb1;" horiz-adv-x="380" 
d="M45 42c-2.66699 2.66699 -0.829102 5.66992 5.50391 9.00293s15.666 7 27.999 11s26.833 7.83301 43.5 11.5s34 7.16699 52 10.5c-5.33301 19.333 -8.83301 39.166 -10.5 59.499s-3.5 38.833 -5.5 55.5h-113l-23 28c1.33301 1.33301 5 3.5 11 6.5s10 4.5 12 4.5
c4 0.666992 11.333 2.16699 22 4.5l34 7.5c12 2.66699 23.5 5 34.5 7s18.5 3.66699 22.5 5l22 157c0.666992 4 2.83398 7.16699 6.50098 9.5s7.5 3.5 11.5 3.5s7.66699 -1 11 -3s5 -5.33301 5 -10v-146c4 0 10.833 -0.5 20.5 -1.5s20 -2.16699 31 -3.5
s21.167 -2.5 30.5 -3.5s16 -1.83301 20 -2.5l11 -5.5c6 -3 9.66699 -5.16699 11 -6.5c-7.33301 -11.333 -16.833 -18.833 -28.5 -22.5s-23.834 -6.33398 -36.501 -8.00098s-24.5 -3.83398 -35.5 -6.50098s-18.833 -9 -23.5 -19
c-8.66699 -17.333 -11.334 -34.833 -8.00098 -52.5s6 -34.834 8 -51.501c22 2.66699 42.833 4.5 62.5 5.5s35.5 0.333008 47.5 -2s19 -6.5 21 -12.5s-3.33301 -14.333 -16 -25c-36 -4 -68.5 -9.5 -97.5 -16.5s-55.333 -12.333 -79 -16s-44.334 -4.66699 -62.001 -3
s-32.834 8.83398 -45.501 21.501z" />
    <glyph glyph-name="twosuperior" unicode="&#xb2;" horiz-adv-x="309" 
d="M20.7305 139.306c-4.59277 2.87012 -6.47559 5.875 -5.65625 9.00684c0.820312 3.13086 2.70703 6.13184 5.65918 9.00195l37.3965 33.8584c12.4658 10.8291 24.4395 21.8535 35.9209 33.0742s22.3887 22.8984 32.7217 35.0322s19.6006 25.2461 27.8018 39.3369
c4.26465 7.30566 5.98633 12.7852 5.16602 16.4385c-0.819336 3.65332 -3.2793 5.93652 -7.37988 6.84961s-9.26758 0.782227 -15.501 -0.392578c-6.23242 -1.17383 -12.7109 -2.73926 -19.4365 -4.69727c-6.72461 -1.95703 -13.2031 -3.97949 -19.4365 -6.06641
c-6.2334 -2.08789 -11.2363 -3.65332 -15.0088 -4.69727s-5.98633 -1.23926 -6.6416 -0.586914c-0.65625 0.652344 1.31152 2.80469 5.9043 6.45801c5.90527 5.47949 13.2041 10.3066 21.8975 14.4814c8.69238 4.1748 17.5498 7.24121 26.5713 9.19824
c9.02051 1.95703 17.5498 2.6748 25.5869 2.15332c8.03711 -0.522461 14.5977 -2.54492 19.6826 -6.06738s7.87305 -8.67578 8.36523 -15.46s-2.21387 -15.5254 -8.11914 -26.2236c-6.88867 -12.5254 -15.6641 -24.2031 -26.3252 -35.0322l-32.7227 -31.9004
l-32.4756 -31.5098c-10.4971 -10.5684 -18.8623 -21.9844 -25.0957 -34.249c5.24902 -1.30469 13.3682 -0.782227 24.3574 1.56641s23.373 5.47949 37.1504 9.39355l43.0557 12.1338c14.9268 4.1748 29.1963 7.43652 42.8096 9.78516
c13.6143 2.34863 25.6699 3.26172 36.167 2.73926c10.4971 -0.521484 18.042 -3.52246 22.6348 -9.00195c0.655273 -0.522461 0.983398 -2.02344 0.983398 -4.50293s-0.328125 -3.97949 -0.983398 -4.50098c-9.8418 1.30469 -21.6514 0.717773 -35.4297 -1.76172
c-13.7773 -2.47852 -28.457 -5.80566 -44.0391 -9.98145c-15.582 -4.1748 -31.4922 -8.67578 -47.7305 -13.5039c-16.2383 -4.82715 -31.7383 -8.80664 -46.5 -11.9375c-14.7627 -3.13184 -28.377 -4.82812 -40.8428 -5.08887s-22.6348 1.95703 -30.5078 6.6543z" />
    <glyph glyph-name="threesuperior" unicode="&#xb3;" horiz-adv-x="226" 
d="M13.0576 201.32c-0.762695 1.42871 -1.52344 3.03418 -2.28613 4.81934s-1.33496 3.48145 -1.7168 5.08887c-0.381836 1.60645 -0.318359 3.12402 0.19043 4.55273s1.78027 2.67871 3.81445 3.75c2.7959 1.07129 5.78223 1.33887 8.95898 0.802734
s6.48145 -1.42871 9.91309 -2.67773c3.43164 -1.25 6.7998 -2.41016 10.1045 -3.48145s6.48242 -1.42871 9.53223 -1.07227c5.33789 0.714844 13.0273 4.28613 23.0674 10.7129c10.041 6.42871 20.7168 14.374 32.0283 23.8369s22.3691 19.9082 33.1719 31.335
c10.8037 11.4268 19.5098 22.6758 26.1182 33.7461c6.60938 11.0693 10.168 21.1572 10.6758 30.2637c0.508789 9.10547 -3.8125 16.3369 -12.9629 21.6934c-4.5752 1.07129 -10.5488 0.446289 -17.9209 -1.875s-15.125 -5.17773 -23.2588 -8.57031l-24.4023 -10.1768
c-8.13379 -3.39258 -15.251 -5.53516 -21.3516 -6.42773s-10.7393 0.0898438 -13.916 2.94629c-3.17773 2.85645 -4.00391 8.74805 -2.47852 17.6748c3.30469 5.35645 7.81641 12.3203 13.5352 20.8906l17.54 27.585c5.97363 9.82031 11.6289 19.9082 16.9668 30.2646
c5.33789 10.3555 9.40527 20.3545 12.2012 29.9961l-5.91016 -2.14258l-14.4883 -5.08887c-5.71973 -1.96387 -11.6934 -3.66016 -17.9209 -5.08887s-11.7559 -2.14258 -16.585 -2.14258s-8.32422 1.07129 -10.4854 3.21387s-1.84375 5.89258 0.952148 11.249
c0.508789 1.07129 3.11426 3.66016 7.81641 7.7666s10.5488 8.48047 17.5391 13.123s14.4893 9.19531 22.4961 13.6592s15.5059 7.58789 22.4961 9.37305c6.99023 1.78613 12.7734 1.78613 17.3486 0c4.5752 -1.78516 6.99023 -6.42676 7.24414 -13.9258
c0.254883 -7.49902 -2.22363 -18.4795 -7.43457 -32.9414c-5.21094 -14.4629 -14.2988 -33.4785 -27.2627 -57.0459v-18.2129c20.335 2.14355 36.2217 0.804688 47.6602 -4.0166s19.2549 -11.9629 23.4492 -21.4258s5.21094 -20.4434 3.0498 -32.9424
c-2.16016 -12.499 -6.8623 -25.3545 -14.1074 -38.5664c-7.24414 -13.2119 -16.5225 -26.1562 -27.834 -38.833s-24.0215 -23.6572 -38.1299 -32.9414c-14.1074 -9.28418 -29.1045 -16.3369 -44.9912 -21.1582s-31.9639 -6.16016 -48.2324 -4.0166
c-0.508789 0.356445 -1.27148 1.33789 -2.28809 2.94434s-1.65234 2.76758 -1.90625 3.48242z" />
    <glyph glyph-name="acute" unicode="&#xb4;" horiz-adv-x="233" 
d="M85 430c-22 -16 -37.501 -24.001 -46.501 -24.001s-13 4.83301 -12 14.5s6 22.167 15 37.5s20.333 30.333 34 45s28.834 27 45.501 37s33 14.667 49 14c4 -20 3.83301 -34.667 -0.5 -44s-11 -17.166 -20 -23.499s-19.5 -13.333 -31.5 -21s-23 -19.5 -33 -35.5z" />
    <glyph glyph-name="mu" unicode="&#xb5;" horiz-adv-x="401" 
d="M197 -192c-10.667 60 -23.502 115.504 -38.502 166.504s-30.333 97.667 -46 140l-44 114c-13.667 33.667 -24.5 63 -32.5 88s-12.333 45.333 -13 61s4.33301 27.167 15 34.5c6 -6.66699 15.833 -20.334 29.5 -41.001l47.5 -70.5l57.5 -82.5
c20.333 -28.667 40.333 -54.167 60 -76.5s38 -39.666 55 -51.999s31.167 -15.5 42.5 -9.5c3.33301 15.333 1.66602 33.166 -5.00098 53.499s-15.667 41.5 -27 63.5s-23.333 44.167 -36 66.5s-23 43.166 -31 62.499s-12.667 36.666 -14 51.999s4 26.666 16 33.999
c4.66699 -4.66699 11.834 -14.667 21.501 -30s20.167 -33.5 31.5 -54.5s22.833 -43.833 34.5 -68.5s21.834 -48.5 30.501 -71.5s15.334 -44.167 20.001 -63.5s5.66699 -34 3 -44c-7.33301 -30 -18 -47.667 -32 -53s-29.333 -3.66602 -46 5.00098
s-33.834 22.167 -51.501 40.5l-50.5 54c-16 17.667 -30 32.334 -42 44.001s-20.333 15.5 -25 11.5c-2 -11.333 0.5 -27.833 7.5 -49.5s15.833 -45.334 26.5 -71.001l34 -80c12 -27.667 22 -53.334 30 -77.001s12.833 -44 14.5 -61s-2.16602 -27.833 -11.499 -32.5z" />
    <glyph glyph-name="paragraph" unicode="&#xb6;" horiz-adv-x="559" 
d="M191 -38c-0.666992 0.666992 -0.996094 2.16699 -0.996094 4.5s0.333008 4.16602 1 5.49902c4 8 11.333 21.667 22 41l34 61l34 61l23 41c6.66699 12.667 13.167 24.334 19.5 35.001s13.666 24.334 21.999 41.001l32 65l51.5 107c-31.333 -3.33301 -54.666 -2 -69.999 4
c-6.66699 -19.333 -17.334 -45.5 -32.001 -78.5s-31.167 -68 -49.5 -105l-57.5 -111c-20 -37 -39 -69.5 -57 -97.5s-33.833 -49.333 -47.5 -64s-23.5 -18 -29.5 -10c-2 11.333 -1.16699 24.166 2.5 38.499s8.66699 29 15 44s13 29.5 20 43.5l18.5 37
c4 7.33301 10.667 20.666 20 39.999l30.5 62.5c11 22.333 21.167 44 30.5 65s16 36.5 20 46.5c-17.333 6 -35.166 7.5 -53.499 4.5s-35.333 -5 -51 -6s-28.834 1.16699 -39.501 6.5s-17 19.333 -19 42c-2.66699 38.667 9.66602 69.667 36.999 93s63.166 38.833 107.499 46.5
s93.666 7.66699 147.999 0s106.833 -22.5 157.5 -44.5c-4 -9.33301 -11.167 -25.166 -21.5 -47.499l-37 -78l-47 -96c-17 -34.333 -34.667 -68 -53 -101s-36.5 -64 -54.5 -93s-35.167 -53.167 -51.5 -72.5s-30.833 -32.333 -43.5 -39s-23 -4 -31 8z" />
    <glyph glyph-name="periodcentered" unicode="&#xb7;" horiz-adv-x="322" 
d="M156 218c-8.66699 13.333 -13.001 26.998 -13.001 40.998s3 26.833 9 38.5s13.833 21.334 23.5 29.001s19.834 12.334 30.501 14.001s21 -0.666016 31 -6.99902s18 -17.5 24 -33.5c5.33301 -14.667 4.5 -29.834 -2.5 -45.501s-16.667 -28.5 -29 -38.5
s-25.5 -15.667 -39.5 -17s-25.333 5 -34 19z" />
    <glyph glyph-name="cedilla" unicode="&#xb8;" horiz-adv-x="242" 
d="M52 -158c-3.33301 9.33301 -0.166992 15.8311 9.5 19.498s21.334 6.5 35.001 8.5s27.167 4.5 40.5 7.5s22 8.5 26 16.5c4 8.66699 4.66699 14.834 2 18.501s-7.33398 6.5 -14.001 8.5s-14.167 3.33301 -22.5 4s-16.166 2 -23.499 4s-13.333 5.16699 -18 9.5
s-6.33398 10.833 -5.00098 19.5c-2.66699 14.667 -3.66699 28.334 -3 41.001s2.5 21.667 5.5 27s7 5.5 12 0.5s10.5 -17.5 16.5 -37.5c4 -12.667 13 -21.334 27 -26.001s27.833 -8.66699 41.5 -12s24.834 -8 33.501 -14s10 -16.333 4 -31
c-1.33301 -5.33301 -7.66602 -13.666 -18.999 -24.999s-25 -22 -41 -32s-32.833 -17.333 -50.5 -22s-32.834 -3.33398 -45.501 3.99902c-1.33301 0.666992 -3.33301 2.33398 -6 5.00098s-4.33398 4.66699 -5.00098 6z" />
    <glyph glyph-name="onesuperior" unicode="&#xb9;" horiz-adv-x="198" 
d="M13.0527 165.264c-6.97949 5.69434 -10.0039 13.4805 -9.07324 23.3506c0.930664 9.87109 3.48926 20.1211 7.67676 30.751c4.18848 10.6299 8.8418 20.501 13.96 29.6123s8.84082 15.5654 11.167 19.3613c1.39551 3.03711 4.30371 9.0166 8.72461 17.9375
l15.7031 31.3203l18.8447 37.8691l18.8438 37.8691l15.7041 31.3203c4.41992 8.9209 7.32812 14.9004 8.72363 17.9375c0.930664 2.27832 2.20996 5.97949 3.83789 11.1045c1.62891 5.125 3.60645 10.4404 5.93262 15.9453c2.32715 5.50488 4.88672 10.8193 7.67871 15.9443
s6.04883 8.92188 9.77051 11.3896c3.72266 2.46777 7.91016 3.13184 12.5635 1.99316c4.65234 -1.13965 9.77051 -5.12598 15.3545 -11.959c0.464844 -0.379883 -1.28027 -5.2207 -5.23438 -14.5225l-16.0527 -37.0146l-23.0322 -52.3896l-26.8701 -59.793
l-27.5693 -59.7939l-24.4277 -52.3896c-7.21191 -15.376 -13.2607 -27.8096 -18.1465 -37.3008s-7.79395 -14.4268 -8.72461 -14.8066s-3.37305 0.189453 -7.32812 1.70801s-6.63086 3.03711 -8.02637 4.55566z" />
    <glyph glyph-name="ordmasculine" unicode="&#xba;" horiz-adv-x="328" 
d="M66 425c-16.667 6.66699 -27.167 15.833 -31.5 27.5s-4.33301 24.167 0 37.5s11.666 27 21.999 41s22 27 35 39s26.167 21.833 39.5 29.5s25 12.167 35 13.5c33.333 4 57.333 0.833008 72 -9.5s22.167 -23.833 22.5 -40.5s-5.16699 -35 -16.5 -55
s-26.166 -37.5 -44.499 -52.5s-39.333 -26 -63 -33s-47.167 -6.16699 -70.5 2.5zM73 469.999c3.33301 -12.667 9.83496 -20.333 19.502 -23s20.834 -2 33.501 2s25.667 10.5 39 19.5s25.333 18.833 36 29.5s19.167 21.667 25.5 33s8.66602 21.166 6.99902 29.499
s-8.33398 14.5 -20.001 18.5s-29.834 4.33301 -54.501 1c-8.66699 -7.33301 -18.667 -14.166 -30 -20.499s-21.833 -13.5 -31.5 -21.5s-17.167 -17.333 -22.5 -28s-6 -24 -2 -40z" />
    <glyph glyph-name="guillemotright" unicode="&#xbb;" horiz-adv-x="589" 
d="M39 23c-6.66699 12.667 -5.33398 26.9961 3.99902 42.9961s22.666 33 39.999 51s36.666 36.667 57.999 56s41 38.5 59 57.5s32.5 37.667 43.5 56s14.5 35.833 10.5 52.5c-0.666992 1.33301 -7 6.83301 -19 16.5l-43.5 35.5l-55.5 45.5
c-20 16.333 -38.167 32.166 -54.5 47.499s-29.666 29.333 -39.999 42s-14.833 22 -13.5 28c0.666992 2.66699 3.83398 6.83398 9.50098 12.501s9.83398 8.83398 12.501 9.50098c14 -10.667 32.167 -23.167 54.5 -37.5l68.5 -46
c23.333 -16.333 45.666 -33.666 66.999 -51.999s38.333 -37.333 51 -57s19.5 -40 20.5 -61s-7.16699 -41.833 -24.5 -62.5l-23 -28.5l-33.5 -40.5l-38 -45l-37 -43.5l-30.5 -36l-18 -21.5c-1.33301 -2 -4.16602 -5.16699 -8.49902 -9.5l-13.5 -13.5l-13.5 -13.5
c-4.33301 -4.33301 -7.5 -7.16602 -9.5 -8.49902c-2 1.33301 -6 4.83301 -12 10.5s-9.66699 9.83398 -11 12.501zM258 28.9961c-6.66699 12.667 -5.49805 27.002 3.50195 43.002s22.167 33 39.5 51s36.833 36.5 58.5 55.5s41.5 38.167 59.5 57.5s32.333 38.166 43 56.499
s14 35.833 10 52.5c-0.666992 1.33301 -6.83398 6.83301 -18.501 16.5l-43.5 35l-55.5 45c-19.667 16.333 -37.834 32.166 -54.501 47.499s-30.167 29.333 -40.5 42s-14.833 22 -13.5 28c0 3.33301 3 7.83301 9 13.5s10.667 8.83398 14 9.50098c14 -11.333 32 -24 54 -38
l68 -45.5c23.333 -16.333 45.666 -33.833 66.999 -52.5s38.5 -37.834 51.5 -57.501s20 -39.834 21 -60.501s-7.16699 -41.334 -24.5 -62.001l-23.5 -28l-33.5 -40l-38 -46l-37 -44.5l-30 -36l-18 -21.5c-2 -2 -5.16699 -5 -9.5 -9l-14 -13l-14 -13.5
c-4.33301 -4.33301 -7.5 -7.16602 -9.5 -8.49902c-2 1.33301 -5.66699 4.83301 -11 10.5s-8.66602 9.83398 -9.99902 12.501z" />
    <glyph glyph-name="onequarter" unicode="&#xbc;" horiz-adv-x="674" 
d="M40.1641 168.417c-6.1582 4.92383 -8.82617 11.6553 -8.00488 20.1914s3.0791 17.3994 6.77344 26.5908c3.69531 9.19238 7.80078 17.7285 12.3174 25.6074c4.51562 7.87891 7.7998 13.46 9.85352 16.7422c1.23145 2.62598 3.79688 7.79688 7.69629 15.5117
l13.8574 27.084l16.627 32.7461l16.6279 32.7471l13.8564 27.084c3.90039 7.71387 6.4668 12.8838 7.69824 15.5098c0.821289 1.96973 1.9502 5.1709 3.3877 9.60254c1.43652 4.43262 3.18164 9.02832 5.23438 13.7881c2.05273 4.76074 4.31055 9.35645 6.77441 13.7881
c2.46289 4.43262 5.33691 7.71582 8.62207 9.84961c3.28418 2.13379 6.97949 2.70801 11.0859 1.72266c4.10547 -0.985352 8.62109 -4.43262 13.5479 -10.3418c0.411133 -0.328125 -1.12793 -4.51367 -4.61719 -12.5566l-14.165 -32.0088l-20.3223 -45.3037l-23.71 -51.7051
l-24.3262 -51.7051l-21.5547 -45.3037c-6.36426 -13.2959 -11.7012 -24.0479 -16.0117 -32.2559c-4.31152 -8.20703 -6.87793 -12.4746 -7.69922 -12.8027s-2.97656 0.164062 -6.46582 1.47754c-3.49023 1.31348 -5.85156 2.62695 -7.08301 3.94043zM127.865 30.8467
c-3.28027 24.9766 -2.32617 55.043 2.86816 90.2061c5.19434 35.1641 13.2598 72.6279 24.1953 112.393s23.7852 80.6797 38.5488 122.745s29.9375 82.8164 45.5205 122.253l45.1104 110.913l38.1396 88.2383c6.01465 4.60059 10.9355 5.58691 14.7627 2.95801
s6.83496 -6.7373 9.02246 -12.3242c2.18652 -5.58691 3.55371 -11.8311 4.10059 -18.7324s0.546875 -12.3242 0 -16.2676l-16.8135 -44.3652l-25.0156 -67.042l-25.0166 -67.041c-7.92871 -21.0322 -13.2598 -35.8203 -15.9932 -44.3643
c-2.73438 -6.57324 -6.69824 -17.9111 -11.8926 -34.0137l-16.8145 -50.7744l-16.8135 -50.2803c-5.19434 -15.7744 -8.6123 -26.6191 -10.2529 -32.5342c-2.7334 -9.20215 -6.01367 -23.1689 -9.84082 -41.9004c-3.82715 -18.7324 -8.20117 -38.7793 -13.1221 -60.1406
c-4.9209 -21.3604 -10.1152 -42.0645 -15.583 -62.1113s-11.209 -35.9854 -17.2236 -47.8164c-1.64062 -1.97168 -3.82812 -4.10742 -6.56152 -6.40723c-2.73438 -2.2998 -5.46875 -3.94336 -8.20215 -4.92969c-2.7334 -0.985352 -5.46777 -0.65625 -8.20215 0.987305
c-2.7334 1.64355 -4.37402 5.09375 -4.9209 10.3516zM319.867 22.751c-2.7168 10.5977 -1.9375 21.2656 2.33203 32.0186s9.12109 21.4277 14.5547 32.0254c5.43457 10.5977 10.1895 21.1172 14.2646 31.5586s4.56055 20.8047 1.45508 31.0898
c-7.7627 0.935547 -16.6895 0.390625 -26.7812 -1.63574s-20.4746 -4.59766 -31.1484 -7.71387l-32.3135 -9.35156c-10.8682 -3.11621 -21.3477 -5.21973 -31.4395 -6.31055s-19.3105 -0.701172 -27.6553 1.16895s-15.4287 6.2334 -21.251 13.0898
c-5.0459 6.2334 -7.08398 13.3242 -6.11426 21.2725c0.970703 7.94824 3.88184 16.5195 8.7334 25.7148c4.85254 9.19434 10.9658 18.7783 18.3398 28.752l22.415 29.4541c7.56934 9.66211 14.5557 19.0127 20.96 28.0518s11.1592 17.4551 14.2646 25.2471
c8.92676 1.87012 15.4277 1.94824 19.5029 0.234375s6.4043 -4.51953 6.98633 -8.41602c0.583008 -3.89551 -0.193359 -8.49316 -2.32812 -13.792c-2.13477 -5.29785 -4.75488 -10.5967 -7.86035 -15.8955s-6.21094 -10.2861 -9.31543 -14.9609l-6.98633 -10.7529
c-1.94043 -2.49316 -5.0459 -7.0127 -9.31543 -13.5586l-13.6826 -20.5713l-13.9727 -20.5713c-4.46387 -6.5459 -7.47168 -11.0654 -9.02441 -13.5586v-10.7529c9.31543 -0.935547 19.2129 -0.702148 29.6934 0.701172c10.4795 1.40234 20.8623 3.27246 31.1484 5.61035
c10.2852 2.33691 20.377 4.9082 30.2744 7.71387s18.9219 5.14355 27.0732 7.01367c19.0186 4.36426 34.2529 10.9102 45.7031 19.6377s20.96 18.9355 28.5293 30.624s14.0703 24.5459 19.5039 38.5723c5.43457 14.0264 11.6445 28.5195 18.6309 43.4805
c8.92676 2.18164 14.5547 1.16895 16.8838 -3.03906s2.7168 -10.208 1.16406 -18s-4.56055 -16.7529 -9.02441 -26.8828l-13.3906 -29.2207l-11.6445 -25.0127c-3.2998 -7.3252 -4.75488 -12.0781 -4.36621 -14.2598c6.59863 1.87012 13.0996 1.94824 19.5039 0.234375
s10.9648 -5.21973 13.6816 -10.5176c-2.3291 -4.36426 -6.11328 -7.3252 -11.3525 -8.88379c-5.24023 -1.55762 -10.7715 -2.95996 -16.5938 -4.20703c-5.82227 -1.24609 -11.5469 -2.72656 -17.1748 -4.44141c-5.62793 -1.71387 -10.1885 -4.75293 -13.6816 -9.11621
c-8.15137 -10.2861 -15.1377 -21.0391 -20.959 -32.2598c-5.82227 -11.2207 -11.0625 -22.7529 -15.7197 -34.5967c-4.6582 -11.8447 -8.7334 -23.7666 -12.2266 -35.7666l-10.4805 -34.8311c-2.7168 -0.623047 -6.50098 -0.701172 -11.3525 -0.233398
c-4.85254 0.467773 -7.66699 2.41602 -8.44336 5.84473z" />
    <glyph glyph-name="onehalf" unicode="&#xbd;" horiz-adv-x="569" 
d="M8.4668 167.694c-4.98535 5.17676 -7.14648 12.252 -6.48145 21.2256s2.49316 18.292 5.48438 27.9551c2.99121 9.66406 6.31445 18.6377 9.96973 26.9209c3.65625 8.2832 6.31543 14.1504 7.97656 17.6016c0.99707 2.76074 3.07422 8.19629 6.23145 16.3066
l11.2168 28.4736l13.4609 34.4268l13.46 34.4268l11.2168 28.4736c3.15723 8.11035 5.23438 13.5459 6.23145 16.3066c0.665039 2.07129 1.5791 5.43652 2.74219 10.0957s2.57617 9.49121 4.23828 14.4961c1.66113 5.00488 3.48926 9.83691 5.4834 14.4961
s4.32031 8.11035 6.97949 10.3535s5.65039 2.84766 8.97363 1.8125c3.32324 -1.03613 6.97949 -4.66016 10.9678 -10.8721c0.332031 -0.344727 -0.914062 -4.74512 -3.73926 -13.2012l-11.4658 -33.6504l-16.4521 -47.6289l-19.1934 -54.3584l-19.6924 -54.3584
l-17.4482 -47.6289c-5.15137 -13.9775 -9.47168 -25.2803 -12.9609 -33.9082s-5.56641 -13.1143 -6.23145 -13.459c-0.664062 -0.344727 -2.40918 0.172852 -5.23438 1.55273c-2.8252 1.38086 -4.73633 2.76172 -5.7334 4.1416zM64.9863 7.15527
c-3.12793 25.6904 -2.21875 56.6201 2.73438 92.79c4.95215 36.1689 12.6426 74.7051 23.0703 115.607c10.4268 40.9014 22.6787 82.9863 36.7559 126.255s28.5449 85.1846 43.4033 125.748l43.0117 114.087l36.3652 90.7617
c5.73535 4.73242 10.4277 5.74609 14.0771 3.04199s6.5166 -6.92969 8.60156 -12.6758c2.08496 -5.74707 3.38867 -12.1699 3.91016 -19.2686s0.521484 -12.6758 0 -16.7324l-16.0322 -45.6348l-23.8525 -68.958l-23.8516 -68.959
c-7.55957 -21.6338 -12.6426 -36.8457 -15.249 -45.6348c-2.60645 -6.76074 -6.38672 -18.4229 -11.3398 -34.9863l-16.0322 -52.2256l-16.0312 -51.7197c-4.95312 -16.2256 -8.21191 -27.3809 -9.77539 -33.4658c-2.60645 -9.46484 -5.73438 -23.8311 -9.38379 -43.0996
c-3.64941 -19.2676 -7.82031 -39.8877 -12.5127 -61.8594c-4.69238 -21.9727 -9.64551 -43.2686 -14.8594 -63.8887s-10.6885 -37.0146 -16.4238 -49.1836c-1.56348 -2.02832 -3.64844 -4.22559 -6.25488 -6.5918s-5.21289 -4.05664 -7.81934 -5.07031
c-2.60645 -1.01465 -5.21289 -0.676758 -7.81934 1.01367s-4.1709 5.24023 -4.69238 10.6494zM157.256 45.7217c-5.28711 3.81445 -7.46094 7.80371 -6.5166 11.9648s3.11621 8.14941 6.51465 11.9639l43.0518 44.9922c14.3506 14.3906 28.1348 29.041 41.3525 43.9512
c13.2178 14.9111 25.7744 30.4287 37.6699 46.5527c11.8955 16.125 22.5635 33.5498 32.0039 52.2744c4.90918 9.70996 6.8916 16.9922 5.94727 21.8467s-3.77637 7.88867 -8.49707 9.10254s-10.6689 1.04102 -17.8438 -0.519531s-14.6338 -3.6416 -22.376 -6.24219
c-7.74121 -2.60059 -15.1992 -5.28809 -22.374 -8.0625s-12.9336 -4.85547 -17.2764 -6.24316c-4.34277 -1.38672 -6.8916 -1.64648 -7.64648 -0.780273c-0.754883 0.867188 1.51074 3.72754 6.79785 8.58203c6.79785 7.28223 15.2002 13.6973 25.208 19.2451
c10.0068 5.54785 20.2031 9.62207 30.5889 12.2227s20.2041 3.55469 29.4561 2.86133c9.25293 -0.694336 16.8057 -3.38184 22.6592 -8.0625s9.06348 -11.5293 9.62988 -20.5459c0.566406 -9.01562 -2.54883 -20.6318 -9.34668 -34.8486
c-7.93066 -16.6445 -18.0322 -32.1621 -30.3057 -46.5527l-37.6709 -42.3916l-37.3867 -41.8721c-12.085 -14.0439 -21.7148 -29.2148 -28.8896 -45.5127c6.04199 -1.73438 15.3887 -1.04102 28.04 2.08008s26.9072 7.28223 42.7686 12.4834l49.5654 16.124
c17.1826 5.54785 33.6104 9.88281 49.2832 13.0039c15.6719 3.12109 29.5498 4.33496 41.6348 3.64062c12.085 -0.693359 20.7705 -4.68066 26.0576 -11.9629c0.754883 -0.693359 1.13281 -2.6875 1.13281 -5.98145s-0.37793 -5.28809 -1.13281 -5.98145
c-11.3291 1.7334 -24.9238 0.953125 -40.7842 -2.34082c-15.8613 -3.29395 -32.7607 -7.71484 -50.6992 -13.2627s-36.2539 -11.5293 -54.9473 -17.9443s-36.5371 -11.7031 -53.5312 -15.8643s-32.666 -6.41504 -47.0166 -6.76172s-26.0576 2.60059 -35.1211 8.8418z" />
    <glyph glyph-name="threequarters" unicode="&#xbe;" horiz-adv-x="674" 
d="M14.5479 196.55c-0.865234 1.57129 -1.73047 3.33691 -2.59668 5.30078c-0.865234 1.96387 -1.51367 3.8291 -1.94629 5.59668s-0.360352 3.43652 0.216797 5.00684c0.577148 1.57129 2.01953 2.94629 4.32715 4.12402c3.17285 1.17871 6.5625 1.47363 10.1689 0.884766
c3.60547 -0.588867 7.35547 -1.57031 11.249 -2.94434c3.89453 -1.375 7.7168 -2.65137 11.4668 -3.8291c3.74902 -1.17871 7.35449 -1.57129 10.8164 -1.17871c6.05762 0.786133 14.7832 4.71387 26.1768 11.7832s23.5088 15.8076 36.3457 26.2148
c12.8359 10.4072 25.3838 21.8945 37.6426 34.4619s22.1387 24.9385 29.6387 37.1133c7.49902 12.1748 11.5371 23.2695 12.1143 33.2842s-4.32715 17.9678 -14.7119 23.8594c-5.19238 1.17871 -11.9707 0.491211 -20.335 -2.06152
c-8.36523 -2.55273 -17.1631 -5.69434 -26.3936 -9.42578l-27.6914 -11.1934c-9.23047 -3.73145 -17.3076 -6.08789 -24.2305 -7.06934s-12.1875 0.0986328 -15.7939 3.24023c-3.60547 3.1416 -4.54297 9.62207 -2.81152 19.4404
c3.74902 5.8916 8.86914 13.5498 15.3594 22.9756l19.9033 30.3389c6.77832 10.7998 13.1963 21.8945 19.2539 33.2842s10.6729 22.3867 13.8457 32.9912l-6.70605 -2.35645l-16.4414 -5.59668c-6.49023 -2.16016 -13.2686 -4.02539 -20.3359 -5.59668
s-13.3418 -2.35645 -18.8232 -2.35645c-5.48047 0 -9.44629 1.17773 -11.8984 3.53418s-2.0918 6.48047 1.08105 12.3721c0.577148 1.17773 3.53418 4.02539 8.87109 8.54199c5.33594 4.5166 11.9707 9.32812 19.9033 14.4346
c7.93262 5.10547 16.4414 10.1123 25.5273 15.0215c9.08691 4.90918 17.5967 8.3457 25.5293 10.3096s14.4951 1.96387 19.6875 0s7.93262 -7.06934 8.2207 -15.3164c0.288086 -8.24805 -2.52441 -20.3252 -8.4375 -36.2305
c-5.91309 -15.9062 -16.2256 -36.8193 -30.9365 -62.7402v-20.0303c23.0762 2.35645 41.1045 0.883789 54.085 -4.41797c12.9795 -5.30176 21.8496 -13.1562 26.6094 -23.5635c4.75879 -10.4072 5.91211 -22.4844 3.45996 -36.2305s-7.78809 -27.8848 -16.0088 -42.416
s-18.749 -28.7686 -31.585 -42.7109c-12.8369 -13.9424 -27.2598 -26.0195 -43.2686 -36.2314c-16.0088 -10.2109 -33.0273 -17.9678 -51.0557 -23.2695s-36.2734 -6.77441 -54.7344 -4.41797c-0.577148 0.392578 -1.44238 1.47266 -2.5957 3.24023
c-1.15332 1.7666 -1.87402 3.04297 -2.16211 3.8291zM138.668 17.2568c-2.72461 25.9287 -1.93164 57.1484 2.38184 93.6533c4.31445 36.5049 11.0137 75.3984 20.0967 116.68c9.08301 41.2803 19.7549 83.7549 32.0166 127.424s24.8643 85.9736 37.8076 126.914
l37.4668 115.144l31.6758 91.6035c4.99512 4.77637 9.08203 5.7998 12.2607 3.07031s5.67676 -6.99414 7.49414 -12.7939c1.81641 -5.7998 2.95117 -12.2822 3.40527 -19.4473s0.454102 -12.7939 0 -16.8877l-13.9648 -46.0576l-20.7764 -69.5977l-20.7773 -69.5977
c-6.58496 -21.835 -11.0127 -37.1875 -13.2832 -46.0576c-2.27051 -6.82324 -5.56348 -18.5938 -9.87793 -35.3105l-13.9648 -52.7109l-13.9648 -52.1982c-4.31445 -16.376 -7.15332 -27.6348 -8.51562 -33.7764c-2.27051 -9.55273 -4.99512 -24.0527 -8.17383 -43.499
s-6.81152 -40.2568 -10.8984 -62.4326s-8.40137 -43.6689 -12.9434 -64.4805s-9.31055 -37.3584 -14.3057 -49.6406c-1.3623 -2.04785 -3.17871 -4.26562 -5.44922 -6.65332s-4.54102 -4.09375 -6.81152 -5.11719s-4.54102 -0.682617 -6.81152 1.02344
s-3.63281 5.28809 -4.08691 10.7471zM326.577 21.4844c-2.58887 13.2881 -1.85156 26.6748 2.21777 40.1582c4.06836 13.4834 8.69141 26.8691 13.8701 40.1572s9.70996 26.4785 13.5938 39.5713s4.3457 26.0879 1.38672 38.9854
c-7.39746 1.17285 -15.9043 0.489258 -25.5215 -2.05078c-9.61621 -2.54004 -19.5098 -5.76465 -29.6807 -9.67285l-30.792 -11.7256c-10.3564 -3.9082 -20.3428 -6.5459 -29.959 -7.91406s-18.4004 -0.879883 -26.3525 1.46484s-14.7021 7.81641 -20.25 16.415
c-4.80859 7.81641 -6.75098 16.708 -5.82617 26.6738s3.69922 20.7139 8.32227 32.2432c4.62402 11.5293 10.4492 23.5469 17.4766 36.0537l21.3604 36.9336c7.21191 12.1162 13.8691 23.8408 19.9717 35.1748c6.10352 11.334 10.6348 21.8867 13.5928 31.6572
c8.50684 2.34473 14.7021 2.44238 18.5859 0.292969s6.10254 -5.66699 6.65723 -10.5527s-0.18457 -10.6504 -2.21875 -17.2939s-4.53125 -13.2881 -7.49023 -19.9326c-2.95898 -6.64355 -5.91797 -12.8965 -8.87695 -18.7588l-6.6582 -13.4834
c-1.84863 -3.12598 -4.80762 -8.79297 -8.87695 -17.001l-13.0371 -25.7949l-13.3154 -25.7939c-4.25391 -8.20801 -7.12012 -13.875 -8.59961 -17.002v-13.4834c8.87695 -1.17285 18.3086 -0.879883 28.2949 0.878906s19.8809 4.10352 29.6826 7.03516
c9.80176 2.93066 19.418 6.15527 28.8496 9.67285s18.0312 6.44824 25.7988 8.79297c18.124 5.47168 32.6416 13.6787 43.5527 24.6211c10.9111 10.9434 19.9727 23.7432 27.1846 38.3994s13.4072 30.7783 18.5859 48.3652s11.0967 35.7607 17.7539 54.5205
c8.50684 2.73535 13.8701 1.46484 16.0898 -3.81152c2.21875 -5.27637 2.58887 -12.7998 1.10938 -22.5703s-4.3457 -21.0068 -8.59961 -33.709l-12.7607 -36.6406l-11.0957 -31.3633c-3.14355 -9.18457 -4.53027 -15.1445 -4.16016 -17.8799
c6.28809 2.34473 12.4834 2.44238 18.5859 0.292969s10.4482 -6.5459 13.0371 -13.1895c-2.21973 -5.47168 -5.82617 -9.18457 -10.8193 -11.1387s-10.2637 -3.71289 -15.8115 -5.27637s-11.0039 -3.41992 -16.3672 -5.56934s-9.70898 -5.95996 -13.0381 -11.4316
c-7.7666 -12.8975 -14.4238 -26.3809 -19.9717 -40.4502c-5.54785 -14.0703 -10.541 -28.5312 -14.9795 -43.3818c-4.43848 -14.8516 -8.32227 -29.8008 -11.6514 -44.8477l-9.98633 -43.6758c-2.58887 -0.78125 -6.19531 -0.878906 -10.8193 -0.292969
c-4.62305 0.586914 -7.30469 3.0293 -8.04492 7.32812z" />
    <glyph glyph-name="questiondown" unicode="&#xbf;" horiz-adv-x="406" 
d="M135.748 626.685c2.75195 -6.29395 4.90234 -12.5879 6.4502 -18.8818s1.46191 -13.1602 -0.257812 -20.5986c-2.4082 -12.5879 -4.90234 -18.8818 -7.48242 -18.8818s-4.90234 3.29004 -6.9668 9.87012s-3.6123 15.0195 -4.64453 25.3193
c-1.03223 10.2988 -1.37598 19.0244 -1.03223 26.1768s1.63379 11.3008 3.87012 12.4453s5.59082 -4.00488 10.0635 -15.4492zM142.973 414.69c2.4082 -14.877 -0.858398 -32.041 -9.80273 -51.4951c-8.94531 -19.4541 -20.8145 -39.9102 -35.6074 -61.3672
c-14.7939 -21.457 -31.3076 -43.3428 -49.541 -65.6582l-52.6377 -65.2285c-16.8584 -21.1709 -31.7383 -41.0547 -44.6396 -59.6504c-12.9014 -18.5967 -21.2441 -34.9043 -25.0283 -48.9229s-1.80566 -25.0332 5.93555 -33.0439s23.8252 -12.0156 48.252 -12.0156h139.85
c2.75293 -9.15527 3.09668 -17.8809 1.03223 -26.1777c-2.06348 -8.2959 -6.36426 -12.4443 -12.9014 -12.4443h-145.526c-8.60059 0 -18.0615 4.00488 -28.3828 12.0156s-19.0947 18.4531 -26.3203 31.3271c-7.22461 12.874 -11.6973 27.4648 -13.417 43.7725
s1.54883 32.4717 9.80566 48.4932c15.4814 30.3252 33.457 56.6455 53.9268 78.9609l61.668 65.2295c20.6426 21.1709 40.3389 43.915 59.0889 68.2324c18.749 24.3184 34.3164 53.6426 46.7021 87.9736c1.03223 2.28906 2.4082 4.43457 4.12891 6.4375
c1.71973 2.00293 3.43945 3.29004 5.15918 3.8623c1.71973 0.571289 3.35352 0.141602 4.90137 -1.28906s2.66602 -4.43457 3.35449 -9.01172z" />
    <glyph glyph-name="Agrave" unicode="&#xc0;" horiz-adv-x="847" 
d="M-78 -185c-2 1.33301 -5.16309 4.50098 -9.49609 9.50098s-7.83301 10.167 -10.5 15.5s-3.83398 10 -3.50098 14s4.16602 6 11.499 6c14 -19.333 33.667 -26.666 59 -21.999s52.666 16.167 81.999 34.5s59.166 41.333 89.499 69s57.666 55.167 81.999 82.5
s44.333 52 60 74s23.5 36.667 23.5 44c0 2 -2.66699 5.16699 -8 9.5s-11.5 8.83301 -18.5 13.5l-19.5 13c-6 4 -9.66699 7 -11 9c2 6.66699 8.33301 11.834 19 15.501s22.667 7 36 10l39.5 9c13 3 22.833 6.83301 29.5 11.5l92.5 138.5l75 121l72.5 122.5l85 142
c8.66699 14.667 15.667 19.667 21 15s9.33301 -16 12 -34s4.33398 -40.833 5.00098 -68.5s0.666992 -57.5 0 -89.5s-1.83398 -64.667 -3.50098 -98s-3.33398 -64 -5.00098 -92s-3 -52.167 -4 -72.5s-1.16699 -33.5 -0.5 -39.5c2.66699 -34 4.5 -63.5 5.5 -88.5
s4.16699 -48 9.5 -69s14.5 -41.333 27.5 -61s32.833 -41.167 59.5 -64.5c-22 -7.33301 -40.167 -6.83301 -54.5 1.5s-26 21 -35 38s-16.333 36.667 -22 59l-16 65c-5 21 -10.667 39.333 -17 55s-14.833 25.834 -25.5 30.501c-0.666992 0 -2.5 0.166992 -5.5 0.5
s-6.33301 0.5 -10 0.5s-7.16699 -0.166992 -10.5 -0.5s-5.66602 -0.5 -6.99902 -0.5c-6 -1.33301 -17.167 -4 -33.5 -8l-53.5 -13l-55.5 -14l-38.5 -10c-16.667 -4.66699 -34.167 -15.334 -52.5 -32.001s-37.666 -36.834 -57.999 -60.501s-41.333 -49.5 -63 -77.5l-66.5 -82
c-22.667 -26.667 -45.667 -51.334 -69 -74.001s-46.666 -41 -69.999 -55s-46.833 -21.833 -70.5 -23.5s-46.834 5.16602 -69.501 20.499zM464.004 255.001c1.33301 -0.666992 4.83105 -1.00195 10.498 -1.00195s9.5 0.333008 11.5 1c12 2 27 4.33301 45 7
s36 5.83398 54 9.50098s34.667 8 50 13s26 10.5 32 16.5l3 21c2 14 4.33301 31.833 7 53.5l8.5 72l8.5 77.5c2.66699 25.333 4.83398 48.833 6.50098 70.5s2.83398 38.5 3.50098 50.5c-7.33301 3.33301 -17 -5.16699 -29 -25.5s-27.5 -48.166 -46.5 -83.499l-69 -123.5
c-27 -47 -58.833 -95.833 -95.5 -146.5v-12zM756.002 780.999c-9.33301 16 -19.001 27.333 -29.001 34l-26.5 18c-7.66699 5.33301 -13.334 12.333 -17.001 21s-3.5 23 0.5 43c14.667 1.33301 29.334 -3 44.001 -13s28.167 -22 40.5 -36s22.333 -28.5 30 -43.5
s11.834 -27 12.501 -36s-3.33301 -13.333 -12 -13s-23 8.83301 -43 25.5z" />
    <glyph glyph-name="Aacute" unicode="&#xc1;" horiz-adv-x="847" 
d="M-78 -185c-2 1.33301 -5.16309 4.50098 -9.49609 9.50098s-7.83301 10.167 -10.5 15.5s-3.83398 10 -3.50098 14s4.16602 6 11.499 6c14 -19.333 33.667 -26.666 59 -21.999s52.666 16.167 81.999 34.5s59.166 41.333 89.499 69s57.666 55.167 81.999 82.5
s44.333 52 60 74s23.5 36.667 23.5 44c0 2 -2.66699 5.16699 -8 9.5s-11.5 8.83301 -18.5 13.5l-19.5 13c-6 4 -9.66699 7 -11 9c2 6.66699 8.33301 11.834 19 15.501s22.667 7 36 10l39.5 9c13 3 22.833 6.83301 29.5 11.5l92.5 138.5l75 121l72.5 122.5l85 142
c8.66699 14.667 15.667 19.667 21 15s9.33301 -16 12 -34s4.33398 -40.833 5.00098 -68.5s0.666992 -57.5 0 -89.5s-1.83398 -64.667 -3.50098 -98s-3.33398 -64 -5.00098 -92s-3 -52.167 -4 -72.5s-1.16699 -33.5 -0.5 -39.5c2.66699 -34 4.5 -63.5 5.5 -88.5
s4.16699 -48 9.5 -69s14.5 -41.333 27.5 -61s32.833 -41.167 59.5 -64.5c-22 -7.33301 -40.167 -6.83301 -54.5 1.5s-26 21 -35 38s-16.333 36.667 -22 59l-16 65c-5 21 -10.667 39.333 -17 55s-14.833 25.834 -25.5 30.501c-0.666992 0 -2.5 0.166992 -5.5 0.5
s-6.33301 0.5 -10 0.5s-7.16699 -0.166992 -10.5 -0.5s-5.66602 -0.5 -6.99902 -0.5c-6 -1.33301 -17.167 -4 -33.5 -8l-53.5 -13l-55.5 -14l-38.5 -10c-16.667 -4.66699 -34.167 -15.334 -52.5 -32.001s-37.666 -36.834 -57.999 -60.501s-41.333 -49.5 -63 -77.5l-66.5 -82
c-22.667 -26.667 -45.667 -51.334 -69 -74.001s-46.666 -41 -69.999 -55s-46.833 -21.833 -70.5 -23.5s-46.834 5.16602 -69.501 20.499zM464.004 255.001c1.33301 -0.666992 4.83105 -1.00195 10.498 -1.00195s9.5 0.333008 11.5 1c12 2 27 4.33301 45 7
s36 5.83398 54 9.50098s34.667 8 50 13s26 10.5 32 16.5l3 21c2 14 4.33301 31.833 7 53.5l8.5 72l8.5 77.5c2.66699 25.333 4.83398 48.833 6.50098 70.5s2.83398 38.5 3.50098 50.5c-7.33301 3.33301 -17 -5.16699 -29 -25.5s-27.5 -48.166 -46.5 -83.499l-69 -123.5
c-27 -47 -58.833 -95.833 -95.5 -146.5v-12zM665.002 748.999c-22 -16 -37.501 -24.001 -46.501 -24.001s-13 4.83301 -12 14.5s6 22.167 15 37.5s20.333 30.333 34 45s28.834 27 45.501 37s33 14.667 49 14c4 -20 3.83301 -34.667 -0.5 -44s-11 -17.166 -20 -23.499
s-19.5 -13.333 -31.5 -21s-23 -19.5 -33 -35.5z" />
    <glyph glyph-name="Acircumflex" unicode="&#xc2;" horiz-adv-x="847" 
d="M-78 -185c-2 1.33301 -5.16309 4.50098 -9.49609 9.50098s-7.83301 10.167 -10.5 15.5s-3.83398 10 -3.50098 14s4.16602 6 11.499 6c14 -19.333 33.667 -26.666 59 -21.999s52.666 16.167 81.999 34.5s59.166 41.333 89.499 69s57.666 55.167 81.999 82.5
s44.333 52 60 74s23.5 36.667 23.5 44c0 2 -2.66699 5.16699 -8 9.5s-11.5 8.83301 -18.5 13.5l-19.5 13c-6 4 -9.66699 7 -11 9c2 6.66699 8.33301 11.834 19 15.501s22.667 7 36 10l39.5 9c13 3 22.833 6.83301 29.5 11.5l92.5 138.5l75 121l72.5 122.5l85 142
c8.66699 14.667 15.667 19.667 21 15s9.33301 -16 12 -34s4.33398 -40.833 5.00098 -68.5s0.666992 -57.5 0 -89.5s-1.83398 -64.667 -3.50098 -98s-3.33398 -64 -5.00098 -92s-3 -52.167 -4 -72.5s-1.16699 -33.5 -0.5 -39.5c2.66699 -34 4.5 -63.5 5.5 -88.5
s4.16699 -48 9.5 -69s14.5 -41.333 27.5 -61s32.833 -41.167 59.5 -64.5c-22 -7.33301 -40.167 -6.83301 -54.5 1.5s-26 21 -35 38s-16.333 36.667 -22 59l-16 65c-5 21 -10.667 39.333 -17 55s-14.833 25.834 -25.5 30.501c-0.666992 0 -2.5 0.166992 -5.5 0.5
s-6.33301 0.5 -10 0.5s-7.16699 -0.166992 -10.5 -0.5s-5.66602 -0.5 -6.99902 -0.5c-6 -1.33301 -17.167 -4 -33.5 -8l-53.5 -13l-55.5 -14l-38.5 -10c-16.667 -4.66699 -34.167 -15.334 -52.5 -32.001s-37.666 -36.834 -57.999 -60.501s-41.333 -49.5 -63 -77.5l-66.5 -82
c-22.667 -26.667 -45.667 -51.334 -69 -74.001s-46.666 -41 -69.999 -55s-46.833 -21.833 -70.5 -23.5s-46.834 5.16602 -69.501 20.499zM464.004 255.001c1.33301 -0.666992 4.83105 -1.00195 10.498 -1.00195s9.5 0.333008 11.5 1c12 2 27 4.33301 45 7
s36 5.83398 54 9.50098s34.667 8 50 13s26 10.5 32 16.5l3 21c2 14 4.33301 31.833 7 53.5l8.5 72l8.5 77.5c2.66699 25.333 4.83398 48.833 6.50098 70.5s2.83398 38.5 3.50098 50.5c-7.33301 3.33301 -17 -5.16699 -29 -25.5s-27.5 -48.166 -46.5 -83.499l-69 -123.5
c-27 -47 -58.833 -95.833 -95.5 -146.5v-12zM761.002 755.999c-1.33301 2 -3.8291 8.16504 -7.49609 18.498s-7.83398 21 -12.501 32s-9.5 19.833 -14.5 26.5s-9.83301 7.66699 -14.5 3c-2.66699 -4 -8.16699 -13 -16.5 -27s-18.5 -27.667 -30.5 -41
s-24.667 -23.833 -38 -31.5s-26.333 -7.5 -39 0.5c-3.33301 2 -6.83301 4.83301 -10.5 8.5s-4.16699 8.16699 -1.5 13.5c3.33301 6 9.33301 12.5 18 19.5l27 21c9.33301 7 18.166 14 26.499 21s14.166 13.5 17.499 19.5c14.667 31.333 28.167 52.833 40.5 64.5
s23.333 16.5 33 14.5s18 -9.33301 25 -22s12.5 -27.167 16.5 -43.5s6.83301 -33 8.5 -50s1.66699 -31.167 0 -42.5s-4.83398 -18.166 -9.50098 -20.499s-10.667 2.83398 -18 15.501z" />
    <glyph glyph-name="Atilde" unicode="&#xc3;" horiz-adv-x="847" 
d="M-78 -185c-2 1.33301 -5.16309 4.50098 -9.49609 9.50098s-7.83301 10.167 -10.5 15.5s-3.83398 10 -3.50098 14s4.16602 6 11.499 6c14 -19.333 33.667 -26.666 59 -21.999s52.666 16.167 81.999 34.5s59.166 41.333 89.499 69s57.666 55.167 81.999 82.5
s44.333 52 60 74s23.5 36.667 23.5 44c0 2 -2.66699 5.16699 -8 9.5s-11.5 8.83301 -18.5 13.5l-19.5 13c-6 4 -9.66699 7 -11 9c2 6.66699 8.33301 11.834 19 15.501s22.667 7 36 10l39.5 9c13 3 22.833 6.83301 29.5 11.5l92.5 138.5l75 121l72.5 122.5l85 142
c8.66699 14.667 15.667 19.667 21 15s9.33301 -16 12 -34s4.33398 -40.833 5.00098 -68.5s0.666992 -57.5 0 -89.5s-1.83398 -64.667 -3.50098 -98s-3.33398 -64 -5.00098 -92s-3 -52.167 -4 -72.5s-1.16699 -33.5 -0.5 -39.5c2.66699 -34 4.5 -63.5 5.5 -88.5
s4.16699 -48 9.5 -69s14.5 -41.333 27.5 -61s32.833 -41.167 59.5 -64.5c-22 -7.33301 -40.167 -6.83301 -54.5 1.5s-26 21 -35 38s-16.333 36.667 -22 59l-16 65c-5 21 -10.667 39.333 -17 55s-14.833 25.834 -25.5 30.501c-0.666992 0 -2.5 0.166992 -5.5 0.5
s-6.33301 0.5 -10 0.5s-7.16699 -0.166992 -10.5 -0.5s-5.66602 -0.5 -6.99902 -0.5c-6 -1.33301 -17.167 -4 -33.5 -8l-53.5 -13l-55.5 -14l-38.5 -10c-16.667 -4.66699 -34.167 -15.334 -52.5 -32.001s-37.666 -36.834 -57.999 -60.501s-41.333 -49.5 -63 -77.5l-66.5 -82
c-22.667 -26.667 -45.667 -51.334 -69 -74.001s-46.666 -41 -69.999 -55s-46.833 -21.833 -70.5 -23.5s-46.834 5.16602 -69.501 20.499zM464.004 255.001c1.33301 -0.666992 4.83105 -1.00195 10.498 -1.00195s9.5 0.333008 11.5 1c12 2 27 4.33301 45 7
s36 5.83398 54 9.50098s34.667 8 50 13s26 10.5 32 16.5l3 21c2 14 4.33301 31.833 7 53.5l8.5 72l8.5 77.5c2.66699 25.333 4.83398 48.833 6.50098 70.5s2.83398 38.5 3.50098 50.5c-7.33301 3.33301 -17 -5.16699 -29 -25.5s-27.5 -48.166 -46.5 -83.499l-69 -123.5
c-27 -47 -58.833 -95.833 -95.5 -146.5v-12zM798.002 694.999c-19.333 3.33301 -33.8301 11.166 -43.4971 23.499s-17.334 25.333 -23.001 39s-10.5 25.834 -14.5 36.501s-9.83301 16 -17.5 16s-18.834 -7.66699 -33.501 -23s-35 -42 -61 -80
c-13.333 -8 -22.166 -10 -26.499 -6s-5.5 11.5 -3.5 22.5s6.83301 24.167 14.5 39.5s17.167 30.333 28.5 45s24.166 27.5 38.499 38.5s29 17.833 44 20.5s30 -0.333008 45 -9s28.833 -25.334 41.5 -50.001c6 -28.667 14.5 -48.334 25.5 -59.001s23.667 -15.5 38 -14.5
s29.833 6.33301 46.5 16s34 20.834 52 33.501l55 38.5c18.667 13 36.667 23.167 54 30.5c4 -6.66699 2 -16.167 -6 -28.5s-19.5 -25.666 -34.5 -39.999s-32.333 -28.5 -52 -42.5s-39.834 -25.833 -60.501 -35.5s-40.5 -16 -59.5 -19s-34.833 -0.5 -47.5 7.5z" />
    <glyph glyph-name="Adieresis" unicode="&#xc4;" horiz-adv-x="847" 
d="M-78 -185c-2 1.33301 -5.16309 4.50098 -9.49609 9.50098s-7.83301 10.167 -10.5 15.5s-3.83398 10 -3.50098 14s4.16602 6 11.499 6c14 -19.333 33.667 -26.666 59 -21.999s52.666 16.167 81.999 34.5s59.166 41.333 89.499 69s57.666 55.167 81.999 82.5
s44.333 52 60 74s23.5 36.667 23.5 44c0 2 -2.66699 5.16699 -8 9.5s-11.5 8.83301 -18.5 13.5l-19.5 13c-6 4 -9.66699 7 -11 9c2 6.66699 8.33301 11.834 19 15.501s22.667 7 36 10l39.5 9c13 3 22.833 6.83301 29.5 11.5l92.5 138.5l75 121l72.5 122.5l85 142
c8.66699 14.667 15.667 19.667 21 15s9.33301 -16 12 -34s4.33398 -40.833 5.00098 -68.5s0.666992 -57.5 0 -89.5s-1.83398 -64.667 -3.50098 -98s-3.33398 -64 -5.00098 -92s-3 -52.167 -4 -72.5s-1.16699 -33.5 -0.5 -39.5c2.66699 -34 4.5 -63.5 5.5 -88.5
s4.16699 -48 9.5 -69s14.5 -41.333 27.5 -61s32.833 -41.167 59.5 -64.5c-22 -7.33301 -40.167 -6.83301 -54.5 1.5s-26 21 -35 38s-16.333 36.667 -22 59l-16 65c-5 21 -10.667 39.333 -17 55s-14.833 25.834 -25.5 30.501c-0.666992 0 -2.5 0.166992 -5.5 0.5
s-6.33301 0.5 -10 0.5s-7.16699 -0.166992 -10.5 -0.5s-5.66602 -0.5 -6.99902 -0.5c-6 -1.33301 -17.167 -4 -33.5 -8l-53.5 -13l-55.5 -14l-38.5 -10c-16.667 -4.66699 -34.167 -15.334 -52.5 -32.001s-37.666 -36.834 -57.999 -60.501s-41.333 -49.5 -63 -77.5l-66.5 -82
c-22.667 -26.667 -45.667 -51.334 -69 -74.001s-46.666 -41 -69.999 -55s-46.833 -21.833 -70.5 -23.5s-46.834 5.16602 -69.501 20.499zM464.004 255.001c1.33301 -0.666992 4.83105 -1.00195 10.498 -1.00195s9.5 0.333008 11.5 1c12 2 27 4.33301 45 7
s36 5.83398 54 9.50098s34.667 8 50 13s26 10.5 32 16.5l3 21c2 14 4.33301 31.833 7 53.5l8.5 72l8.5 77.5c2.66699 25.333 4.83398 48.833 6.50098 70.5s2.83398 38.5 3.50098 50.5c-7.33301 3.33301 -17 -5.16699 -29 -25.5s-27.5 -48.166 -46.5 -83.499l-69 -123.5
c-27 -47 -58.833 -95.833 -95.5 -146.5v-12zM614.002 799.999c-9.33301 14 -11.834 28.001 -7.50098 42.001s11.833 24.833 22.5 32.5s22.334 10.667 35.001 9s22.667 -10.834 30 -27.501c4 -10 3.33301 -20.5 -2 -31.5s-12.666 -20 -21.999 -27s-19.333 -10.833 -30 -11.5
s-19.334 4 -26.001 14zM758.001 805c-10 14 -12.6719 28.001 -8.00488 42.001s12.334 24.833 23.001 32.5s22.334 10.667 35.001 9s22.334 -10.834 29.001 -27.501c4 -10 3.33301 -20.5 -2 -31.5s-12.666 -20 -21.999 -27s-19.166 -10.833 -29.499 -11.5s-18.833 4 -25.5 14
z" />
    <glyph glyph-name="Aring" unicode="&#xc5;" horiz-adv-x="847" 
d="M-78 -185c-2 1.33301 -5.16309 4.50098 -9.49609 9.50098s-7.83301 10.167 -10.5 15.5s-3.83398 10 -3.50098 14s4.16602 6 11.499 6c14 -19.333 33.667 -26.666 59 -21.999s52.666 16.167 81.999 34.5s59.166 41.333 89.499 69s57.666 55.167 81.999 82.5
s44.333 52 60 74s23.5 36.667 23.5 44c0 2 -2.66699 5.16699 -8 9.5s-11.5 8.83301 -18.5 13.5l-19.5 13c-6 4 -9.66699 7 -11 9c2 6.66699 8.33301 11.834 19 15.501s22.667 7 36 10l39.5 9c13 3 22.833 6.83301 29.5 11.5l92.5 138.5l75 121l72.5 122.5l85 142
c8.66699 14.667 15.667 19.667 21 15s9.33301 -16 12 -34s4.33398 -40.833 5.00098 -68.5s0.666992 -57.5 0 -89.5s-1.83398 -64.667 -3.50098 -98s-3.33398 -64 -5.00098 -92s-3 -52.167 -4 -72.5s-1.16699 -33.5 -0.5 -39.5c2.66699 -34 4.5 -63.5 5.5 -88.5
s4.16699 -48 9.5 -69s14.5 -41.333 27.5 -61s32.833 -41.167 59.5 -64.5c-22 -7.33301 -40.167 -6.83301 -54.5 1.5s-26 21 -35 38s-16.333 36.667 -22 59l-16 65c-5 21 -10.667 39.333 -17 55s-14.833 25.834 -25.5 30.501c-0.666992 0 -2.5 0.166992 -5.5 0.5
s-6.33301 0.5 -10 0.5s-7.16699 -0.166992 -10.5 -0.5s-5.66602 -0.5 -6.99902 -0.5c-6 -1.33301 -17.167 -4 -33.5 -8l-53.5 -13l-55.5 -14l-38.5 -10c-16.667 -4.66699 -34.167 -15.334 -52.5 -32.001s-37.666 -36.834 -57.999 -60.501s-41.333 -49.5 -63 -77.5l-66.5 -82
c-22.667 -26.667 -45.667 -51.334 -69 -74.001s-46.666 -41 -69.999 -55s-46.833 -21.833 -70.5 -23.5s-46.834 5.16602 -69.501 20.499zM464.004 255.001c1.33301 -0.666992 4.83105 -1.00195 10.498 -1.00195s9.5 0.333008 11.5 1c12 2 27 4.33301 45 7
s36 5.83398 54 9.50098s34.667 8 50 13s26 10.5 32 16.5l3 21c2 14 4.33301 31.833 7 53.5l8.5 72l8.5 77.5c2.66699 25.333 4.83398 48.833 6.50098 70.5s2.83398 38.5 3.50098 50.5c-7.33301 3.33301 -17 -5.16699 -29 -25.5s-27.5 -48.166 -46.5 -83.499l-69 -123.5
c-27 -47 -58.833 -95.833 -95.5 -146.5v-12zM643.002 754.999c-16.667 6.66699 -26.9971 15.499 -30.9971 26.499s-3.83301 23 0.5 36s12 26.333 23 40s23 26 36 37s26.333 20.167 40 27.5s25.5 11.666 35.5 12.999c33.333 4 57.166 1.16699 71.499 -8.5
s21.5 -22.667 21.5 -39s-5.83301 -34.166 -17.5 -53.499s-26.834 -36.333 -45.501 -51s-39.834 -25.167 -63.501 -31.5s-47.167 -5.16602 -70.5 3.50098zM657.005 814.998c3.33301 -18 11.667 -27.6689 25 -29.002s28 1.83398 44 9.50098s31.167 17.834 45.5 30.501
s23.833 24.667 28.5 36s2.66699 20 -6 26s-28 6 -58 0c-8.66699 -7.33301 -17.167 -13.5 -25.5 -18.5s-16 -10 -23 -15s-13.167 -10.5 -18.5 -16.5s-9.33301 -13.667 -12 -23z" />
    <glyph glyph-name="AE" unicode="&#xc6;" horiz-adv-x="1593" 
d="M550 -97c-3.33301 3.33301 -2.00781 6.99902 3.99219 10.999c6 24 12.667 46.833 20 68.5s15 43.167 23 64.5c4 16 7.33301 31 10 45s4.33398 26.5 5.00098 37.5s0.333984 20.333 -0.999023 28s-4.33301 13.167 -9 16.5c-0.666992 0 -2.5 0.333008 -5.5 1
s-6.33301 1.33398 -10 2.00098l-10.5 2c-3.33301 0.666992 -5.66602 1 -6.99902 1c-6 0 -16.333 2.83301 -31 8.5l-47.5 18.5c-17 6.66699 -33.5 12.667 -49.5 18s-28 7.66602 -36 6.99902c-16.667 -1.33301 -35.834 -8.33301 -57.501 -21s-44.667 -28.667 -69 -48
s-49.833 -40.666 -76.5 -63.999l-81 -68c-27.333 -22 -54.666 -42 -81.999 -60s-54 -31.333 -80 -40s-50.667 -11.667 -74 -9s-44.666 13.667 -63.999 33c-2 2 -4.5 5.66699 -7.5 11s-5.33301 11 -7 17s-2 11 -1 15s5.16699 5.33301 12.5 4c8 -16.667 20.167 -27 36.5 -31
s35.5 -3.66699 57.5 1s45.667 12.834 71 24.501s50.833 25.167 76.5 40.5s50.334 31.666 74.001 48.999s44.834 33.666 63.501 48.999s33.834 29.166 45.501 41.499s18.167 21.166 19.5 26.499c0 2 -2.16699 5.5 -6.5 10.5s-9.5 10.5 -15.5 16.5l-17 17
c-5.33301 5.33301 -8.33301 9 -9 11c3.33301 6 10.5 9.83301 21.5 11.5s23.333 2.66699 37 3s27.167 0.5 40.5 0.5s23.666 1.66699 30.999 5l80.5 76l67 60.5l60.5 53l60 53.5l65.5 61.5l77.5 78.5c18 18.667 31.833 29.5 41.5 32.5s16.5 0.166992 20.5 -8.5
s5.33301 -22.5 4 -41.5s-4.33301 -40.833 -9 -65.5c22.667 8.66699 49.834 17.5 81.501 26.5s65.334 17.5 101.001 25.5s72.334 15.5 110.001 22.5s73.834 12.833 108.501 17.5s66.667 7.83398 96 9.50098s53.833 1.16699 73.5 -1.5s32.834 -7.5 39.501 -14.5
s5 -17.167 -5 -30.5c-6 -1.33301 -12.167 -1.5 -18.5 -0.5s-12.833 2.5 -19.5 4.5s-13.5 3.83301 -20.5 5.5s-13.833 2.16699 -20.5 1.5c-32 -2.66699 -63.5 -7.33398 -94.5 -14.001s-61.833 -14 -92.5 -22l-92 -23.5c-30.667 -7.66699 -62 -14.167 -94 -19.5
c-50 -8.66699 -88 -21 -114 -37s-44.833 -35.167 -56.5 -57.5s-18.834 -48 -21.501 -77s-5.33398 -60.833 -8.00098 -95.5c7.33301 -2 21.166 -0.666992 41.499 4s43.666 10.5 69.999 17.5s54 14 83 21s56.5 12 82.5 15s48.667 3 68 0s32.333 -10.833 39 -23.5
c0.666992 -1.33301 1 -3.33301 1 -6s-0.333008 -4.33398 -1 -5.00098c-35.333 -5.33301 -71.833 -10.166 -109.5 -14.499s-75 -9.83301 -112 -16.5s-73.167 -15.5 -108.5 -26.5s-68.666 -25.833 -99.999 -44.5c-0.666992 -0.666992 -1.66699 -2.33398 -3 -5.00098
c-1.33301 -4.66699 -2.33301 -9.16699 -3 -13.5s-1.66699 -8.16602 -3 -11.499c-7.33301 -38 -17.833 -77.833 -31.5 -119.5l-40.5 -119.5c20 5.33301 40.833 10.5 62.5 15.5l60.5 13.5c18.667 4 34.5 7.16699 47.5 9.5s21.167 3.83301 24.5 4.5
c56.667 8.66699 111.167 15.5 163.5 20.5s106.833 5.83301 163.5 2.5c4.66699 -1.33301 8 -4 10 -8s3.16699 -8.5 3.5 -13.5s0.333008 -9.83301 0 -14.5s-0.833008 -8 -1.5 -10c-73.333 4 -145.666 1.33301 -216.999 -8s-142.333 -21.666 -213 -36.999
c-8 -2 -17 -4.83301 -27 -8.5l-31.5 -11.5c-11 -4 -22.333 -7.83301 -34 -11.5s-22.834 -6.5 -33.501 -8.5c-13.333 -38 -22.5 -70.333 -27.5 -97s-2.83301 -43.667 6.5 -51c-15.333 -2 -26.666 0.833008 -33.999 8.5s-12 18.834 -14 33.501s-1.83301 31.834 0.5 51.501
s5.83301 40.5 10.5 62.5c-4.66699 2 -7.33398 5.33301 -8.00098 10zM437.992 282.999c1.33301 -0.666992 4.83398 -1.6709 10.501 -3.00391s9.16699 -1.66602 10.5 -0.999023c12 -1.33301 25.833 -5.66602 41.5 -12.999s30.667 -15.333 45 -24s26.5 -16.334 36.5 -23.001
l15 -10l27 18c0.666992 0.666992 1 1.33398 1 2.00098c0 2 0.333008 3.66699 1 5c-2.66699 4.66699 -4.16699 9.5 -4.5 14.5s2.5 10.167 8.5 15.5c0 1.33301 2.66699 2 8 2l21 64.5l24.5 76.5l22.5 73c6.66699 22.667 11.667 40.667 15 54
c-2.66699 -5.33301 -7.5 -12.666 -14.5 -21.999s-20.167 -23 -39.5 -41s-46.833 -41.167 -82.5 -69.5s-83.834 -64.166 -144.501 -107.499z" />
    <glyph glyph-name="Ccedilla" unicode="&#xc7;" horiz-adv-x="633" 
d="M107 11c-40.667 16 -68.667 37.6641 -84 64.9971s-21.5 57.833 -18.5 91.5s13.667 69.667 32 108s41 76.833 68 115.5s56.833 76.334 89.5 113.001s65 70.334 97 101.001s62 57.334 90 80.001s50.667 39.334 68 50.001c24 14.667 44 21.834 60 21.501
s28.833 -5.33301 38.5 -15s16.334 -23 20.001 -40s5.33398 -35 5.00098 -54s-2.33301 -38 -6 -57s-8.33398 -35.5 -14.001 -49.5s-11.667 -24.333 -18 -31s-12.5 -7 -18.5 -1c-0.666992 5.33301 0 13.5 2 24.5s4.5 23.5 7.5 37.5s5.83301 28.333 8.5 43s4.5 28.167 5.5 40.5
s0.666992 22.833 -1 31.5s-5.5 13.667 -11.5 15c-23.333 6 -51.166 0.5 -83.499 -16.5s-66 -41.333 -101 -73s-69.667 -68.334 -104 -110.001s-65.5 -84.5 -93.5 -128.5s-51 -86.833 -69 -128.5s-28.167 -78.334 -30.5 -110.001s4.66699 -56 21 -73
s45.166 -22.5 86.499 -16.5c38 5.33301 73.167 18.833 105.5 40.5s63.666 45.667 93.999 72l90.5 78c30 25.667 61.333 45.167 94 58.5c12 4.66699 21.5 3 28.5 -5s8.83301 -17.667 5.5 -29c-4 -11.333 -15.833 -26.333 -35.5 -45s-44 -38.167 -73 -58.5
s-60.833 -40.666 -95.5 -60.999s-68.5 -37.833 -101.5 -52.5s-63.667 -25.334 -92 -32.001s-50.5 -6.66699 -66.5 0zM218 -128.003c-3.33301 9.33301 -0.166992 15.8311 9.5 19.498s21.334 6.5 35.001 8.5s27.167 4.5 40.5 7.5s22 8.5 26 16.5
c4 8.66699 4.66699 14.834 2 18.501s-7.33398 6.5 -14.001 8.5s-14.167 3.33301 -22.5 4s-16.166 2 -23.499 4s-13.333 5.16699 -18 9.5s-6.33398 10.833 -5.00098 19.5c-2.66699 14.667 -3.66699 28.334 -3 41.001s2.5 21.667 5.5 27s7 5.5 12 0.5s10.5 -17.5 16.5 -37.5
c4 -12.667 13 -21.334 27 -26.001s27.833 -8.66699 41.5 -12s24.834 -8 33.501 -14s10 -16.333 4 -31c-1.33301 -5.33301 -7.66602 -13.666 -18.999 -24.999s-25 -22 -41 -32s-32.833 -17.333 -50.5 -22s-32.834 -3.33398 -45.501 3.99902
c-1.33301 0.666992 -3.33301 2.33398 -6 5.00098s-4.33398 4.66699 -5.00098 6z" />
    <glyph glyph-name="Egrave" unicode="&#xc8;" horiz-adv-x="746" 
d="M18 23c-4 3.33301 -2.99121 7.00195 3.00879 11.002c6.66699 24 13.5 47 20.5 69s14.5 43.833 22.5 65.5l25.5 66l28.5 70.5c3.33301 6 2.83301 12.167 -1.5 18.5s-9.33301 12.666 -15 18.999s-9.66699 13 -12 20s0.166992 14.167 7.5 21.5
c0.666992 0.666992 3.16699 1.66699 7.5 3s9.16602 2.5 14.499 3.5s10.166 2 14.499 3s7.16602 1.83301 8.49902 2.5c2 1.33301 5.83301 4.83301 11.5 10.5s9.16699 9.5 10.5 11.5c10.667 18 20.834 34 30.501 48s18.667 28 27 42s15.833 28.667 22.5 44
s12.667 33.333 18 54c2 8 0.166992 13.167 -5.5 15.5s-12.167 4.5 -19.5 6.5s-13.333 5.16699 -18 9.5s-5 12.5 -1 24.5c2.66699 7.33301 15.5 15.333 38.5 24s52.167 17 87.5 25s75 15.333 119 22s88 12 132 16s86 6.5 126 7.5s74 -0.333008 102 -4s48 -10 60 -19
s11.667 -21.5 -1 -37.5c-6 -1.33301 -12.167 -1.5 -18.5 -0.5s-12.833 2.5 -19.5 4.5s-13.667 3.83301 -21 5.5s-14.333 2.16699 -21 1.5c-32 -2.66699 -63.333 -3.66699 -94 -3s-61.334 1 -92.001 1s-61.334 -1.16699 -92.001 -3.5s-61.334 -7.83301 -92.001 -16.5
c-21.333 -6 -40.333 -16.5 -57 -31.5s-32.5 -34 -47.5 -57s-30 -49.5 -45 -79.5l-50.5 -99c7.33301 -2 21.166 -0.666992 41.499 4s43.666 10.5 69.999 17.5s54.166 14 83.499 21s56.833 12 82.5 15s48.167 3 67.5 0s32.333 -10.833 39 -23.5
c0.666992 -1.33301 1 -3.33301 1 -6s-0.333008 -4.33398 -1 -5.00098c-35.333 -5.33301 -71.833 -10.166 -109.5 -14.499s-75 -9.83301 -112 -16.5s-73.167 -15.5 -108.5 -26.5s-68.666 -25.833 -99.999 -44.5c-25.333 -44.667 -48 -90.667 -68 -138
s-37.667 -95.333 -53 -144c19.333 6.66699 41.833 13.167 67.5 19.5l74 17.5c23.667 5.33301 44.334 9.66602 62.001 12.999l31.5 6c56.667 8.66699 111.167 15.5 163.5 20.5s106.833 5.83301 163.5 2.5c4.66699 -1.33301 8 -4 10 -8s3.33301 -8.5 4 -13.5
s0.666992 -9.83301 0 -14.5s-1.33398 -8 -2.00098 -10c-72.667 4 -144.834 1.33301 -216.501 -8s-142.834 -21.666 -213.501 -36.999c-11.333 -2.66699 -25.166 -7.33398 -41.499 -14.001s-33 -12.667 -50 -18s-33.333 -9 -49 -11s-28.834 0.666992 -39.501 8
c-2.66699 1.33301 -5 3 -7 5s-3.33301 4.66699 -4 8zM415.009 788.002c-9.33301 16 -19.001 27.333 -29.001 34l-26.5 18c-7.66699 5.33301 -13.334 12.333 -17.001 21s-3.5 23 0.5 43c14.667 1.33301 29.334 -3 44.001 -13s28.167 -22 40.5 -36s22.333 -28.5 30 -43.5
s11.834 -27 12.501 -36s-3.33301 -13.333 -12 -13s-23 8.83301 -43 25.5z" />
    <glyph glyph-name="Eacute" unicode="&#xc9;" horiz-adv-x="746" 
d="M18 23c-4 3.33301 -2.99121 7.00195 3.00879 11.002c6.66699 24 13.5 47 20.5 69s14.5 43.833 22.5 65.5l25.5 66l28.5 70.5c3.33301 6 2.83301 12.167 -1.5 18.5s-9.33301 12.666 -15 18.999s-9.66699 13 -12 20s0.166992 14.167 7.5 21.5
c0.666992 0.666992 3.16699 1.66699 7.5 3s9.16602 2.5 14.499 3.5s10.166 2 14.499 3s7.16602 1.83301 8.49902 2.5c2 1.33301 5.83301 4.83301 11.5 10.5s9.16699 9.5 10.5 11.5c10.667 18 20.834 34 30.501 48s18.667 28 27 42s15.833 28.667 22.5 44
s12.667 33.333 18 54c2 8 0.166992 13.167 -5.5 15.5s-12.167 4.5 -19.5 6.5s-13.333 5.16699 -18 9.5s-5 12.5 -1 24.5c2.66699 7.33301 15.5 15.333 38.5 24s52.167 17 87.5 25s75 15.333 119 22s88 12 132 16s86 6.5 126 7.5s74 -0.333008 102 -4s48 -10 60 -19
s11.667 -21.5 -1 -37.5c-6 -1.33301 -12.167 -1.5 -18.5 -0.5s-12.833 2.5 -19.5 4.5s-13.667 3.83301 -21 5.5s-14.333 2.16699 -21 1.5c-32 -2.66699 -63.333 -3.66699 -94 -3s-61.334 1 -92.001 1s-61.334 -1.16699 -92.001 -3.5s-61.334 -7.83301 -92.001 -16.5
c-21.333 -6 -40.333 -16.5 -57 -31.5s-32.5 -34 -47.5 -57s-30 -49.5 -45 -79.5l-50.5 -99c7.33301 -2 21.166 -0.666992 41.499 4s43.666 10.5 69.999 17.5s54.166 14 83.499 21s56.833 12 82.5 15s48.167 3 67.5 0s32.333 -10.833 39 -23.5
c0.666992 -1.33301 1 -3.33301 1 -6s-0.333008 -4.33398 -1 -5.00098c-35.333 -5.33301 -71.833 -10.166 -109.5 -14.499s-75 -9.83301 -112 -16.5s-73.167 -15.5 -108.5 -26.5s-68.666 -25.833 -99.999 -44.5c-25.333 -44.667 -48 -90.667 -68 -138
s-37.667 -95.333 -53 -144c19.333 6.66699 41.833 13.167 67.5 19.5l74 17.5c23.667 5.33301 44.334 9.66602 62.001 12.999l31.5 6c56.667 8.66699 111.167 15.5 163.5 20.5s106.833 5.83301 163.5 2.5c4.66699 -1.33301 8 -4 10 -8s3.33301 -8.5 4 -13.5
s0.666992 -9.83301 0 -14.5s-1.33398 -8 -2.00098 -10c-72.667 4 -144.834 1.33301 -216.501 -8s-142.834 -21.666 -213.501 -36.999c-11.333 -2.66699 -25.166 -7.33398 -41.499 -14.001s-33 -12.667 -50 -18s-33.333 -9 -49 -11s-28.834 0.666992 -39.501 8
c-2.66699 1.33301 -5 3 -7 5s-3.33301 4.66699 -4 8zM404.009 770.002c-22 -16 -37.501 -24.001 -46.501 -24.001s-13 4.83301 -12 14.5s6 22.167 15 37.5s20.333 30.333 34 45s28.834 27 45.501 37s33 14.667 49 14c4 -20 3.83301 -34.667 -0.5 -44
s-11 -17.166 -20 -23.499s-19.5 -13.333 -31.5 -21s-23 -19.5 -33 -35.5z" />
    <glyph glyph-name="Ecircumflex" unicode="&#xca;" horiz-adv-x="746" 
d="M18 23c-4 3.33301 -2.99121 7.00195 3.00879 11.002c6.66699 24 13.5 47 20.5 69s14.5 43.833 22.5 65.5l25.5 66l28.5 70.5c3.33301 6 2.83301 12.167 -1.5 18.5s-9.33301 12.666 -15 18.999s-9.66699 13 -12 20s0.166992 14.167 7.5 21.5
c0.666992 0.666992 3.16699 1.66699 7.5 3s9.16602 2.5 14.499 3.5s10.166 2 14.499 3s7.16602 1.83301 8.49902 2.5c2 1.33301 5.83301 4.83301 11.5 10.5s9.16699 9.5 10.5 11.5c10.667 18 20.834 34 30.501 48s18.667 28 27 42s15.833 28.667 22.5 44
s12.667 33.333 18 54c2 8 0.166992 13.167 -5.5 15.5s-12.167 4.5 -19.5 6.5s-13.333 5.16699 -18 9.5s-5 12.5 -1 24.5c2.66699 7.33301 15.5 15.333 38.5 24s52.167 17 87.5 25s75 15.333 119 22s88 12 132 16s86 6.5 126 7.5s74 -0.333008 102 -4s48 -10 60 -19
s11.667 -21.5 -1 -37.5c-6 -1.33301 -12.167 -1.5 -18.5 -0.5s-12.833 2.5 -19.5 4.5s-13.667 3.83301 -21 5.5s-14.333 2.16699 -21 1.5c-32 -2.66699 -63.333 -3.66699 -94 -3s-61.334 1 -92.001 1s-61.334 -1.16699 -92.001 -3.5s-61.334 -7.83301 -92.001 -16.5
c-21.333 -6 -40.333 -16.5 -57 -31.5s-32.5 -34 -47.5 -57s-30 -49.5 -45 -79.5l-50.5 -99c7.33301 -2 21.166 -0.666992 41.499 4s43.666 10.5 69.999 17.5s54.166 14 83.499 21s56.833 12 82.5 15s48.167 3 67.5 0s32.333 -10.833 39 -23.5
c0.666992 -1.33301 1 -3.33301 1 -6s-0.333008 -4.33398 -1 -5.00098c-35.333 -5.33301 -71.833 -10.166 -109.5 -14.499s-75 -9.83301 -112 -16.5s-73.167 -15.5 -108.5 -26.5s-68.666 -25.833 -99.999 -44.5c-25.333 -44.667 -48 -90.667 -68 -138
s-37.667 -95.333 -53 -144c19.333 6.66699 41.833 13.167 67.5 19.5l74 17.5c23.667 5.33301 44.334 9.66602 62.001 12.999l31.5 6c56.667 8.66699 111.167 15.5 163.5 20.5s106.833 5.83301 163.5 2.5c4.66699 -1.33301 8 -4 10 -8s3.33301 -8.5 4 -13.5
s0.666992 -9.83301 0 -14.5s-1.33398 -8 -2.00098 -10c-72.667 4 -144.834 1.33301 -216.501 -8s-142.834 -21.666 -213.501 -36.999c-11.333 -2.66699 -25.166 -7.33398 -41.499 -14.001s-33 -12.667 -50 -18s-33.333 -9 -49 -11s-28.834 0.666992 -39.501 8
c-2.66699 1.33301 -5 3 -7 5s-3.33301 4.66699 -4 8zM472.009 796.002c-1.33301 2 -3.8291 8.16504 -7.49609 18.498s-7.83398 21 -12.501 32s-9.5 19.833 -14.5 26.5s-9.83301 7.66699 -14.5 3c-2.66699 -4 -8.16699 -13 -16.5 -27s-18.5 -27.667 -30.5 -41
s-24.667 -23.833 -38 -31.5s-26.333 -7.5 -39 0.5c-3.33301 2 -6.83301 4.83301 -10.5 8.5s-4.16699 8.16699 -1.5 13.5c3.33301 6 9.33301 12.5 18 19.5l27 21c9.33301 7 18.166 14 26.499 21s14.166 13.5 17.499 19.5c14.667 31.333 28.167 52.833 40.5 64.5
s23.333 16.5 33 14.5s18 -9.33301 25 -22s12.5 -27.167 16.5 -43.5s6.83301 -33 8.5 -50s1.66699 -31.167 0 -42.5s-4.83398 -18.166 -9.50098 -20.499s-10.667 2.83398 -18 15.501z" />
    <glyph glyph-name="Edieresis" unicode="&#xcb;" horiz-adv-x="746" 
d="M18 23c-4 3.33301 -2.99121 7.00195 3.00879 11.002c6.66699 24 13.5 47 20.5 69s14.5 43.833 22.5 65.5l25.5 66l28.5 70.5c3.33301 6 2.83301 12.167 -1.5 18.5s-9.33301 12.666 -15 18.999s-9.66699 13 -12 20s0.166992 14.167 7.5 21.5
c0.666992 0.666992 3.16699 1.66699 7.5 3s9.16602 2.5 14.499 3.5s10.166 2 14.499 3s7.16602 1.83301 8.49902 2.5c2 1.33301 5.83301 4.83301 11.5 10.5s9.16699 9.5 10.5 11.5c10.667 18 20.834 34 30.501 48s18.667 28 27 42s15.833 28.667 22.5 44
s12.667 33.333 18 54c2 8 0.166992 13.167 -5.5 15.5s-12.167 4.5 -19.5 6.5s-13.333 5.16699 -18 9.5s-5 12.5 -1 24.5c2.66699 7.33301 15.5 15.333 38.5 24s52.167 17 87.5 25s75 15.333 119 22s88 12 132 16s86 6.5 126 7.5s74 -0.333008 102 -4s48 -10 60 -19
s11.667 -21.5 -1 -37.5c-6 -1.33301 -12.167 -1.5 -18.5 -0.5s-12.833 2.5 -19.5 4.5s-13.667 3.83301 -21 5.5s-14.333 2.16699 -21 1.5c-32 -2.66699 -63.333 -3.66699 -94 -3s-61.334 1 -92.001 1s-61.334 -1.16699 -92.001 -3.5s-61.334 -7.83301 -92.001 -16.5
c-21.333 -6 -40.333 -16.5 -57 -31.5s-32.5 -34 -47.5 -57s-30 -49.5 -45 -79.5l-50.5 -99c7.33301 -2 21.166 -0.666992 41.499 4s43.666 10.5 69.999 17.5s54.166 14 83.499 21s56.833 12 82.5 15s48.167 3 67.5 0s32.333 -10.833 39 -23.5
c0.666992 -1.33301 1 -3.33301 1 -6s-0.333008 -4.33398 -1 -5.00098c-35.333 -5.33301 -71.833 -10.166 -109.5 -14.499s-75 -9.83301 -112 -16.5s-73.167 -15.5 -108.5 -26.5s-68.666 -25.833 -99.999 -44.5c-25.333 -44.667 -48 -90.667 -68 -138
s-37.667 -95.333 -53 -144c19.333 6.66699 41.833 13.167 67.5 19.5l74 17.5c23.667 5.33301 44.334 9.66602 62.001 12.999l31.5 6c56.667 8.66699 111.167 15.5 163.5 20.5s106.833 5.83301 163.5 2.5c4.66699 -1.33301 8 -4 10 -8s3.33301 -8.5 4 -13.5
s0.666992 -9.83301 0 -14.5s-1.33398 -8 -2.00098 -10c-72.667 4 -144.834 1.33301 -216.501 -8s-142.834 -21.666 -213.501 -36.999c-11.333 -2.66699 -25.166 -7.33398 -41.499 -14.001s-33 -12.667 -50 -18s-33.333 -9 -49 -11s-28.834 0.666992 -39.501 8
c-2.66699 1.33301 -5 3 -7 5s-3.33301 4.66699 -4 8zM368.009 774.002c-9.33301 14 -11.834 28.001 -7.50098 42.001s11.833 24.833 22.5 32.5s22.334 10.667 35.001 9s22.667 -10.834 30 -27.501c4 -10 3.33301 -20.5 -2 -31.5s-12.666 -20 -21.999 -27
s-19.333 -10.833 -30 -11.5s-19.334 4 -26.001 14zM512.008 779.003c-10 14 -12.6719 28.001 -8.00488 42.001s12.334 24.833 23.001 32.5s22.334 10.667 35.001 9s22.334 -10.834 29.001 -27.501c4 -10 3.33301 -20.5 -2 -31.5s-12.666 -20 -21.999 -27
s-19.166 -10.833 -29.499 -11.5s-18.833 4 -25.5 14z" />
    <glyph glyph-name="Igrave" unicode="&#xcc;" horiz-adv-x="220" 
d="M11 34c-1.33301 4.66699 -1.49805 11.1631 -0.498047 19.4961s2.33301 16.833 4 25.5s3.5 16.334 5.5 23.001s3 10.334 3 11.001l226 588c4.66699 12 9 16.5 13 13.5s7.16699 -9.33301 9.5 -19s3.5 -20.667 3.5 -33s-1.33301 -22.166 -4 -29.499l-64.5 -152.5
c-21.667 -51 -42.334 -102.333 -62.001 -154s-38.167 -103.667 -55.5 -156s-32 -105.5 -44 -159.5c-5.33301 -3.33301 -9.83301 -4.66602 -13.5 -3.99902s-7 2.5 -10 5.5s-5.33301 6.5 -7 10.5s-2.83398 7.66699 -3.50098 11zM215.002 771.996
c-9.33301 16 -19.001 27.333 -29.001 34l-26.5 18c-7.66699 5.33301 -13.334 12.333 -17.001 21s-3.5 23 0.5 43c14.667 1.33301 29.334 -3 44.001 -13s28.167 -22 40.5 -36s22.333 -28.5 30 -43.5s11.834 -27 12.501 -36s-3.33301 -13.333 -12 -13s-23 8.83301 -43 25.5z
" />
    <glyph glyph-name="Iacute" unicode="&#xcd;" horiz-adv-x="220" 
d="M11 34c-1.33301 4.66699 -1.49805 11.1631 -0.498047 19.4961s2.33301 16.833 4 25.5s3.5 16.334 5.5 23.001s3 10.334 3 11.001l226 588c4.66699 12 9 16.5 13 13.5s7.16699 -9.33301 9.5 -19s3.5 -20.667 3.5 -33s-1.33301 -22.166 -4 -29.499l-64.5 -152.5
c-21.667 -51 -42.334 -102.333 -62.001 -154s-38.167 -103.667 -55.5 -156s-32 -105.5 -44 -159.5c-5.33301 -3.33301 -9.83301 -4.66602 -13.5 -3.99902s-7 2.5 -10 5.5s-5.33301 6.5 -7 10.5s-2.83398 7.66699 -3.50098 11zM176.002 743.996
c-22 -16 -37.501 -24.001 -46.501 -24.001s-13 4.83301 -12 14.5s6 22.167 15 37.5s20.333 30.333 34 45s28.834 27 45.501 37s33 14.667 49 14c4 -20 3.83301 -34.667 -0.5 -44s-11 -17.166 -20 -23.499s-19.5 -13.333 -31.5 -21s-23 -19.5 -33 -35.5z" />
    <glyph glyph-name="Icircumflex" unicode="&#xce;" horiz-adv-x="220" 
d="M11 34c-1.33301 4.66699 -1.49805 11.1631 -0.498047 19.4961s2.33301 16.833 4 25.5s3.5 16.334 5.5 23.001s3 10.334 3 11.001l226 588c4.66699 12 9 16.5 13 13.5s7.16699 -9.33301 9.5 -19s3.5 -20.667 3.5 -33s-1.33301 -22.166 -4 -29.499l-64.5 -152.5
c-21.667 -51 -42.334 -102.333 -62.001 -154s-38.167 -103.667 -55.5 -156s-32 -105.5 -44 -159.5c-5.33301 -3.33301 -9.83301 -4.66602 -13.5 -3.99902s-7 2.5 -10 5.5s-5.33301 6.5 -7 10.5s-2.83398 7.66699 -3.50098 11zM331.002 747.996
c-1.33301 2 -3.8291 8.16504 -7.49609 18.498s-7.83398 21 -12.501 32s-9.5 19.833 -14.5 26.5s-9.83301 7.66699 -14.5 3c-2.66699 -4 -8.16699 -13 -16.5 -27s-18.5 -27.667 -30.5 -41s-24.667 -23.833 -38 -31.5s-26.333 -7.5 -39 0.5
c-3.33301 2 -6.83301 4.83301 -10.5 8.5s-4.16699 8.16699 -1.5 13.5c3.33301 6 9.33301 12.5 18 19.5l27 21c9.33301 7 18.166 14 26.499 21s14.166 13.5 17.499 19.5c14.667 31.333 28.167 52.833 40.5 64.5s23.333 16.5 33 14.5s18 -9.33301 25 -22
s12.5 -27.167 16.5 -43.5s6.83301 -33 8.5 -50s1.66699 -31.167 0 -42.5s-4.83398 -18.166 -9.50098 -20.499s-10.667 2.83398 -18 15.501z" />
    <glyph glyph-name="Idieresis" unicode="&#xcf;" horiz-adv-x="220" 
d="M11 34c-1.33301 4.66699 -1.49805 11.1631 -0.498047 19.4961s2.33301 16.833 4 25.5s3.5 16.334 5.5 23.001s3 10.334 3 11.001l226 588c4.66699 12 9 16.5 13 13.5s7.16699 -9.33301 9.5 -19s3.5 -20.667 3.5 -33s-1.33301 -22.166 -4 -29.499l-64.5 -152.5
c-21.667 -51 -42.334 -102.333 -62.001 -154s-38.167 -103.667 -55.5 -156s-32 -105.5 -44 -159.5c-5.33301 -3.33301 -9.83301 -4.66602 -13.5 -3.99902s-7 2.5 -10 5.5s-5.33301 6.5 -7 10.5s-2.83398 7.66699 -3.50098 11zM144.002 786.996
c-9.33301 14 -11.834 28.001 -7.50098 42.001s11.833 24.833 22.5 32.5s22.334 10.667 35.001 9s22.667 -10.834 30 -27.501c4 -10 3.33301 -20.5 -2 -31.5s-12.666 -20 -21.999 -27s-19.333 -10.833 -30 -11.5s-19.334 4 -26.001 14zM288.001 791.997
c-10 14 -12.6719 28.001 -8.00488 42.001s12.334 24.833 23.001 32.5s22.334 10.667 35.001 9s22.334 -10.834 29.001 -27.501c4 -10 3.33301 -20.5 -2 -31.5s-12.666 -20 -21.999 -27s-19.166 -10.833 -29.499 -11.5s-18.833 4 -25.5 14z" />
    <glyph glyph-name="Eth" unicode="&#xd0;" horiz-adv-x="823" 
d="M-23 342c-8 8 -8.1748 15.6699 -0.507812 23.0029s20.334 14.166 38.001 20.499s39.334 11.833 65.001 16.5s52.834 8.66699 81.501 12l30.5 67c9.66699 21.333 17.167 38.666 22.5 51.999c-6 19.333 -7.16699 36.5 -3.5 51.5s10.167 28.667 19.5 41
s20.666 23.666 33.999 33.999l40 30.5c38 28 79 49.667 123 65s88.833 23.833 134.5 25.5s91.167 -4.16602 136.5 -17.499s88 -35 128 -65c32 -26.667 50.833 -55.667 56.5 -87s1.16699 -63.5 -13.5 -96.5s-37.5 -66.5 -68.5 -100.5s-67.167 -67.333 -108.5 -100
s-86.166 -64.167 -134.499 -94.5s-96.666 -58.333 -144.999 -84s-95.333 -48.334 -141 -68.001s-86.334 -35.167 -122.001 -46.5s-64.834 -18.166 -87.501 -20.499s-35.667 1.16699 -39 10.5c-3.33301 10 -2.66602 18.833 2.00098 26.5s11.667 14.167 21 19.5
c41.333 20.667 81.666 38.167 120.999 52.5l116.5 43c38.333 14.333 76.5 30.333 114.5 48s76.667 40.5 116 68.5c87.333 50.667 154.333 98 201 142s77.667 83.833 93 119.5s17.333 67 6 94s-31 48.833 -59 65.5s-62.167 27.834 -102.5 33.501
s-82.166 5.16699 -125.499 -1.5s-85.666 -19.834 -126.999 -39.501s-77 -46.834 -107 -81.501c-0.666992 -1.33301 -1.66699 -3.66602 -3 -6.99902s-2.5 -6.83301 -3.5 -10.5l-3 -11c-1 -3.66699 -1.5 -5.83398 -1.5 -6.50098c-7.33301 -30 -14.333 -57 -21 -81
s-13.667 -46 -21 -66c26.667 0.666992 51.834 0.333984 75.501 -0.999023s44 -4.16602 61 -8.49902s29.5 -10.333 37.5 -18s9.33301 -16.834 4 -27.501c-7.33301 0 -19.5 -0.5 -36.5 -1.5s-35.167 -2.16699 -54.5 -3.5s-37.666 -2.5 -54.999 -3.5s-29.333 -1.5 -36 -1.5
c-3.33301 -0.666992 -7.16602 -1.33398 -11.499 -2.00098l-13.5 -2c-10 -20.667 -20 -39.834 -30 -57.501l-30 -53.5c-10 -18 -20 -37 -30 -57s-20 -43 -30 -69c-12 -4 -20.5 -3.66699 -25.5 1s-7.83301 11.834 -8.5 21.501s0.5 20.834 3.5 33.501s6.5 25 10.5 37
s8 23 12 33s6.66699 17 8 21l12.5 31c5 12 10.833 24.667 17.5 38c-14 -2.66699 -28.167 -5 -42.5 -7s-27.666 -2.66699 -39.999 -2s-23.833 2.66699 -34.5 6s-19.667 8.66602 -27 15.999z" />
    <glyph glyph-name="Ntilde" unicode="&#xd1;" horiz-adv-x="830" 
d="M11 23c4.66699 20.667 12.8311 43.666 24.498 68.999s24.5 50.333 38.5 75l41 70.5c13.333 22.333 24 41.166 32 56.499l18.5 36.5l28 56l33 65.5l33 65.5l28 56l18.5 36.5c20.667 21.333 37.834 27.333 51.501 18s25.834 -28.333 36.501 -57s20.334 -64 29.001 -106
s18 -85 28 -129s21.333 -86 34 -126s28 -72.333 46 -97c8.66699 -4 19.167 0.333008 31.5 13s25.833 31.167 40.5 55.5s30 52.833 46 85.5l48.5 103l47.5 109l43 101.5l34.5 81.5c9.66699 23.333 17.167 39.666 22.5 48.999c4.66699 8.66699 9.5 12.834 14.5 12.501
s9.16699 -3 12.5 -8s5.83301 -11.333 7.5 -19s1.5 -14.5 -0.5 -20.5l-60 -157c-18.667 -46.667 -37.834 -91.667 -57.501 -135l-63 -132.5l-76.5 -149.5c-21.333 -26 -42 -40.5 -62 -43.5s-40.667 11.5 -62 43.5c-22 38.667 -39.333 75.334 -52 110.001
s-23.5 68.834 -32.5 102.501s-17.167 68 -24.5 103s-16.333 72.833 -27 113.5c-6 4 -16 -3 -30 -21s-30.167 -42 -48.5 -72s-37.5 -63.667 -57.5 -101l-57 -108l-48 -93c-14 -27.333 -24 -46.333 -30 -57l-12.5 -22l-15 -26l-13 -22l-5.5 -9h-34
c-0.666992 1.33301 -1 5 -1 11s0.333008 10 1 12zM512.997 683.999c-19.333 3.33301 -33.8301 11.166 -43.4971 23.499s-17.334 25.333 -23.001 39s-10.5 25.834 -14.5 36.501s-9.83301 16 -17.5 16s-18.834 -7.66699 -33.501 -23s-35 -42 -61 -80
c-13.333 -8 -22.166 -10 -26.499 -6s-5.5 11.5 -3.5 22.5s6.83301 24.167 14.5 39.5s17.167 30.333 28.5 45s24.166 27.5 38.499 38.5s29 17.833 44 20.5s30 -0.333008 45 -9s28.833 -25.334 41.5 -50.001c6 -28.667 14.5 -48.334 25.5 -59.001s23.667 -15.5 38 -14.5
s29.833 6.33301 46.5 16s34 20.834 52 33.501l55 38.5c18.667 13 36.667 23.167 54 30.5c4 -6.66699 2 -16.167 -6 -28.5s-19.5 -25.666 -34.5 -39.999s-32.333 -28.5 -52 -42.5s-39.834 -25.833 -60.501 -35.5s-40.5 -16 -59.5 -19s-34.833 -0.5 -47.5 7.5z" />
    <glyph glyph-name="Ograve" unicode="&#xd2;" horiz-adv-x="527" 
d="M97 11c-33.333 14 -55.3359 33.5 -66.0029 58.5s-14.334 52 -11.001 81s11.5 58.167 24.5 87.5s26.5 55.333 40.5 78c4.66699 8 13.334 21.667 26.001 41l40.5 61.5l41 61l27.5 39.5c8 51.333 24 92.166 48 122.499s51.167 51.166 81.5 62.499s61.5 13.833 93.5 7.5
s60 -20.666 84 -42.999s41.333 -52.166 52 -89.499s9.83398 -81 -2.49902 -131s-38.5 -106 -78.5 -168s-98.667 -129 -176 -201c-13.333 -12.667 -29.166 -24.834 -47.499 -36.501s-37.666 -21.167 -57.999 -28.5s-40.833 -11.666 -61.5 -12.999s-40 2 -58 10zM61.9971 90
c6.66699 -30 19.334 -48.666 38.001 -55.999s40.667 -6 66 4s53 27 83 51s60 52.167 90 84.5s58.667 67.5 86 105.5s51.166 75.667 71.499 113s35.833 73 46.5 107s14.167 63.5 10.5 88.5s-15.667 43.833 -36 56.5s-51.5 16.334 -93.5 11.001
c-15.333 -13.333 -35.666 -32.833 -60.999 -58.5s-52.333 -54.834 -81 -87.501s-57.334 -67.834 -86.001 -105.501s-54 -75.167 -76 -112.5s-38.667 -73.333 -50 -108s-14 -65.667 -8 -93zM396.997 779.001c-9.33301 16 -19.001 27.333 -29.001 34l-26.5 18
c-7.66699 5.33301 -13.334 12.333 -17.001 21s-3.5 23 0.5 43c14.667 1.33301 29.334 -3 44.001 -13s28.167 -22 40.5 -36s22.333 -28.5 30 -43.5s11.834 -27 12.501 -36s-3.33301 -13.333 -12 -13s-23 8.83301 -43 25.5z" />
    <glyph glyph-name="Oacute" unicode="&#xd3;" horiz-adv-x="527" 
d="M97 11c-33.333 14 -55.3359 33.5 -66.0029 58.5s-14.334 52 -11.001 81s11.5 58.167 24.5 87.5s26.5 55.333 40.5 78c4.66699 8 13.334 21.667 26.001 41l40.5 61.5l41 61l27.5 39.5c8 51.333 24 92.166 48 122.499s51.167 51.166 81.5 62.499s61.5 13.833 93.5 7.5
s60 -20.666 84 -42.999s41.333 -52.166 52 -89.499s9.83398 -81 -2.49902 -131s-38.5 -106 -78.5 -168s-98.667 -129 -176 -201c-13.333 -12.667 -29.166 -24.834 -47.499 -36.501s-37.666 -21.167 -57.999 -28.5s-40.833 -11.666 -61.5 -12.999s-40 2 -58 10zM61.9971 90
c6.66699 -30 19.334 -48.666 38.001 -55.999s40.667 -6 66 4s53 27 83 51s60 52.167 90 84.5s58.667 67.5 86 105.5s51.166 75.667 71.499 113s35.833 73 46.5 107s14.167 63.5 10.5 88.5s-15.667 43.833 -36 56.5s-51.5 16.334 -93.5 11.001
c-15.333 -13.333 -35.666 -32.833 -60.999 -58.5s-52.333 -54.834 -81 -87.501s-57.334 -67.834 -86.001 -105.501s-54 -75.167 -76 -112.5s-38.667 -73.333 -50 -108s-14 -65.667 -8 -93zM350.997 736.001c-22 -16 -37.501 -24.001 -46.501 -24.001s-13 4.83301 -12 14.5
s6 22.167 15 37.5s20.333 30.333 34 45s28.834 27 45.501 37s33 14.667 49 14c4 -20 3.83301 -34.667 -0.5 -44s-11 -17.166 -20 -23.499s-19.5 -13.333 -31.5 -21s-23 -19.5 -33 -35.5z" />
    <glyph glyph-name="Ocircumflex" unicode="&#xd4;" horiz-adv-x="527" 
d="M97 11c-33.333 14 -55.3359 33.5 -66.0029 58.5s-14.334 52 -11.001 81s11.5 58.167 24.5 87.5s26.5 55.333 40.5 78c4.66699 8 13.334 21.667 26.001 41l40.5 61.5l41 61l27.5 39.5c8 51.333 24 92.166 48 122.499s51.167 51.166 81.5 62.499s61.5 13.833 93.5 7.5
s60 -20.666 84 -42.999s41.333 -52.166 52 -89.499s9.83398 -81 -2.49902 -131s-38.5 -106 -78.5 -168s-98.667 -129 -176 -201c-13.333 -12.667 -29.166 -24.834 -47.499 -36.501s-37.666 -21.167 -57.999 -28.5s-40.833 -11.666 -61.5 -12.999s-40 2 -58 10zM61.9971 90
c6.66699 -30 19.334 -48.666 38.001 -55.999s40.667 -6 66 4s53 27 83 51s60 52.167 90 84.5s58.667 67.5 86 105.5s51.166 75.667 71.499 113s35.833 73 46.5 107s14.167 63.5 10.5 88.5s-15.667 43.833 -36 56.5s-51.5 16.334 -93.5 11.001
c-15.333 -13.333 -35.666 -32.833 -60.999 -58.5s-52.333 -54.834 -81 -87.501s-57.334 -67.834 -86.001 -105.501s-54 -75.167 -76 -112.5s-38.667 -73.333 -50 -108s-14 -65.667 -8 -93zM544.997 765.001c-1.33301 2 -3.8291 8.16504 -7.49609 18.498
s-7.83398 21 -12.501 32s-9.5 19.833 -14.5 26.5s-9.83301 7.66699 -14.5 3c-2.66699 -4 -8.16699 -13 -16.5 -27s-18.5 -27.667 -30.5 -41s-24.667 -23.833 -38 -31.5s-26.333 -7.5 -39 0.5c-3.33301 2 -6.83301 4.83301 -10.5 8.5s-4.16699 8.16699 -1.5 13.5
c3.33301 6 9.33301 12.5 18 19.5l27 21c9.33301 7 18.166 14 26.499 21s14.166 13.5 17.499 19.5c14.667 31.333 28.167 52.833 40.5 64.5s23.333 16.5 33 14.5s18 -9.33301 25 -22s12.5 -27.167 16.5 -43.5s6.83301 -33 8.5 -50s1.66699 -31.167 0 -42.5
s-4.83398 -18.166 -9.50098 -20.499s-10.667 2.83398 -18 15.501z" />
    <glyph glyph-name="Otilde" unicode="&#xd5;" horiz-adv-x="527" 
d="M97 11c-33.333 14 -55.3359 33.5 -66.0029 58.5s-14.334 52 -11.001 81s11.5 58.167 24.5 87.5s26.5 55.333 40.5 78c4.66699 8 13.334 21.667 26.001 41l40.5 61.5l41 61l27.5 39.5c8 51.333 24 92.166 48 122.499s51.167 51.166 81.5 62.499s61.5 13.833 93.5 7.5
s60 -20.666 84 -42.999s41.333 -52.166 52 -89.499s9.83398 -81 -2.49902 -131s-38.5 -106 -78.5 -168s-98.667 -129 -176 -201c-13.333 -12.667 -29.166 -24.834 -47.499 -36.501s-37.666 -21.167 -57.999 -28.5s-40.833 -11.666 -61.5 -12.999s-40 2 -58 10zM61.9971 90
c6.66699 -30 19.334 -48.666 38.001 -55.999s40.667 -6 66 4s53 27 83 51s60 52.167 90 84.5s58.667 67.5 86 105.5s51.166 75.667 71.499 113s35.833 73 46.5 107s14.167 63.5 10.5 88.5s-15.667 43.833 -36 56.5s-51.5 16.334 -93.5 11.001
c-15.333 -13.333 -35.666 -32.833 -60.999 -58.5s-52.333 -54.834 -81 -87.501s-57.334 -67.834 -86.001 -105.501s-54 -75.167 -76 -112.5s-38.667 -73.333 -50 -108s-14 -65.667 -8 -93zM503.997 704.001c-19.333 3.33301 -33.8301 11.166 -43.4971 23.499
s-17.334 25.333 -23.001 39s-10.5 25.834 -14.5 36.501s-9.83301 16 -17.5 16s-18.834 -7.66699 -33.501 -23s-35 -42 -61 -80c-13.333 -8 -22.166 -10 -26.499 -6s-5.5 11.5 -3.5 22.5s6.83301 24.167 14.5 39.5s17.167 30.333 28.5 45s24.166 27.5 38.499 38.5
s29 17.833 44 20.5s30 -0.333008 45 -9s28.833 -25.334 41.5 -50.001c6 -28.667 14.5 -48.334 25.5 -59.001s23.667 -15.5 38 -14.5s29.833 6.33301 46.5 16s34 20.834 52 33.501l55 38.5c18.667 13 36.667 23.167 54 30.5c4 -6.66699 2 -16.167 -6 -28.5
s-19.5 -25.666 -34.5 -39.999s-32.333 -28.5 -52 -42.5s-39.834 -25.833 -60.501 -35.5s-40.5 -16 -59.5 -19s-34.833 -0.5 -47.5 7.5z" />
    <glyph glyph-name="Odieresis" unicode="&#xd6;" horiz-adv-x="527" 
d="M97 11c-33.333 14 -55.3359 33.5 -66.0029 58.5s-14.334 52 -11.001 81s11.5 58.167 24.5 87.5s26.5 55.333 40.5 78c4.66699 8 13.334 21.667 26.001 41l40.5 61.5l41 61l27.5 39.5c8 51.333 24 92.166 48 122.499s51.167 51.166 81.5 62.499s61.5 13.833 93.5 7.5
s60 -20.666 84 -42.999s41.333 -52.166 52 -89.499s9.83398 -81 -2.49902 -131s-38.5 -106 -78.5 -168s-98.667 -129 -176 -201c-13.333 -12.667 -29.166 -24.834 -47.499 -36.501s-37.666 -21.167 -57.999 -28.5s-40.833 -11.666 -61.5 -12.999s-40 2 -58 10zM61.9971 90
c6.66699 -30 19.334 -48.666 38.001 -55.999s40.667 -6 66 4s53 27 83 51s60 52.167 90 84.5s58.667 67.5 86 105.5s51.166 75.667 71.499 113s35.833 73 46.5 107s14.167 63.5 10.5 88.5s-15.667 43.833 -36 56.5s-51.5 16.334 -93.5 11.001
c-15.333 -13.333 -35.666 -32.833 -60.999 -58.5s-52.333 -54.834 -81 -87.501s-57.334 -67.834 -86.001 -105.501s-54 -75.167 -76 -112.5s-38.667 -73.333 -50 -108s-14 -65.667 -8 -93zM338.997 765.001c-9.33301 14 -11.834 28.001 -7.50098 42.001
s11.833 24.833 22.5 32.5s22.334 10.667 35.001 9s22.667 -10.834 30 -27.501c4 -10 3.33301 -20.5 -2 -31.5s-12.666 -20 -21.999 -27s-19.333 -10.833 -30 -11.5s-19.334 4 -26.001 14zM482.996 770.002c-10 14 -12.6719 28.001 -8.00488 42.001
s12.334 24.833 23.001 32.5s22.334 10.667 35.001 9s22.334 -10.834 29.001 -27.501c4 -10 3.33301 -20.5 -2 -31.5s-12.666 -20 -21.999 -27s-19.166 -10.833 -29.499 -11.5s-18.833 4 -25.5 14z" />
    <glyph glyph-name="multiply" unicode="&#xd7;" horiz-adv-x="682" 
d="M86 90c-6 8.66699 -6.33105 17.5 -0.998047 26.5s13.833 17.833 25.5 26.5s25 17.5 40 26.5s29 18.333 42 28s23.5 19.667 31.5 30s10.667 21.166 8 32.499c-0.666992 2.66699 -2.66699 10.167 -6 22.5l-11 39.5l-11 39c-3.33301 12 -5.33301 19.667 -6 23v23
c8.66699 6.66699 17.167 4.66699 25.5 -6s16.333 -24.167 24 -40.5l22 -48.5c7 -16 13.167 -26 18.5 -30c12 8 24.833 17.5 38.5 28.5l40.5 34l38 34c12 11 22 20.5 30 28.5c14 7.33301 23.833 10.5 29.5 9.5s8.5 -4.5 8.5 -10.5s-1.83301 -13.333 -5.5 -22
s-7.83398 -17.167 -12.501 -25.5s-9.16699 -15.5 -13.5 -21.5l-6.5 -9c-39.333 -26 -68 -46.167 -86 -60.5s-29 -26.166 -33 -35.499s-2.83301 -17.833 3.5 -25.5s14 -17.5 23 -29.5s17.333 -28.333 25 -49s11.167 -48.334 10.5 -83.001c-19.333 -6 -34 -5.5 -44 1.5
s-17.167 17.167 -21.5 30.5s-7 28.333 -8 45s-2.66699 31.834 -5 45.501s-6.33301 24.167 -12 31.5s-15.334 8.33301 -29.001 3s-32.5 -18.5 -56.5 -39.5s-55 -52.833 -93 -95.5c-2 1.33301 -6 5 -12 11s-9.66699 10 -11 12z" />
    <glyph glyph-name="Oslash" unicode="&#xd8;" horiz-adv-x="527" 
d="M97 11c-33.333 14 -55.3359 33.5 -66.0029 58.5s-14.334 52 -11.001 81s11.5 58.167 24.5 87.5s26.5 55.333 40.5 78c4.66699 8 13.334 21.667 26.001 41l40.5 61.5l41 61l27.5 39.5c8 51.333 24 92.166 48 122.499s51.167 51.166 81.5 62.499s61.5 13.833 93.5 7.5
s60 -20.666 84 -42.999s41.333 -52.166 52 -89.499s9.83398 -81 -2.49902 -131s-38.5 -106 -78.5 -168s-98.667 -129 -176 -201c-13.333 -12.667 -29.166 -24.834 -47.499 -36.501s-37.666 -21.167 -57.999 -28.5s-40.833 -11.666 -61.5 -12.999s-40 2 -58 10zM61.9971 90
c6.66699 -30 19.334 -48.666 38.001 -55.999s40.667 -6 66 4s53 27 83 51s60 52.167 90 84.5s58.667 67.5 86 105.5s51.166 75.667 71.499 113s35.833 73 46.5 107s14.167 63.5 10.5 88.5s-15.667 43.833 -36 56.5s-51.5 16.334 -93.5 11.001
c-15.333 -13.333 -35.666 -32.833 -60.999 -58.5s-52.333 -54.834 -81 -87.501s-57.334 -67.834 -86.001 -105.501s-54 -75.167 -76 -112.5s-38.667 -73.333 -50 -108s-14 -65.667 -8 -93zM185.819 -93.7324c-4.66504 32.8555 -3.30176 72.415 4.08398 118.672
c7.38574 46.2578 18.8535 95.542 34.4023 147.852c15.5498 52.3096 33.8203 106.132 54.8115 161.468s42.5664 108.942 64.7246 160.82l64.1406 145.905l54.2285 116.076c8.55176 6.05176 15.5488 7.34863 20.9912 3.89062s9.71875 -8.8623 12.8291 -16.2119
c3.11035 -7.34863 5.05371 -15.5625 5.83105 -24.6416s0.777344 -16.2119 0 -21.3994l-23.9072 -58.3623l-35.5684 -88.1914l-35.5693 -88.1914c-11.2734 -27.668 -18.8535 -47.1221 -22.7412 -58.3623c-3.8877 -8.64648 -9.52441 -23.5615 -16.9102 -44.7441
l-23.9062 -66.793l-23.9072 -66.1436c-7.38574 -20.751 -12.2451 -35.0176 -14.5781 -42.7998c-3.8877 -12.1045 -8.55273 -30.4775 -13.9951 -55.1191s-11.6621 -51.0127 -18.6592 -79.1133s-14.3828 -55.3359 -22.1572 -81.707s-15.9375 -47.3379 -24.4893 -62.9014
c-2.33301 -2.59473 -5.44336 -5.40527 -9.33105 -8.43164s-7.77539 -5.1875 -11.6631 -6.48438s-7.77539 -0.864258 -11.6631 1.29688s-6.21973 6.7002 -6.99707 13.6172z" />
    </font>
</defs>
</svg>
